<?xml version="1.0" standalone="no"?>
<!DOCTYPE svg PUBLIC "-//W3C//DTD SVG 20010904//EN"
 "http://www.w3.org/TR/2001/REC-SVG-20010904/DTD/svg10.dtd">
<svg version="1.0" xmlns="http://www.w3.org/2000/svg"
 width="980.000000pt" height="980.000000pt" viewBox="0 0 980.000000 980.000000"
 preserveAspectRatio="xMidYMid meet">
<metadata>
Created by potrace 1.11, written by Peter Selinger 2001-2013
</metadata>
<g transform="translate(0.000000,980.000000) scale(0.100000,-0.100000)"
fill="#000000" stroke="none">
<path d="M4001 9789 c-144 -28 -290 -221 -326 -434 -23 -132 -21 -402 4 -525
10 -52 16 -98 13 -102 -4 -3 -50 1 -102 9 -130 22 -434 22 -550 0 -163 -31
-323 -135 -380 -247 -68 -133 -65 -282 8 -442 64 -140 253 -345 429 -466 51
-34 94 -66 97 -70 2 -4 -48 -43 -112 -87 -388 -266 -554 -620 -422 -892 59
-120 222 -229 380 -254 88 -14 490 -6 589 11 35 6 65 9 68 7 2 -3 -6 -51 -18
-108 -18 -83 -22 -137 -22 -269 -1 -238 34 -376 130 -522 82 -125 164 -170
320 -176 154 -6 254 28 418 143 l80 56 7 -613 c4 -337 12 -1414 18 -2393 12
-2043 19 -2260 66 -2333 9 -13 41 -36 72 -50 49 -23 70 -27 147 -27 80 0 95 3
136 27 60 35 98 86 111 151 8 36 12 835 15 2655 2 1431 6 2602 8 2602 3 0 37
-25 76 -55 85 -66 210 -129 299 -151 102 -26 228 -16 313 23 127 60 203 167
254 360 24 88 26 117 27 283 1 159 -2 199 -22 288 -13 57 -21 106 -19 108 2 3
33 0 68 -5 115 -18 411 -34 497 -27 243 20 448 153 503 326 25 82 27 206 4
287 -54 186 -218 384 -460 554 -57 41 -105 77 -105 80 0 3 46 36 101 74 115
77 257 208 325 299 150 198 192 422 112 593 -70 149 -263 261 -480 279 -86 7
-382 -9 -497 -27 -35 -5 -66 -8 -68 -5 -2 2 6 51 19 108 20 89 23 129 22 288
-1 167 -3 195 -27 285 -50 188 -129 301 -252 360 -78 38 -223 46 -325 20 -199
-51 -387 -205 -567 -462 -35 -51 -68 -93 -73 -93 -5 0 -24 21 -41 48 -108 159
-271 332 -382 405 -75 50 -168 92 -235 106 -61 13 -186 13 -251 0z m1104
-1494 c139 -38 278 -119 379 -221 167 -169 261 -443 227 -664 -52 -335 -290
-600 -616 -686 -102 -27 -284 -25 -388 4 -313 88 -526 316 -591 634 -88 428
200 850 644 944 82 17 263 11 345 -11z"/>
<path d="M2573 5845 c-108 -55 -217 -196 -284 -370 -68 -175 -103 -373 -115
-646 -4 -85 -10 -160 -14 -168 -5 -10 -48 25 -153 126 -80 78 -183 171 -229
208 -273 220 -552 347 -768 349 -75 1 -92 -2 -142 -28 -102 -52 -141 -106
-161 -223 -36 -221 113 -582 379 -911 37 -46 116 -134 175 -196 l109 -113
-233 -6 c-328 -8 -530 -44 -722 -128 -207 -91 -309 -210 -309 -364 -1 -104 31
-161 148 -272 109 -103 210 -166 376 -234 331 -137 708 -193 1128 -170 214 13
280 22 411 57 161 44 295 102 356 155 l35 31 28 -30 c51 -54 180 -317 275
-559 83 -210 223 -621 214 -629 -1 -2 -32 12 -67 32 -158 84 -227 117 -310
144 -345 116 -764 116 -1273 0 -205 -47 -288 -72 -294 -87 -15 -38 74 -145
266 -321 362 -330 670 -514 1009 -600 100 -25 121 -27 317 -27 200 1 216 2
348 33 76 18 142 32 146 32 11 0 17 -55 41 -370 31 -422 40 -460 123 -514 57
-37 110 -49 187 -44 119 9 203 70 231 168 20 66 16 492 -5 695 -31 295 -111
755 -161 929 -14 48 -25 97 -25 109 0 28 50 76 146 140 180 120 320 310 393
535 45 137 71 375 71 644 0 172 -13 263 -36 254 -31 -12 -244 -156 -314 -213
-190 -153 -377 -378 -460 -551 -18 -40 -38 -71 -44 -69 -5 2 -89 163 -186 357
l-178 355 45 49 c83 92 153 236 211 431 17 56 35 134 40 175 29 206 20 836
-13 990 -70 318 -204 609 -348 752 -111 111 -255 148 -364 93z"/>
<path d="M6972 5844 c-252 -125 -453 -588 -503 -1159 -14 -167 -7 -453 16
-605 43 -286 136 -530 255 -671 22 -26 40 -52 40 -58 0 -6 -77 -165 -171 -353
l-171 -343 -43 86 c-51 102 -80 144 -186 265 -126 144 -279 277 -444 387 -102
69 -137 80 -150 50 -14 -34 -17 -290 -6 -460 26 -397 106 -608 310 -812 53
-53 220 -188 259 -210 15 -8 12 -29 -26 -193 -112 -484 -183 -1006 -186 -1363
-1 -195 10 -243 71 -315 96 -112 290 -122 396 -22 68 64 80 124 102 514 8 146
21 284 28 305 15 45 7 44 172 8 92 -20 160 -27 290 -31 198 -7 316 7 468 56
196 63 501 239 722 417 198 159 460 426 453 461 -6 32 -306 116 -551 154 -121
18 -185 22 -437 22 -274 1 -302 -1 -400 -22 -161 -36 -273 -77 -418 -153 -73
-38 -135 -69 -138 -69 -10 0 7 61 68 250 98 301 160 450 331 797 l84 172 69
-46 c225 -151 564 -223 984 -210 299 10 525 49 778 132 237 79 395 167 519
291 175 173 183 340 23 488 -105 97 -258 169 -450 212 -207 46 -525 74 -635
56 -33 -5 -61 -9 -63 -7 -1 1 52 62 119 136 294 325 470 620 525 882 38 181
-4 344 -104 409 -67 44 -102 53 -202 53 -123 -1 -218 -28 -375 -105 -213 -104
-384 -231 -612 -453 -164 -160 -148 -164 -158 38 -20 433 -121 760 -285 926
-87 88 -151 119 -245 119 -56 0 -82 -5 -123 -26z"/>
</g>
</svg>
