<?xml version="1.0" encoding="UTF-8" standalone="no"?>
<!-- Generator: Adobe Illustrator 24.0.3, SVG Export Plug-In . SVG Version: 6.00 Build 0)  -->

<svg
   xmlns:dc="http://purl.org/dc/elements/1.1/"
   xmlns:cc="http://creativecommons.org/ns#"
   xmlns:rdf="http://www.w3.org/1999/02/22-rdf-syntax-ns#"
   xmlns:svg="http://www.w3.org/2000/svg"
   xmlns="http://www.w3.org/2000/svg"
   xmlns:sodipodi="http://sodipodi.sourceforge.net/DTD/sodipodi-0.dtd"
   xmlns:inkscape="http://www.inkscape.org/namespaces/inkscape"
   version="1.1"
   id="svg6290"
   x="0px"
   y="0px"
   width="100%"
   height="100%"
   viewBox="0 0 652 708.7"
   xml:space="preserve"
   sodipodi:docname="true bug top.svg"
   inkscape:version="0.92.3 (2405546, 2018-03-11)"><metadata
   id="metadata262"><rdf:RDF><cc:Work
       rdf:about=""><dc:format>image/svg+xml</dc:format><dc:type
         rdf:resource="http://purl.org/dc/dcmitype/StillImage" /><dc:title></dc:title></cc:Work></rdf:RDF></metadata><defs
   id="defs260" />
<style
   type="text/css"
   id="style2">
	.st0{fill:#EFE0DE;}
	.st1{fill:#FFFFC3;}
	.st2{fill:#D3FFFF;}
	.st3{fill-rule:evenodd;clip-rule:evenodd;fill:#101513;stroke:#000000;}
	.st4{fill-rule:evenodd;clip-rule:evenodd;fill:#E1F0A8;stroke:#000000;}
	.st5{fill-rule:evenodd;clip-rule:evenodd;stroke:#000000;}
	.st6{fill-rule:evenodd;clip-rule:evenodd;fill:#E1F0A8;stroke:#000000;stroke-width:1;stroke-miterlimit:4;}
	.st7{fill-rule:evenodd;clip-rule:evenodd;fill:#020908;stroke:#000000;}
	.st8{fill-rule:evenodd;clip-rule:evenodd;fill:url(#path8420_1_);}
	.st9{fill-rule:evenodd;clip-rule:evenodd;fill:url(#path6376_1_);stroke:#000000;}
	.st10{fill-rule:evenodd;clip-rule:evenodd;fill:url(#path8326_1_);stroke:#000000;}
	.st11{fill-rule:evenodd;clip-rule:evenodd;fill:url(#path8328_1_);stroke:#000000;}
	.st12{fill-rule:evenodd;clip-rule:evenodd;fill:url(#path8330_1_);stroke:#000000;}
	.st13{fill-rule:evenodd;clip-rule:evenodd;fill:url(#path8332_1_);stroke:#000000;}
	.st14{fill-rule:evenodd;clip-rule:evenodd;fill:url(#path8383_1_);stroke:#000000;}
	.st15{fill-rule:evenodd;clip-rule:evenodd;fill:url(#path8385_1_);stroke:#000000;}
	.st16{fill-rule:evenodd;clip-rule:evenodd;fill:url(#path8387_1_);stroke:#000000;}
	.st17{fill-rule:evenodd;clip-rule:evenodd;fill:url(#path8389_1_);stroke:#000000;}
	.st18{fill-rule:evenodd;clip-rule:evenodd;fill:url(#path8391_1_);stroke:#000000;}
	.st19{fill-rule:evenodd;clip-rule:evenodd;fill:#424D45;stroke:#000000;}
	.st20{fill-rule:evenodd;clip-rule:evenodd;fill:#A86440;stroke:#000000;stroke-width:1;stroke-miterlimit:4;}
	.st21{fill-rule:evenodd;clip-rule:evenodd;fill:#60A860;stroke:#000000;}
	.st22{fill-rule:evenodd;clip-rule:evenodd;fill:#1B2427;fill-opacity:0.4589;stroke:#000000;}
	.st23{fill:none;stroke:#000000;stroke-width:0.5;}
	.st24{fill-rule:evenodd;clip-rule:evenodd;fill:#325638;stroke:#000000;stroke-width:0.5;}
	.st25{fill-rule:evenodd;clip-rule:evenodd;fill:#5AA85A;stroke:#000000;}
	.st26{fill:none;stroke:#A80000;stroke-width:2;}
	.st27{font-family:Liberation Sans, Arial, Sans-serif;}
	.st28{font-size:36px;}
</style>
<sodipodi:namedview
   bordercolor="#666666"
   borderopacity="1.0"
   height="1400px"
   id="base"
   inkscape:current-layer="layer14"
   inkscape:cx="91.55745"
   inkscape:cy="677.88478"
   inkscape:document-units="px"
   inkscape:pageopacity="0.0"
   inkscape:pageshadow="2"
   inkscape:window-height="971"
   inkscape:window-width="1274"
   inkscape:window-x="0"
   inkscape:window-y="0"
   inkscape:zoom="0.5"
   pagecolor="#ffffff"
   width="1280px"
   showgrid="false"
   inkscape:window-maximized="0">
	</sodipodi:namedview>
<g
   id="layer10"
   transform="translate(321.40591,96.70005)"
   inkscape:groupmode="layer"
   inkscape:label="sfondo">
	<rect
   id="rect5293"
   x="-232.5"
   y="-33.599998"
   class="st0"
   width="458.20001"
   height="152.7"
   style="fill:#efe0de" />
	<rect
   id="rect6274"
   x="-232.39999"
   y="129.10001"
   class="st1"
   width="458.10001"
   height="163.89999"
   style="fill:#ffffc3" />
	<rect
   id="rect6276"
   x="-232.10001"
   y="300.5"
   class="st2"
   width="457.5"
   height="273.60001"
   style="fill:#d3ffff" />
</g>
<g
   id="layer13"
   transform="translate(321.40591,96.70005)"
   inkscape:groupmode="layer"
   inkscape:label="pronoto">
	<g
   id="g11571"
   transform="translate(94,68)">
		<g
   id="g11394">
			<g
   id="g3724"
   transform="translate(-159.29066,-114.12929)">
				<g
   id="g5273">
					<g
   id="g5212">
						<path
   id="path5210"
   sodipodi:nodetypes="cccccc"
   class="st3"
   d="m 244.2,594.6 c 4.5,4.2 6.5,2.2 3.5,10.2 2.8,-3.5 5.8,-5.9 -0.2,-10 3.7,0.4 6.2,0.6 8,10 1.1,-9.6 -2,-11.9 -6.5,-13.5 z"
   inkscape:connector-curvature="0"
   style="clip-rule:evenodd;fill:#101513;fill-rule:evenodd;stroke:#000000" />
						<g
   id="g5199">
							<g
   id="g5178">
								<path
   id="path5172"
   sodipodi:nodetypes="ccscc"
   class="st4"
   d="m 232.8,577.9 c 5.7,6.6 6.2,14 13.3,18.8 2.5,-1.6 6.7,-3.4 4.3,-8.7 -2.2,-4.8 -6.3,-13.1 -16.1,-15.7 -5.3,-0.2 -2.6,2.6 -1.5,5.6 z"
   inkscape:connector-curvature="0"
   style="clip-rule:evenodd;fill:#e1f0a8;fill-rule:evenodd;stroke:#000000" />
								<path
   id="path5174"
   sodipodi:nodetypes="ccscc"
   class="st4"
   d="m 220.6,567.7 c 8,4.9 5,6.3 11.3,12.3 2.5,-1.6 4.5,-2.7 2,-8 -2.2,-4.8 -3.3,-4.3 -9.6,-9.9 -5.2,-0.2 -4.8,2.6 -3.7,5.6 z"
   inkscape:connector-curvature="0"
   style="clip-rule:evenodd;fill:#e1f0a8;fill-rule:evenodd;stroke:#000000" />
								<path
   id="path5176"
   sodipodi:nodetypes="ccscc"
   class="st4"
   d="m 203.9,545.7 c 1.2,5.9 9.7,21 16.8,25.8 -0.5,-6.3 8,-3.7 5.5,-9 -2.2,-4.8 -15.8,-16.6 -16.8,-24.2 -5.3,-0.1 -6.6,4.4 -5.5,7.4 z"
   inkscape:connector-curvature="0"
   style="clip-rule:evenodd;fill:#e1f0a8;fill-rule:evenodd;stroke:#000000" />
							</g>
							<g
   id="g5193">
								<path
   id="path5164"
   sodipodi:nodetypes="ccccc"
   class="st4"
   d="m 87.9,336.8 c 3.6,-1.2 7.2,-0.8 11.5,-2 3.2,-6.4 1.9,-14.6 -4.2,-21 -7.6,2 -20,-1.2 -21.8,9.8 z"
   inkscape:connector-curvature="0"
   style="clip-rule:evenodd;fill:#e1f0a8;fill-rule:evenodd;stroke:#000000" />
								<path
   id="path5166"
   sodipodi:nodetypes="cccc"
   class="st4"
   d="m 69.6,338.8 c 5.8,11 22.9,-1.5 18.5,-1.8 1.5,-6.2 -9.4,-13.3 -14.2,-13.5 -7.7,2.7 -6.4,8.8 -4.3,15.3 z"
   inkscape:connector-curvature="0"
   style="clip-rule:evenodd;fill:#e1f0a8;fill-rule:evenodd;stroke:#000000" />
								<path
   id="path5170"
   sodipodi:nodetypes="ccssssscc"
   class="st4"
   d="m 259.4,380.5 c -12.4,-1 -7.1,3.7 -6.2,7 2.5,9.2 -10.9,47 -11.6,52.5 -2,14.7 -33,88.2 -42,102.2 -2.2,3.4 3.1,-0.2 5.8,-0.3 4,-0.1 7.8,4.8 9,3.8 0.9,-0.7 11.9,-29.6 22.2,-60.9 12,-36.7 23.4,-76.7 24.6,-77.7 8.5,-13.5 -1.9,-29.6 -1.8,-26.6 z"
   inkscape:connector-curvature="0"
   style="clip-rule:evenodd;fill:#e1f0a8;fill-rule:evenodd;stroke:#000000" />
								<path
   id="path5168"
   sodipodi:nodetypes="ccssssscc"
   class="st4"
   d="m 69.2,339.4 c 5.8,11 7.4,16.5 34.5,17 4.3,-4.5 62.2,13.4 103.4,24.3 21.1,5.6 37.6,7 40.6,7.5 12.9,2.2 17.7,-17.3 -0.2,-21.1 -1.5,-0.3 -18.7,-3.4 -41.5,-9.6 -15.2,-4.1 -33,-10.9 -50,-14.1 -34.7,-6.5 -67,-6 -68,-6 -9,-2.6 -19,-1 -18.8,2 z"
   inkscape:connector-curvature="0"
   style="clip-rule:evenodd;fill:#e1f0a8;fill-rule:evenodd;stroke:#000000" />
							</g>
						</g>
					</g>
					<g
   id="g5249"
   transform="matrix(-1,0,0,1,783.61738,-1.0199472e-5)">
						<path
   id="path5251"
   sodipodi:nodetypes="cccccc"
   class="st3"
   d="m 900.1,594.6 c 4.5,4.2 6.5,2.2 3.5,10.2 2.8,-3.5 5.8,-5.9 -0.2,-10 3.7,0.4 6.2,0.6 8,10 1.1,-9.6 -2,-11.9 -6.5,-13.5 z"
   inkscape:connector-curvature="0"
   style="clip-rule:evenodd;fill:#101513;fill-rule:evenodd;stroke:#000000" />
						<g
   id="g5253">
							<g
   id="g5255">
								<path
   id="path5257"
   sodipodi:nodetypes="ccscc"
   class="st4"
   d="m 888.7,577.9 c 5.7,6.6 6.2,14 13.3,18.8 2.5,-1.6 6.7,-3.4 4.3,-8.7 -2.2,-4.8 -6.3,-13.1 -16.1,-15.7 -5.3,-0.2 -2.6,2.6 -1.5,5.6 z"
   inkscape:connector-curvature="0"
   style="clip-rule:evenodd;fill:#e1f0a8;fill-rule:evenodd;stroke:#000000" />
								<path
   id="path5259"
   sodipodi:nodetypes="ccscc"
   class="st4"
   d="m 876.6,567.7 c 8,4.9 5,6.3 11.3,12.3 2.5,-1.6 4.5,-2.7 2,-8 -2.2,-4.8 -3.3,-4.3 -9.6,-9.9 -5.3,-0.2 -4.8,2.6 -3.7,5.6 z"
   inkscape:connector-curvature="0"
   style="clip-rule:evenodd;fill:#e1f0a8;fill-rule:evenodd;stroke:#000000" />
								<path
   id="path5261"
   sodipodi:nodetypes="ccscc"
   class="st4"
   d="m 859.8,545.7 c 1.2,5.9 9.7,21 16.8,25.8 -0.5,-6.3 8,-3.7 5.5,-9 -2.2,-4.8 -15.8,-16.6 -16.8,-24.2 -5.3,-0.1 -6.6,4.4 -5.5,7.4 z"
   inkscape:connector-curvature="0"
   style="clip-rule:evenodd;fill:#e1f0a8;fill-rule:evenodd;stroke:#000000" />
							</g>
							<g
   id="g5263">
								<path
   id="path5265"
   sodipodi:nodetypes="ccccc"
   class="st4"
   d="m 743.9,336.8 c 3.6,-1.2 7.2,-0.8 11.5,-2 3.2,-6.4 1.9,-14.6 -4.2,-21 -7.6,2 -20,-1.2 -21.8,9.8 z"
   inkscape:connector-curvature="0"
   style="clip-rule:evenodd;fill:#e1f0a8;fill-rule:evenodd;stroke:#000000" />
								<path
   id="path5267"
   sodipodi:nodetypes="cccc"
   class="st4"
   d="m 725.5,338.8 c 5.8,11 22.9,-1.5 18.5,-1.8 1.5,-6.2 -9.4,-13.3 -14.2,-13.5 -7.7,2.7 -6.4,8.8 -4.3,15.3 z"
   inkscape:connector-curvature="0"
   style="clip-rule:evenodd;fill:#e1f0a8;fill-rule:evenodd;stroke:#000000" />
								<path
   id="path5269"
   sodipodi:nodetypes="ccssssscc"
   class="st4"
   d="m 915.4,380.5 c -12.4,-1 -7.1,3.7 -6.2,7 2.5,9.2 -10.9,47 -11.6,52.5 -2,14.7 -33,88.2 -42,102.2 -2.2,3.4 3.1,-0.2 5.8,-0.3 4,-0.1 7.8,4.8 9,3.8 0.9,-0.7 11.9,-29.6 22.2,-60.9 12,-36.7 23.4,-76.7 24.6,-77.7 8.5,-13.5 -2,-29.6 -1.8,-26.6 z"
   inkscape:connector-curvature="0"
   style="clip-rule:evenodd;fill:#e1f0a8;fill-rule:evenodd;stroke:#000000" />
								<path
   id="path5271"
   sodipodi:nodetypes="ccssssscc"
   class="st4"
   d="m 725.1,339.4 c 5.8,11 7.4,16.5 34.5,17 4.3,-4.5 62.2,13.4 103.4,24.3 21.1,5.6 37.6,7 40.6,7.5 12.9,2.2 17.7,-17.3 -0.2,-21.1 -1.5,-0.3 -18.7,-3.4 -41.5,-9.6 -15.2,-4.1 -33,-10.9 -50,-14.1 -34.7,-6.5 -67,-6 -68,-6 -9,-2.6 -19,-1 -18.8,2 z"
   inkscape:connector-curvature="0"
   style="clip-rule:evenodd;fill:#e1f0a8;fill-rule:evenodd;stroke:#000000" />
							</g>
						</g>
					</g>
				</g>
				<g
   id="g9358">
					<g
   id="g7276">
						<g
   id="g6295"
   transform="rotate(-112.64642,620.31428,734.28419)">
							<path
   id="path5227"
   sodipodi:nodetypes="cccccc"
   class="st5"
   d="m 1192,652.3 c 0.7,4.9 0.9,6.8 -3.4,11.8 5.1,-1.6 5.1,-3.7 5.6,-7.9 5.7,3.3 6.2,5.4 1.7,12.2 7.4,-3.7 5,-12.6 0.5,-14.2 z"
   inkscape:connector-curvature="0"
   style="clip-rule:evenodd;fill-rule:evenodd;stroke:#000000" />
							<path
   id="path5233"
   sodipodi:nodetypes="ccscc"
   class="st4"
   d="m 1186.9,643 c 3.3,3.7 0.1,5 6.5,14.3 2.5,-1.6 9,-2.1 6.6,-7.4 -2.2,-4.8 -5.5,-11 -9.2,-10.1 -5.2,-0.2 -5,0.2 -3.9,3.2 z"
   inkscape:connector-curvature="0"
   style="clip-rule:evenodd;fill:#e1f0a8;fill-rule:evenodd;stroke:#000000" />
							<path
   id="path5235"
   sodipodi:nodetypes="ccscc"
   class="st4"
   d="m 1176.1,633.4 c 8,4.9 3.5,4.3 9.8,10.4 2.5,-1.6 8.7,-0.9 6.3,-6.2 -2.2,-4.8 -5.7,-5.5 -12,-11.1 -5.3,-0.3 -5.2,3.8 -4.1,6.9 z"
   inkscape:connector-curvature="0"
   style="clip-rule:evenodd;fill:#e1f0a8;fill-rule:evenodd;stroke:#000000" />
							<path
   id="path5237"
   sodipodi:nodetypes="ccsscc"
   class="st4"
   d="m 1162.4,612.8 c 1.2,5.9 6.2,14.4 14.3,22 2.6,-4.1 6.5,-5.1 4,-10.4 -1.4,-3 -7.5,-8.4 -12.2,-12.9 -2.1,-2 3.1,-4.4 2.7,-7.3 -7.8,-2.4 -9.9,5.6 -8.8,8.6 z"
   inkscape:connector-curvature="0"
   style="clip-rule:evenodd;fill:#e1f0a8;fill-rule:evenodd;stroke:#000000" />
						</g>
						<g
   id="g7270">
							<path
   id="path5241"
   sodipodi:nodetypes="ccccc"
   class="st4"
   d="m 83.3,299.2 c 3.6,-2.1 7.2,-2.6 11.5,-4.8 3.2,-7.2 0.5,-15.8 -5.7,-20.7 -10.1,1.1 -25.3,8.3 -15.7,19.4 z"
   inkscape:connector-curvature="0"
   style="clip-rule:evenodd;fill:#e1f0a8;fill-rule:evenodd;stroke:#000000" />
							<path
   id="path5243"
   sodipodi:nodetypes="cccc"
   class="st4"
   d="m 71.5,301.7 c 5.8,11 17.6,-1.2 16.4,-4.9 1.5,-6.2 -12.2,-8.7 -17.1,-8.9 -2.9,3.5 -1.4,7.3 0.7,13.8 z"
   inkscape:connector-curvature="0"
   style="clip-rule:evenodd;fill:#e1f0a8;fill-rule:evenodd;stroke:#000000" />
							<path
   id="path5245"
   sodipodi:nodetypes="ccssssscc"
   class="st6"
   d="m 199.7,213.5 c -0.5,5.9 -2.2,2.5 0,6.3 10.2,3.6 28.4,17.3 32.7,20.8 11.9,9.6 53.3,43.4 56.8,44.7 2,0.7 2.5,-3.2 3.2,-5.9 1,-3.9 3.6,-2.7 3.2,-4.2 -0.3,-1.1 -17.1,-11 -26.9,-18.7 -30.4,-23.7 -42.5,-33.4 -43.2,-34.8 -10.9,-11.7 -25.6,-10.3 -25.8,-8.2 z"
   inkscape:connector-curvature="0"
   style="clip-rule:evenodd;fill:#e1f0a8;fill-rule:evenodd;stroke:#000000;stroke-width:1;stroke-miterlimit:4" />
							<path
   id="path5247"
   sodipodi:nodetypes="csccscc"
   class="st4"
   d="m 72.5,304.1 c 5.8,11 21.6,9.4 33.8,-1.7 23.5,-21.4 77.3,-61.4 93.1,-78.5 1.8,-5.2 5,-10.3 0.1,-11.9 -14.3,-6.6 -31.6,13.7 -61,40.3 -15.5,14 -35.5,27.9 -50.3,44.9 -8,6.7 -15.8,3.9 -15.7,6.9 z"
   inkscape:connector-curvature="0"
   style="clip-rule:evenodd;fill:#e1f0a8;fill-rule:evenodd;stroke:#000000" />
						</g>
					</g>
					<g
   id="g7376"
   transform="matrix(-1,0,0,1,778.58132,1.7694102)">
						<g
   id="g7378"
   transform="rotate(-112.64642,620.31428,734.28419)">
							<path
   id="path7380"
   sodipodi:nodetypes="cccccc"
   class="st5"
   d="m 941.3,1255.7 c 0.7,4.9 0.9,6.8 -3.4,11.8 5.1,-1.6 5.1,-3.7 5.6,-7.9 5.7,3.3 6.2,5.4 1.7,12.2 7.4,-3.7 5,-12.6 0.5,-14.2 z"
   inkscape:connector-curvature="0"
   style="clip-rule:evenodd;fill-rule:evenodd;stroke:#000000" />
							<path
   id="path7382"
   sodipodi:nodetypes="ccscc"
   class="st4"
   d="m 936.2,1246.4 c 3.3,3.7 0.1,5 6.5,14.3 2.5,-1.6 9,-2.1 6.6,-7.4 -2.2,-4.8 -5.5,-11 -9.2,-10.1 -5.3,-0.2 -5,0.2 -3.9,3.2 z"
   inkscape:connector-curvature="0"
   style="clip-rule:evenodd;fill:#e1f0a8;fill-rule:evenodd;stroke:#000000" />
							<path
   id="path7384"
   sodipodi:nodetypes="ccscc"
   class="st4"
   d="m 925.3,1236.7 c 8,4.9 3.5,4.3 9.8,10.4 2.5,-1.6 8.7,-0.9 6.3,-6.2 -2.2,-4.8 -5.7,-5.5 -12,-11.1 -5.3,-0.2 -5.2,3.9 -4.1,6.9 z"
   inkscape:connector-curvature="0"
   style="clip-rule:evenodd;fill:#e1f0a8;fill-rule:evenodd;stroke:#000000" />
							<path
   id="path7386"
   sodipodi:nodetypes="ccsscc"
   class="st4"
   d="m 911.6,1216.2 c 1.2,5.9 6.2,14.4 14.3,22 2.6,-4.1 6.5,-5.1 4,-10.4 -1.4,-3 -7.5,-8.4 -12.2,-12.9 -2.1,-2 3.1,-4.4 2.7,-7.3 -7.7,-2.4 -9.9,5.6 -8.8,8.6 z"
   inkscape:connector-curvature="0"
   style="clip-rule:evenodd;fill:#e1f0a8;fill-rule:evenodd;stroke:#000000" />
						</g>
						<g
   id="g7388">
							<path
   id="path7390"
   sodipodi:nodetypes="ccccc"
   class="st4"
   d="m 736.7,298.3 c 3.6,-2.1 7.2,-2.6 11.5,-4.8 3.2,-7.2 0.5,-15.8 -5.7,-20.7 -10.1,1.1 -25.3,8.3 -15.7,19.4 z"
   inkscape:connector-curvature="0"
   style="clip-rule:evenodd;fill:#e1f0a8;fill-rule:evenodd;stroke:#000000" />
							<path
   id="path7392"
   sodipodi:nodetypes="cccc"
   class="st4"
   d="m 724.9,300.9 c 5.8,11 17.6,-1.2 16.4,-4.9 1.5,-6.2 -12.2,-8.7 -17.1,-8.9 -2.9,3.4 -1.4,7.2 0.7,13.8 z"
   inkscape:connector-curvature="0"
   style="clip-rule:evenodd;fill:#e1f0a8;fill-rule:evenodd;stroke:#000000" />
							<path
   id="path7394"
   sodipodi:nodetypes="ccssssscc"
   class="st6"
   d="m 853.1,212.6 c -0.5,5.9 -2.2,2.5 0,6.3 10.2,3.6 28.4,17.3 32.7,20.8 11.9,9.6 53.3,43.4 56.8,44.7 2,0.7 2.5,-3.2 3.2,-5.9 1,-3.9 3.6,-2.7 3.2,-4.2 -0.3,-1.1 -17.1,-11 -26.9,-18.7 -30.4,-23.7 -42.5,-33.4 -43.2,-34.8 -10.9,-11.7 -25.6,-10.2 -25.8,-8.2 z"
   inkscape:connector-curvature="0"
   style="clip-rule:evenodd;fill:#e1f0a8;fill-rule:evenodd;stroke:#000000;stroke-width:1;stroke-miterlimit:4" />
							<path
   id="path7396"
   sodipodi:nodetypes="csccscc"
   class="st4"
   d="m 725.9,303.2 c 5.8,11 21.6,9.4 33.8,-1.7 23.5,-21.4 77.3,-61.4 93.1,-78.5 1.8,-5.2 5,-10.3 0.1,-11.9 -14.3,-6.6 -31.6,13.7 -61,40.3 -15.5,14 -35.5,27.9 -50.3,44.9 -8,6.7 -15.8,3.9 -15.7,6.9 z"
   inkscape:connector-curvature="0"
   style="clip-rule:evenodd;fill:#e1f0a8;fill-rule:evenodd;stroke:#000000" />
						</g>
					</g>
				</g>
				<g
   id="g9382">
					<g
   id="g7288"
   transform="translate(-7.8349315,-132.58088)">
						<g
   id="g7290"
   transform="rotate(-112.64642,620.31428,734.28419)">
							<path
   id="path7292"
   sodipodi:nodetypes="cssscscsccc"
   class="st7"
   d="m 1186.8,631.4 c -0.4,0.6 -0.7,1.2 -2.4,1.9 -0.9,0.4 -1.4,0.8 -2.1,1.5 -0.6,0.6 -0.5,1.9 -0.9,2.6 -1.2,2.1 -2.7,1.9 -2.8,4.9 2.4,-3 4.4,-4.7 5.8,-5.7 1.7,-1.2 2.7,-1.4 3.7,-2 2,1.1 2.4,3.4 3.9,3.3 2.7,-0.2 1.9,2.6 1.6,6.2 2.5,-5.2 0.8,-9.4 -3.7,-11 z"
   inkscape:connector-curvature="0"
   style="clip-rule:evenodd;fill:#020908;fill-rule:evenodd;stroke:#000000" />
							<path
   id="path7294"
   sodipodi:nodetypes="cscc"
   class="st4"
   d="m 1186.2,633.1 c 3,0.9 2.4,3.2 5.7,-1.6 3.4,-5.1 2.1,-12.6 -1.6,-11.7 -9.1,-0.2 -6.6,9.7 -4.1,13.3 z"
   inkscape:connector-curvature="0"
   style="clip-rule:evenodd;fill:#e1f0a8;fill-rule:evenodd;stroke:#000000" />
							<path
   id="path7296"
   sodipodi:nodetypes="ccscc"
   class="st4"
   d="m 1186,608.8 c -2.3,4.2 -3.2,8 -0.5,12 2.5,-1.6 4.9,4 7.1,-1.4 1.6,-3.8 0.8,-5.5 -0.2,-9 -5.2,-0.3 -2.6,-2.4 -6.4,-1.6 z"
   inkscape:connector-curvature="0"
   style="clip-rule:evenodd;fill:#e1f0a8;fill-rule:evenodd;stroke:#000000" />
							<path
   id="path7298"
   sodipodi:nodetypes="ccsscc"
   class="st4"
   d="m 1185,592.6 c -1.3,4.6 -3,11.7 -1.1,18.2 4.1,-1.6 11.3,2.4 11.4,-3.4 0.1,-4.3 -1.6,-7.5 -4.7,-13.4 -1.4,-2.7 2.2,-1.5 1.9,-4.4 -7.8,-2.4 -8.6,0 -7.5,3 z"
   inkscape:connector-curvature="0"
   style="clip-rule:evenodd;fill:#e1f0a8;fill-rule:evenodd;stroke:#000000" />
						</g>
						<g
   id="g7300">
							<path
   id="path7302"
   sodipodi:nodetypes="ccccc"
   class="st4"
   d="m 87.2,365.5 c 3.6,-2.1 3.8,-6.3 8.1,-8.5 1.3,-7.6 -3.8,-12.9 -8.1,-13.6 -6.6,0.7 -14.2,6.6 -9.9,16 z"
   inkscape:connector-curvature="0"
   style="clip-rule:evenodd;fill:#e1f0a8;fill-rule:evenodd;stroke:#000000" />
							<path
   id="path7304"
   sodipodi:nodetypes="cccc"
   class="st4"
   d="m 79,367 c 7.6,5 13.9,-2.9 12.7,-6.7 1.5,-6.2 -9.7,-8 -14.6,-8.2 -3,3.4 -4.2,12.1 1.9,14.9 z"
   inkscape:connector-curvature="0"
   style="clip-rule:evenodd;fill:#e1f0a8;fill-rule:evenodd;stroke:#000000" />
							<path
   id="path7306"
   sodipodi:nodetypes="ccsssssssc"
   class="st6"
   d="m 195.8,318.5 c -0.5,5.9 2.6,7.1 4.8,10.9 12,-3.7 27.7,-22.3 30.6,-26.8 8.4,-12.8 38.1,-26.4 42.6,-31.5 1.4,-1.6 -6.7,-5.7 -6,-8.4 1,-3.9 0.8,-5.5 0.4,-7 -0.3,-1.1 -17.6,13.5 -26.4,22.3 -12.8,12.9 -21.3,22.5 -26.6,28 -5.4,5.5 -11.3,9.4 -15.1,11 -2.6,1.2 -4.2,0.7 -4.3,1.5 z"
   inkscape:connector-curvature="0"
   style="clip-rule:evenodd;fill:#e1f0a8;fill-rule:evenodd;stroke:#000000;stroke-width:1;stroke-miterlimit:4" />
							<path
   id="path7308"
   sodipodi:nodetypes="cssccsscc"
   class="st4"
   d="m 78.4,367.2 c 10.8,5.4 19.3,0.3 26.5,-2.3 21,-7.3 47.4,-15.3 69.8,-23.1 9.4,-3.3 21.6,-7.5 26.3,-12.6 -0.5,-6.3 -3,-7.3 -5.2,-12.1 -7.2,-1.1 -15.7,3.6 -42.8,13.2 -12,4.3 -21.9,9.5 -37.9,16.7 -11,5 -18.9,6.4 -23.9,12.1 -8,6.8 -13,5.1 -12.8,8.1 z"
   inkscape:connector-curvature="0"
   style="clip-rule:evenodd;fill:#e1f0a8;fill-rule:evenodd;stroke:#000000" />
						</g>
					</g>
					<g
   id="g9336"
   transform="matrix(-1,0,0,1,775.85364,-130.90134)">
						<g
   id="g9338"
   transform="rotate(-112.64642,620.31428,734.28419)">
							<path
   id="path9340"
   sodipodi:nodetypes="cssscscsccc"
   class="st7"
   d="m 938,1229.9 c -0.4,0.6 -0.7,1.2 -2.4,1.9 -0.9,0.4 -1.4,0.8 -2.1,1.5 -0.6,0.6 -0.5,1.9 -0.9,2.6 -1.2,2.1 -2.7,1.9 -2.8,4.9 2.4,-3 4.4,-4.7 5.8,-5.7 1.7,-1.2 2.7,-1.4 3.7,-2 2,1.1 2.4,3.4 3.9,3.3 2.7,-0.2 1.9,2.6 1.6,6.2 2.5,-5.2 0.8,-9.4 -3.7,-11 z"
   inkscape:connector-curvature="0"
   style="clip-rule:evenodd;fill:#020908;fill-rule:evenodd;stroke:#000000" />
							<path
   id="path9342"
   sodipodi:nodetypes="cscc"
   class="st4"
   d="m 937.4,1231.5 c 3,0.9 2.4,3.2 5.7,-1.6 3.4,-5.1 2.1,-12.6 -1.6,-11.7 -9,-0.1 -6.6,9.8 -4.1,13.3 z"
   inkscape:connector-curvature="0"
   style="clip-rule:evenodd;fill:#e1f0a8;fill-rule:evenodd;stroke:#000000" />
							<path
   id="path9344"
   sodipodi:nodetypes="ccscc"
   class="st4"
   d="m 937.2,1207.3 c -2.3,4.2 -3.2,8 -0.5,12 2.5,-1.6 4.9,4 7.1,-1.4 1.6,-3.8 0.8,-5.5 -0.2,-9 -5.2,-0.3 -2.5,-2.4 -6.4,-1.6 z"
   inkscape:connector-curvature="0"
   style="clip-rule:evenodd;fill:#e1f0a8;fill-rule:evenodd;stroke:#000000" />
							<path
   id="path9346"
   sodipodi:nodetypes="ccsscc"
   class="st4"
   d="m 936.2,1191.1 c -1.3,4.6 -3,11.7 -1.1,18.2 4.1,-1.6 11.3,2.4 11.4,-3.4 0.1,-4.3 -1.6,-7.5 -4.7,-13.4 -1.4,-2.7 2.2,-1.5 1.9,-4.4 -7.8,-2.4 -8.6,0 -7.5,3 z"
   inkscape:connector-curvature="0"
   style="clip-rule:evenodd;fill:#e1f0a8;fill-rule:evenodd;stroke:#000000" />
						</g>
						<g
   id="g9348">
							<path
   id="path9350"
   sodipodi:nodetypes="ccccc"
   class="st4"
   d="m 735.4,364.7 c 3.6,-2.1 3.8,-6.3 8.1,-8.5 1.3,-7.6 -3.8,-12.9 -8.1,-13.6 -6.6,0.7 -14.2,6.6 -9.9,16 z"
   inkscape:connector-curvature="0"
   style="clip-rule:evenodd;fill:#e1f0a8;fill-rule:evenodd;stroke:#000000" />
							<path
   id="path9352"
   sodipodi:nodetypes="cccc"
   class="st4"
   d="m 727.1,366.1 c 7.6,5 13.9,-2.9 12.7,-6.7 1.5,-6.2 -9.7,-8 -14.6,-8.2 -3,3.5 -4.1,12.1 1.9,14.9 z"
   inkscape:connector-curvature="0"
   style="clip-rule:evenodd;fill:#e1f0a8;fill-rule:evenodd;stroke:#000000" />
							<path
   id="path9354"
   sodipodi:nodetypes="ccsssssssc"
   class="st6"
   d="m 843.9,317.7 c -0.5,5.9 2.6,7.1 4.8,10.9 12,-3.7 27.7,-22.3 30.6,-26.8 8.4,-12.8 38.1,-26.4 42.6,-31.5 1.4,-1.6 -6.7,-5.7 -6,-8.4 1,-3.9 0.8,-5.5 0.4,-7 -0.3,-1.1 -17.6,13.5 -26.4,22.3 -12.8,12.9 -21.3,22.5 -26.6,28 -5.4,5.5 -11.3,9.4 -15.1,11 -2.6,1.2 -4.2,0.7 -4.3,1.5 z"
   inkscape:connector-curvature="0"
   style="clip-rule:evenodd;fill:#e1f0a8;fill-rule:evenodd;stroke:#000000;stroke-width:1;stroke-miterlimit:4" />
							<path
   id="path9356"
   sodipodi:nodetypes="cssccsscc"
   class="st4"
   d="m 726.5,366.4 c 10.8,5.4 19.3,0.3 26.5,-2.3 21,-7.3 47.4,-15.3 69.8,-23.1 9.4,-3.3 21.6,-7.5 26.3,-12.6 -0.5,-6.3 -3,-7.3 -5.2,-12.1 -7.2,-1.1 -15.7,3.6 -42.8,13.2 -12,4.3 -21.9,9.5 -37.9,16.7 -11,5 -18.9,6.4 -23.9,12.1 -8,6.8 -13,5.1 -12.8,8.1 z"
   inkscape:connector-curvature="0"
   style="clip-rule:evenodd;fill:#e1f0a8;fill-rule:evenodd;stroke:#000000" />
						</g>
					</g>
				</g>
			</g>
			<g
   id="g8436">
				
					<linearGradient
   id="path8420_1_"
   gradientUnits="userSpaceOnUse"
   x1="-514.05603"
   y1="936.87762"
   x2="-514.05603"
   y2="709.0882"
   gradientTransform="matrix(1,0,0,-1,415.4059,1235.2999)">
					<stop
   offset="0"
   style="stop-color:#42B545"
   id="stop81" />
					<stop
   offset="1"
   style="stop-color:#804845"
   id="stop83" />
				</linearGradient>
				<path
   id="path8420"
   sodipodi:nodetypes="cccsssssc"
   class="st8"
   d="m -174.8,380.4 76.3,-84.3 77.3,82.8 c -0.3,47.8 -28.8,68.9 -47,80.2 -11.4,7.1 -1.2,16.9 -15.2,20.3 -7.9,1.9 -9.8,-16.3 -15,-16.4 -5.6,-0.1 -4,17.3 -12.1,15.4 -15.8,-3.7 -3.2,-10.9 -15.9,-19.5 -20.1,-13.6 -56.6,-41 -48.4,-78.5 z"
   inkscape:connector-curvature="0"
   style="clip-rule:evenodd;fill:url(#path8420_1_);fill-rule:evenodd" />
				<g
   id="g8403">
					<g
   id="g8374">
						
							<linearGradient
   id="path6376_1_"
   gradientUnits="userSpaceOnUse"
   x1="-586.16357"
   y1="789.75598"
   x2="-571.02148"
   y2="802.38281"
   gradientTransform="matrix(1,0,0,-1,415.4059,1235.2999)">
							<stop
   offset="0"
   style="stop-color:#42B545"
   id="stop87" />
							<stop
   offset="1"
   style="stop-color:#421F45"
   id="stop89" />
						</linearGradient>
						<path
   id="path6376"
   sodipodi:nodetypes="ccscc"
   class="st9"
   d="m -169.8,411.7 31.8,39.4 c 0,0 -16.5,14.4 -18.7,12.1 -10.6,-10.6 -24.7,-23.7 -29.8,-35.9 z"
   inkscape:connector-curvature="0"
   style="clip-rule:evenodd;fill:url(#path6376_1_);fill-rule:evenodd;stroke:#000000" />
						
							<linearGradient
   id="path8326_1_"
   gradientUnits="userSpaceOnUse"
   x1="-567.52771"
   y1="748.34821"
   x2="-550.3653"
   y2="759.4599"
   gradientTransform="matrix(1,0,0,-1,369.949,1155.2625)">
							<stop
   offset="0"
   style="stop-color:#42B545"
   id="stop93" />
							<stop
   offset="1"
   style="stop-color:#421F45"
   id="stop95" />
						</linearGradient>
						<path
   id="path8326"
   sodipodi:nodetypes="ccscc"
   class="st10"
   d="m -192.5,371.7 26.3,44.7 c 0,0 -18.2,17.8 -20.2,15.4 -9.6,-11.4 -22.7,-35.3 -27.8,-47.5 z"
   inkscape:connector-curvature="0"
   style="clip-rule:evenodd;fill:url(#path8326_1_);fill-rule:evenodd;stroke:#000000" />
						
							<linearGradient
   id="path8328_1_"
   gradientUnits="userSpaceOnUse"
   x1="-556.89563"
   y1="702.38538"
   x2="-533.92493"
   y2="711.47668"
   gradientTransform="matrix(1,0,0,-1,330.5531,1066.8854)">
							<stop
   offset="0"
   style="stop-color:#42B545"
   id="stop99" />
							<stop
   offset="1"
   style="stop-color:#421F45"
   id="stop101" />
						</linearGradient>
						<path
   id="path8328"
   sodipodi:nodetypes="ccscc"
   class="st11"
   d="m -210.9,330.1 20,45.5 c 0,0 -20.9,16.3 -23,13.9 -9.6,-11.4 -17.9,-43.9 -19.2,-52.8 z"
   inkscape:connector-curvature="0"
   style="clip-rule:evenodd;fill:url(#path8328_1_);fill-rule:evenodd;stroke:#000000" />
						
							<linearGradient
   id="path8330_1_"
   gradientUnits="userSpaceOnUse"
   x1="-567.87982"
   y1="616.97137"
   x2="-536.5752"
   y2="625.05261"
   gradientTransform="matrix(1,0,0,-1,321.7143,935.2941)">
							<stop
   offset="0"
   style="stop-color:#42B545"
   id="stop105" />
							<stop
   offset="1"
   style="stop-color:#421F45"
   id="stop107" />
						</linearGradient>
						<path
   id="path8330"
   sodipodi:nodetypes="ccscc"
   class="st12"
   d="m -222.2,285.2 13.4,49 c 0,0 -25.2,11.2 -26.5,8.3 -6.1,-13.1 -8.6,-42.9 -9.3,-52.8 z"
   inkscape:connector-curvature="0"
   style="clip-rule:evenodd;fill:url(#path8330_1_);fill-rule:evenodd;stroke:#000000" />
						
							<linearGradient
   id="path8332_1_"
   gradientUnits="userSpaceOnUse"
   x1="-563.53528"
   y1="614.70538"
   x2="-536.96033"
   y2="614.70538"
   gradientTransform="matrix(1,0,0,-1,314.8958,883.0459)">
							<stop
   offset="0"
   style="stop-color:#42B545"
   id="stop111" />
							<stop
   offset="1"
   style="stop-color:#421F45"
   id="stop113" />
						</linearGradient>
						<path
   id="path8332"
   sodipodi:nodetypes="ccscc"
   class="st13"
   d="m -215.5,243.7 -4.8,44.7 c 0,0 -26,6.8 -26.8,3.8 -4.1,-15.9 4.3,-44.1 8.6,-48.2 z"
   inkscape:connector-curvature="0"
   style="clip-rule:evenodd;fill:url(#path8332_1_);fill-rule:evenodd;stroke:#000000" />
					</g>
					<g
   id="g8381"
   transform="matrix(-0.99918,0.04048809,0.04048809,0.99918,415.73162,-4.7438355)">
						
							<linearGradient
   id="path8383_1_"
   gradientUnits="userSpaceOnUse"
   x1="-567.14532"
   y1="852.46558"
   x2="-552.00317"
   y2="865.09253"
   gradientTransform="matrix(-0.9992,-0.04048809,0.04048809,-0.9992,-143.4509,1259.7815)">
							<stop
   offset="0"
   style="stop-color:#42B545"
   id="stop118" />
							<stop
   offset="1"
   style="stop-color:#421F45"
   id="stop120" />
						</linearGradient>
						<path
   id="path8383"
   sodipodi:nodetypes="ccscc"
   class="st14"
   d="m 458.7,397.2 31.8,39.4 c 0,0 -16.5,14.4 -18.7,12.1 C 461.2,438.1 447.1,425 442,412.8 Z"
   inkscape:connector-curvature="0"
   style="clip-rule:evenodd;fill:url(#path8383_1_);fill-rule:evenodd;stroke:#000000" />
						
							<linearGradient
   id="path8385_1_"
   gradientUnits="userSpaceOnUse"
   x1="-587.4425"
   y1="811.84631"
   x2="-570.28009"
   y2="822.95801"
   gradientTransform="matrix(-0.9992,-0.04048809,0.04048809,-0.9992,-188.9077,1179.744)">
							<stop
   offset="0"
   style="stop-color:#42B545"
   id="stop124" />
							<stop
   offset="1"
   style="stop-color:#421F45"
   id="stop126" />
						</linearGradient>
						<path
   id="path8385"
   sodipodi:nodetypes="ccscc"
   class="st15"
   d="m 436,357.2 26.3,44.7 c 0,0 -18.2,17.8 -20.2,15.4 -9.6,-11.4 -22.7,-35.3 -27.8,-47.5 z"
   inkscape:connector-curvature="0"
   style="clip-rule:evenodd;fill:url(#path8385_1_);fill-rule:evenodd;stroke:#000000" />
						
							<linearGradient
   id="path8387_1_"
   gradientUnits="userSpaceOnUse"
   x1="-599.92682"
   y1="766.35162"
   x2="-576.95587"
   y2="775.44299"
   gradientTransform="matrix(-0.9992,-0.04048809,0.04048809,-0.9992,-228.3037,1091.3669)">
							<stop
   offset="0"
   style="stop-color:#42B545"
   id="stop130" />
							<stop
   offset="1"
   style="stop-color:#421F45"
   id="stop132" />
						</linearGradient>
						<path
   id="path8387"
   sodipodi:nodetypes="ccscc"
   class="st16"
   d="m 417.6,315.5 20,45.5 c 0,0 -20.9,16.3 -23,13.9 C 405,363.5 396.7,331 395.4,322.1 Z"
   inkscape:connector-curvature="0"
   style="clip-rule:evenodd;fill:url(#path8387_1_);fill-rule:evenodd;stroke:#000000" />
						
							<linearGradient
   id="path8389_1_"
   gradientUnits="userSpaceOnUse"
   x1="-592.40991"
   y1="680.56293"
   x2="-561.10529"
   y2="688.64423"
   gradientTransform="matrix(-0.9992,-0.04048809,0.04048809,-0.9992,-237.1425,959.7756)">
							<stop
   offset="0"
   style="stop-color:#42B545"
   id="stop136" />
							<stop
   offset="1"
   style="stop-color:#421F45"
   id="stop138" />
						</linearGradient>
						<path
   id="path8389"
   sodipodi:nodetypes="ccscc"
   class="st17"
   d="m 406.3,270.7 13.4,49 c 0,0 -25.2,11.2 -26.5,8.3 -6.1,-13.1 -8.6,-42.9 -9.3,-52.8 z"
   inkscape:connector-curvature="0"
   style="clip-rule:evenodd;fill:url(#path8389_1_);fill-rule:evenodd;stroke:#000000" />
						
							<linearGradient
   id="path8391_1_"
   gradientUnits="userSpaceOnUse"
   x1="-596.84259"
   y1="678.47479"
   x2="-570.26758"
   y2="678.47479"
   gradientTransform="matrix(-0.9992,-0.04048809,0.04048809,-0.9992,-243.961,907.5275)">
							<stop
   offset="0"
   style="stop-color:#42B545"
   id="stop142" />
							<stop
   offset="1"
   style="stop-color:#421F45"
   id="stop144" />
						</linearGradient>
						<path
   id="path8391"
   sodipodi:nodetypes="ccscc"
   class="st18"
   d="m 413,229.1 -4.8,44.7 c 0,0 -26,6.8 -26.8,3.8 -4.1,-15.9 4.3,-44.1 8.6,-48.2 z"
   inkscape:connector-curvature="0"
   style="clip-rule:evenodd;fill:url(#path8391_1_);fill-rule:evenodd;stroke:#000000" />
					</g>
				</g>
			</g>
		</g>
		<g
   id="g11265">
			<g
   id="g11228">
				<path
   id="path9744"
   sodipodi:nodetypes="cscsc"
   class="st19"
   d="m -109.2,42.3 c 0,0 -48.9,-21.8 -49,1.5 -0.1,24.3 48.5,8 48.5,8 0,0 55.4,13.4 54,-9.5 -1.5,-24.2 -53.5,0 -53.5,0 z"
   inkscape:connector-curvature="0"
   style="clip-rule:evenodd;fill:#424d45;fill-rule:evenodd;stroke:#000000" />
				<g
   id="g3295"
   transform="rotate(1.6173582,4886.5993,-6002.6133)">
					<g
   id="g3259">
						<path
   id="path2270"
   sodipodi:nodetypes="cscss"
   class="st20"
   d="m 276.3,23.8 c -1.9,-4.5 -17,2.7 -32,9.2 -15.1,6.5 -21.6,10.4 -27.9,17.8 10.2,-0.2 18.8,-4.9 31.5,-10.2 12.5,-5.3 30,-13.1 28.4,-16.8 z"
   inkscape:connector-curvature="0"
   style="clip-rule:evenodd;fill:#a86440;fill-rule:evenodd;stroke:#000000;stroke-width:1;stroke-miterlimit:4" />
						<path
   id="path3243"
   sodipodi:nodetypes="csscsss"
   class="st20"
   d="m 217,49.8 c -2.8,-4.4 -3.3,-1.5 -17.6,6.5 -11.1,6.2 -20.4,13.2 -27,20 -2,2 -4.2,4.5 -5.5,6.3 2.1,-0.2 4.6,-2.4 7,-3.3 9,-3.8 19.2,-10.7 28.7,-16 12.1,-6.5 17.7,-8.3 14.4,-13.5 z"
   inkscape:connector-curvature="0"
   style="clip-rule:evenodd;fill:#a86440;fill-rule:evenodd;stroke:#000000;stroke-width:1;stroke-miterlimit:4" />
						<path
   id="path3245"
   sodipodi:nodetypes="cscss"
   class="st4"
   d="m 168.4,81.7 c -2.8,-4.3 -5.8,-2.7 -18.1,8.1 -10.2,8.9 -14.4,9.3 -21.3,19.5 11.2,-1 14.1,-7.3 25.6,-15.3 11.2,-7.7 17.2,-7.1 13.8,-12.3 z"
   inkscape:connector-curvature="0"
   style="clip-rule:evenodd;fill:#e1f0a8;fill-rule:evenodd;stroke:#000000" />
						<path
   id="path3247"
   sodipodi:nodetypes="cscss"
   class="st4"
   d="m 131.2,108.6 c -3.3,-4 -6,-2.1 -17.1,10 -9.1,10 -8.4,7.7 -14.1,18.6 3.1,4.3 8.3,-5.6 18.9,-14.9 10.2,-8.9 16.2,-8.9 12.3,-13.7 z"
   inkscape:connector-curvature="0"
   style="clip-rule:evenodd;fill:#e1f0a8;fill-rule:evenodd;stroke:#000000" />
						<path
   id="path3257"
   sodipodi:nodetypes="csss"
   class="st4"
   d="m 90.6,174.3 c -10.2,-14.5 -2.6,-24.5 0.7,-24.2 4.6,0.4 5.9,15.5 8.3,19.7 2,3.6 0.5,7.5 -2.5,7.4"
   inkscape:connector-curvature="0"
   style="clip-rule:evenodd;fill:#e1f0a8;fill-rule:evenodd;stroke:#000000" />
						<path
   id="path3255"
   sodipodi:nodetypes="cssss"
   class="st4"
   d="m 100.7,137.2 c -3,-1.8 -8.6,2.4 -10.6,6.9 -1.9,4.3 -5,12.3 0.7,15.9 3.2,2.1 6.3,-1.5 9.6,-9.6 5.2,-12.6 2.8,-11.8 0.3,-13.2 z"
   inkscape:connector-curvature="0"
   style="clip-rule:evenodd;fill:#e1f0a8;fill-rule:evenodd;stroke:#000000" />
					</g>
					<g
   id="g3287">
						<path
   id="path3269"
   sodipodi:nodetypes="cscss"
   class="st20"
   d="m -154,45.9 c 1.9,-4.5 17,2.7 32,9.2 15.1,6.5 21.6,10.4 27.9,17.8 -10.2,-0.2 -18.8,-4.9 -31.5,-10.2 -12.5,-5.3 -30,-13 -28.4,-16.8 z"
   inkscape:connector-curvature="0"
   style="clip-rule:evenodd;fill:#a86440;fill-rule:evenodd;stroke:#000000;stroke-width:1;stroke-miterlimit:4" />
						<path
   id="path3271"
   sodipodi:nodetypes="csscsss"
   class="st20"
   d="m -95.4,71.5 c 2.2,-4.7 3.1,-1.9 18.3,4.3 11.7,4.8 21.9,10.7 29.2,16.6 2.2,1.8 4.7,3.9 6.2,5.6 -2.1,0 -4.9,-1.8 -7.3,-2.5 -9.4,-2.7 -20.3,-8.4 -30.5,-12.4 -12.7,-4.9 -18.6,-6 -15.9,-11.6 z"
   inkscape:connector-curvature="0"
   style="clip-rule:evenodd;fill:#a86440;fill-rule:evenodd;stroke:#000000;stroke-width:1;stroke-miterlimit:4" />
						<path
   id="path3273"
   sodipodi:nodetypes="cscss"
   class="st4"
   d="m -44.4,96.1 c 2.3,-4.6 5.4,-3.4 18.9,6.1 11.1,7.8 15.4,7.6 23.3,17.1 -11.3,0.3 -14.8,-5.7 -27.1,-12.4 -12,-6.6 -17.9,-5.3 -15.1,-10.8 z"
   inkscape:connector-curvature="0"
   style="clip-rule:evenodd;fill:#e1f0a8;fill-rule:evenodd;stroke:#000000" />
						<path
   id="path3275"
   sodipodi:nodetypes="cscss"
   class="st4"
   d="m -3.6,118.8 c 2.8,-4.4 5.7,-2.8 18.2,7.8 10.3,8.7 9.4,6.5 16.4,16.6 -2.5,4.7 -9,-4.5 -20.6,-12.3 -11.2,-7.6 -17.2,-6.9 -14,-12.1 z"
   inkscape:connector-curvature="0"
   style="clip-rule:evenodd;fill:#e1f0a8;fill-rule:evenodd;stroke:#000000" />
						<path
   id="path3277"
   sodipodi:nodetypes="csss"
   class="st4"
   d="m 48,175.1 c 6.6,-16.5 -3.1,-24.4 -6.2,-23.4 -4.4,1.4 -2.3,16.4 -3.6,21.1 -1.2,3.9 1.2,7.4 4.1,6.6"
   inkscape:connector-curvature="0"
   style="clip-rule:evenodd;fill:#e1f0a8;fill-rule:evenodd;stroke:#000000" />
						<path
   id="path3279"
   sodipodi:nodetypes="cssss"
   class="st4"
   d="m 28.3,143 c 2.3,-2.6 8.9,-0.4 12.2,3.3 3.2,3.5 8.5,10.2 4.2,15.4 -2.4,3 -6.5,0.5 -12.1,-6.2 -8.8,-10.4 -6.2,-10.4 -4.3,-12.5 z"
   inkscape:connector-curvature="0"
   style="clip-rule:evenodd;fill:#e1f0a8;fill-rule:evenodd;stroke:#000000" />
					</g>
				</g>
				<path
   id="path11226"
   sodipodi:nodetypes="cccccccc"
   class="st21"
   d="m -107.7,3.8 c -24.1,-9.6 -36.4,11.4 -39.5,29 8.6,7.2 8.9,12.8 5.7,19.6 0.8,8.8 -4.1,21.5 -7.2,28.9 h 75.5 c -0.4,-8.9 1.5,-19.1 3.5,-28.5 -6.5,-10.3 -1.5,-17 2,-20.5 -4.2,-18.4 -14.6,-37.6 -40,-28.5 z"
   inkscape:connector-curvature="0"
   style="clip-rule:evenodd;fill:#60a860;fill-rule:evenodd;stroke:#000000" />
			</g>
			<g
   id="g9706">
				<g
   id="g9633">
					<g
   id="g9564">
						<g
   id="g8518">
							<g
   id="g8481">
								<path
   id="path8418"
   sodipodi:nodetypes="cccc"
   class="st22"
   d="m -172.3,417.3 60.6,-122.2 c 90,60.8 93.8,122 66.2,162.6 -35.6,54 -93.8,48.5 -126.8,-40.4 z"
   inkscape:connector-curvature="0"
   style="clip-rule:evenodd;fill:#1b2427;fill-opacity:0.4589;fill-rule:evenodd;stroke:#000000" />
								<g
   id="g8470">
									<path
   id="path8452"
   sodipodi:nodetypes="cc"
   class="st23"
   d="m -171.3,407.7 c 27.8,-8.7 81.6,-79.9 59.6,-110.6"
   inkscape:connector-curvature="0"
   style="fill:none;stroke:#000000;stroke-width:0.5" />
									<path
   id="path8454"
   sodipodi:nodetypes="cc"
   class="st23"
   d="M -36.9,411.5 C -48.2,378 -71.7,334.9 -106.6,318.6"
   inkscape:connector-curvature="0"
   style="fill:none;stroke:#000000;stroke-width:0.5" />
									<path
   id="path8456"
   sodipodi:nodetypes="cc"
   class="st23"
   d="m -44.3,439.3 c -9.6,-39 -34.8,-86.9 -64.9,-108.6"
   inkscape:connector-curvature="0"
   style="fill:none;stroke:#000000;stroke-width:0.5" />
									<path
   id="path8458"
   sodipodi:nodetypes="cc"
   class="st23"
   d="m -51.8,456.4 c -9.6,-39 -31.1,-94 -61.1,-115.7"
   inkscape:connector-curvature="0"
   style="fill:none;stroke:#000000;stroke-width:0.5" />
									<path
   id="path8460"
   sodipodi:nodetypes="cc"
   class="st23"
   d="m -65.5,469.1 c -9.6,-39 -21.7,-95.5 -50.8,-119.7"
   inkscape:connector-curvature="0"
   style="fill:none;stroke:#000000;stroke-width:0.5" />
									<path
   id="path8462"
   sodipodi:nodetypes="cc"
   class="st23"
   d="m -80.1,479.9 c -9.6,-39 -13.6,-95.5 -42.4,-119.7"
   inkscape:connector-curvature="0"
   style="fill:none;stroke:#000000;stroke-width:0.5" />
									<path
   id="path8464"
   sodipodi:nodetypes="cc"
   class="st23"
   d="m -98.3,484.2 c -6,-39.5 -6.8,-82.7 -30.1,-115.4"
   inkscape:connector-curvature="0"
   style="fill:none;stroke:#000000;stroke-width:0.5" />
									<path
   id="path8466"
   sodipodi:nodetypes="cc"
   class="st23"
   d="m -116.5,477.7 c -5.3,-38.5 1,-62.5 -22,-95"
   inkscape:connector-curvature="0"
   style="fill:none;stroke:#000000;stroke-width:0.5" />
									<path
   id="path8468"
   sodipodi:nodetypes="cc"
   class="st23"
   d="m -137.2,462.3 c -1.7,-32.2 2.5,-56.9 -11.4,-69.7"
   inkscape:connector-curvature="0"
   style="fill:none;stroke:#000000;stroke-width:0.5" />
								</g>
							</g>
							<g
   id="g8494"
   transform="matrix(-1,0,0,1,458.08169,2.9626038)">
								<path
   id="path8496"
   sodipodi:nodetypes="cccc"
   class="st22"
   d="m 479.1,406.2 61.6,-112.6 c 90,60.8 93.8,122 66.2,162.6 -35.5,54 -98.3,39 -127.8,-50 z"
   inkscape:connector-curvature="0"
   style="clip-rule:evenodd;fill:#1b2427;fill-opacity:0.4589;fill-rule:evenodd;stroke:#000000" />
								<g
   id="g8498">
									<path
   id="path8500"
   sodipodi:nodetypes="cc"
   class="st23"
   d="m 481.2,406.2 c 27.8,-8.7 81.6,-79.9 59.6,-110.6"
   inkscape:connector-curvature="0"
   style="fill:none;stroke:#000000;stroke-width:0.5" />
									<path
   id="path8502"
   sodipodi:nodetypes="cc"
   class="st23"
   d="M 615.5,410 C 604.2,376.5 580.7,333.4 545.8,317.1"
   inkscape:connector-curvature="0"
   style="fill:none;stroke:#000000;stroke-width:0.5" />
									<path
   id="path8504"
   sodipodi:nodetypes="cc"
   class="st23"
   d="m 608.2,437.8 c -9.6,-39 -34.8,-86.9 -64.9,-108.6"
   inkscape:connector-curvature="0"
   style="fill:none;stroke:#000000;stroke-width:0.5" />
									<path
   id="path8506"
   sodipodi:nodetypes="cc"
   class="st23"
   d="M 600.6,455 C 591,416 569.5,361 539.5,339.3"
   inkscape:connector-curvature="0"
   style="fill:none;stroke:#000000;stroke-width:0.5" />
									<path
   id="path8508"
   sodipodi:nodetypes="cc"
   class="st23"
   d="m 587,467.6 c -9.6,-39 -21.7,-95.5 -50.8,-119.7"
   inkscape:connector-curvature="0"
   style="fill:none;stroke:#000000;stroke-width:0.5" />
									<path
   id="path8510"
   sodipodi:nodetypes="cc"
   class="st23"
   d="M 572.3,478.5 C 562.7,439.5 558.7,383 529.9,358.8"
   inkscape:connector-curvature="0"
   style="fill:none;stroke:#000000;stroke-width:0.5" />
									<path
   id="path8512"
   sodipodi:nodetypes="cc"
   class="st23"
   d="M 554.1,482.7 C 548.1,443.2 547.3,400 524,367.3"
   inkscape:connector-curvature="0"
   style="fill:none;stroke:#000000;stroke-width:0.5" />
									<path
   id="path8514"
   sodipodi:nodetypes="cc"
   class="st23"
   d="m 536,476.2 c -5.3,-38.5 1,-62.5 -22,-95"
   inkscape:connector-curvature="0"
   style="fill:none;stroke:#000000;stroke-width:0.5" />
									<path
   id="path8516"
   sodipodi:nodetypes="cc"
   class="st23"
   d="m 515.2,460.8 c -1.7,-32.2 2.5,-56.9 -11.4,-69.7"
   inkscape:connector-curvature="0"
   style="fill:none;stroke:#000000;stroke-width:0.5" />
								</g>
							</g>
						</g>
						<g
   id="g9531">
							<g
   id="g9521">
								<path
   id="path8545"
   sodipodi:nodetypes="ccccsc"
   class="st21"
   d="m -172.3,419.3 c 25.8,-28.9 47.3,-69.2 59.6,-134.4 L -200,139.3 -239.5,125.9 c -3.8,16.7 -1,34.8 -2.9,51 -9.7,82.8 23.4,163.7 70.1,242.4 z"
   inkscape:connector-curvature="0"
   style="clip-rule:evenodd;fill:#60a860;fill-rule:evenodd;stroke:#000000" />
								<path
   id="path9519"
   sodipodi:nodetypes="cccccccccccc"
   class="st24"
   d="m -228.6,136.2 -1.7,10.3 c 25,48.5 55.6,93.2 97.8,136.4 -39.2,-38.4 -66.8,-75.8 -98.7,-134.8 l -1.8,5 c 23.6,53.6 57,90.8 88.2,132.4 -30.9,-41.5 -65.1,-77.2 -88.5,-131.8 l -1.6,3.5 c 8.1,64.1 23.3,126.7 44.1,188.4 -21.4,-58.7 -36.1,-121 -45.4,-186.5 l -2.9,3.9 c 4.7,-7.5 7.7,-16.9 10.4,-26.7"
   inkscape:connector-curvature="0"
   style="clip-rule:evenodd;fill:#325638;fill-rule:evenodd;stroke:#000000;stroke-width:0.5" />
							</g>
							<g
   id="g9525"
   transform="matrix(-0.9996994,0.02451875,0.02451875,0.9996994,422.12101,-3.0323017)">
								<path
   id="path9527"
   sodipodi:nodetypes="ccccsc"
   class="st21"
   d="m 455.5,407.6 c 25.8,-28.9 52.3,-66.4 64.7,-131.5 L 433,130.4 393.4,117 c -3.8,16.7 -1,34.8 -2.9,51 -9.7,82.8 18.3,160.9 65,239.6 z"
   inkscape:connector-curvature="0"
   style="clip-rule:evenodd;fill:#60a860;fill-rule:evenodd;stroke:#000000" />
								<path
   id="path9529"
   sodipodi:nodetypes="cccccccccccc"
   class="st24"
   d="m 404.2,127.4 -1.7,10.3 c 25,48.5 55.6,93.2 97.8,136.4 -39.2,-38.4 -66.8,-75.8 -98.7,-134.8 l -1.8,5 c 23.6,53.6 57,90.8 88.2,132.4 -30.9,-41.5 -65.1,-77.2 -88.5,-131.8 l -1.6,3.5 C 406,212.4 421.2,275 442,336.7 420.6,278 405.9,215.7 396.6,150.2 l -2.9,3.9 c 4.7,-7.5 7.7,-16.9 10.4,-26.7"
   inkscape:connector-curvature="0"
   style="clip-rule:evenodd;fill:#325638;fill-rule:evenodd;stroke:#000000;stroke-width:0.5" />
							</g>
						</g>
					</g>
					<path
   id="path9598"
   sodipodi:nodetypes="ccsssc"
   class="st25"
   d="m -194.7,151.8 176.5,-3.5 c 1.1,67.7 -26,73.1 -39.5,114 -15.5,47.2 -14.3,87.3 -41,87.5 -20.7,0.1 -29.6,-43.1 -47.1,-89.5 -9,-24 -40.5,-42.1 -48.9,-108.5 z"
   inkscape:connector-curvature="0"
   style="clip-rule:evenodd;fill:#5aa85a;fill-rule:evenodd;stroke:#000000" />
				</g>
				<path
   id="path9669"
   sodipodi:nodetypes="cssscccccc"
   class="st25"
   d="m -166.2,47.3 c 6.7,3.5 15.3,-2.7 20.7,1.8 13.6,11.3 26.1,12.2 38.8,11.7 13.3,-0.5 26.8,-3 40.1,-14.3 5.8,-5 14.9,1.3 22.4,-2.2 31.5,16.8 80.9,24.2 87.5,54 1.4,45.8 -35.2,46.9 -61,60.5 -59,-4.3 -118,-2.4 -177,4 -23.7,-14.6 -57.1,-21.7 -60,-51 7.2,-42.2 56.5,-46.7 88.5,-64.5 z"
   inkscape:connector-curvature="0"
   style="clip-rule:evenodd;fill:#5aa85a;fill-rule:evenodd;stroke:#000000" />
			</g>
		</g>
	</g>
</g>
<g
   id="layer14"
   inkscape:groupmode="layer"
   inkscape:label="legenda">
	<path
   id="path3369"
   sodipodi:nodetypes="cc"
   class="st26"
   d="M 211.2,121.8 195.1,53.9"
   inkscape:connector-curvature="0"
   style="fill:none;stroke:#a80000;stroke-width:2" />
	<path
   id="path3373"
   sodipodi:nodetypes="cc"
   class="st26"
   d="M 298.9,164.7 307.6,54"
   inkscape:connector-curvature="0"
   style="fill:none;stroke:#a80000;stroke-width:2" />
	<path
   id="path3377"
   sodipodi:nodetypes="cc"
   class="st26"
   d="M 264.9,206.7 71,213.1"
   inkscape:connector-curvature="0"
   style="fill:none;stroke:#a80000;stroke-width:2" />
	<path
   id="path3385"
   sodipodi:nodetypes="cc"
   class="st26"
   d="M 362.4,256.7 567.2,116.8"
   inkscape:connector-curvature="0"
   style="fill:none;stroke:#a80000;stroke-width:2" />
	<path
   id="path3395"
   sodipodi:nodetypes="cc"
   class="st26"
   d="M 567.2,211.7 306,361.7"
   inkscape:connector-curvature="0"
   style="fill:none;stroke:#a80000;stroke-width:2" />
	<path
   id="path3397"
   sodipodi:nodetypes="cc"
   class="st26"
   d="m 567.2,341.2 -162.1,5.1"
   inkscape:connector-curvature="0"
   style="fill:none;stroke:#a80000;stroke-width:2" />
	<path
   id="path3399"
   sodipodi:nodetypes="cc"
   class="st26"
   d="M 160.4,425.2 71,458.2"
   inkscape:connector-curvature="0"
   style="fill:none;stroke:#a80000;stroke-width:2" />
	<path
   id="path3403"
   sodipodi:nodetypes="ccc"
   class="st26"
   d="m 448.4,488.7 118.8,37.7 -136.4,11.3"
   inkscape:connector-curvature="0"
   style="fill:none;stroke:#a80000;stroke-width:2" />
	<path
   id="path3405"
   sodipodi:nodetypes="cc"
   class="st26"
   d="M 145.4,521.7 71,520.8"
   inkscape:connector-curvature="0"
   style="fill:none;stroke:#a80000;stroke-width:2" />
	<path
   id="path3407"
   sodipodi:nodetypes="ccc"
   class="st26"
   d="M 166.9,606.7 71,585.9 l 67.3,50.7"
   inkscape:connector-curvature="0"
   style="fill:none;stroke:#a80000;stroke-width:2" />
	<path
   id="path3409"
   sodipodi:nodetypes="cc"
   class="st26"
   d="M 128.9,651.7 71,663.2"
   inkscape:connector-curvature="0"
   style="fill:none;stroke:#a80000;stroke-width:2" />
	<text
   transform="translate(37.3212,675.6544)"
   class="st27 st28"
   id="text221"
   style="font-size:36px;font-family:'Liberation Sans', Arial, Sans-serif">1</text>

	<text
   transform="translate(37.3212,592.6105)"
   class="st27 st28"
   id="text223"
   style="font-size:36px;font-family:'Liberation Sans', Arial, Sans-serif">2</text>

	<text
   transform="translate(37.3217,536.0411)"
   class="st27 st28"
   id="text225"
   style="font-size:36px;font-family:'Liberation Sans', Arial, Sans-serif">3</text>

	<text
   transform="translate(37.3212,472.1446)"
   class="st27 st28"
   id="text227"
   style="font-size:36px;font-family:'Liberation Sans', Arial, Sans-serif">4</text>

	<text
   transform="translate(37.3217,227.7428)"
   class="st27 st28"
   id="text229"
   style="font-size:36px;font-family:'Liberation Sans', Arial, Sans-serif">8</text>

	<text
   transform="translate(185.0741,41.8507)"
   class="st27 st28"
   id="text231"
   style="font-size:36px;font-family:'Liberation Sans', Arial, Sans-serif">9</text>

	<text
   transform="translate(281.8705,41.8507)"
   class="st27 st28"
   id="text233"
   style="font-size:36px;font-family:'Liberation Sans', Arial, Sans-serif">10</text>

	<text
   transform="translate(576.1073,219.358)"
   class="st27 st28"
   id="text235"
   style="font-size:36px;font-family:'Liberation Sans', Arial, Sans-serif">26</text>

	<text
   transform="translate(576.1073,355.2696)"
   class="st27 st28"
   id="text237"
   style="font-size:36px;font-family:'Liberation Sans', Arial, Sans-serif">27</text>

	<text
   transform="translate(576.1073,410.838)"
   class="st27 st28"
   id="text239"
   style="font-size:36px;font-family:'Liberation Sans', Arial, Sans-serif">28</text>

	<text
   transform="translate(576.1073,473.5489)"
   class="st27 st28"
   id="text241"
   style="font-size:36px;font-family:'Liberation Sans', Arial, Sans-serif">29</text>

	<text
   transform="translate(576.1073,543.1368)"
   class="st27 st28"
   id="text243"
   style="font-size:36px;font-family:'Liberation Sans', Arial, Sans-serif">23</text>

	<text
   transform="translate(576.1073,116.0191)"
   class="st27 st28"
   id="text245"
   style="font-size:36px;font-family:'Liberation Sans', Arial, Sans-serif">25</text>

	<text
   transform="translate(129.4218,152.127)"
   class="st27 st28"
   id="text247"
   style="font-size:36px;font-family:'Liberation Sans', Arial, Sans-serif">A</text>

	<text
   transform="translate(103.6938,277.2472)"
   class="st27 st28"
   id="text249"
   style="font-size:36px;font-family:'Liberation Sans', Arial, Sans-serif">B</text>

	<text
   transform="translate(192.1913,650.7472)"
   class="st27 st28"
   id="text251"
   style="font-size:36px;font-family:'Liberation Sans', Arial, Sans-serif">C</text>

	<path
   id="path11822"
   sodipodi:nodetypes="cc"
   class="st26"
   d="M 405.9,420.4 567.2,399.1"
   inkscape:connector-curvature="0"
   style="fill:none;stroke:#a80000;stroke-width:2" />
	<path
   id="path11824"
   sodipodi:nodetypes="cc"
   class="st26"
   d="M 412.5,658.4 320.4,570.6"
   inkscape:connector-curvature="0"
   style="fill:none;stroke:#a80000;stroke-width:2" />
	<path
   id="path11826"
   sodipodi:nodetypes="cc"
   class="st26"
   d="m 435.1,442.6 132.1,12.7"
   inkscape:connector-curvature="0"
   style="fill:none;stroke:#a80000;stroke-width:2" />
	<text
   transform="translate(401.5312,693.046)"
   class="st27 st28"
   id="text256"
   style="font-size:36px;font-family:'Liberation Sans', Arial, Sans-serif">30</text>

</g>
</svg>