<?xml version="1.0" encoding="UTF-8" standalone="no"?>
<!-- Generator: Adobe Illustrator 24.0.3, SVG Export Plug-In . SVG Version: 6.00 Build 0)  -->

<svg
   xmlns:dc="http://purl.org/dc/elements/1.1/"
   xmlns:cc="http://creativecommons.org/ns#"
   xmlns:rdf="http://www.w3.org/1999/02/22-rdf-syntax-ns#"
   xmlns:svg="http://www.w3.org/2000/svg"
   xmlns="http://www.w3.org/2000/svg"
   xmlns:sodipodi="http://sodipodi.sourceforge.net/DTD/sodipodi-0.dtd"
   xmlns:inkscape="http://www.inkscape.org/namespaces/inkscape"
   version="1.1"
   id="svg2"
   x="0px"
   y="0px"
   width="100%"
   height="100%"
   viewBox="0 0 708.7 680.315"
   xml:space="preserve"
   sodipodi:docname="true bug side.svg"
   inkscape:version="0.92.3 (2405546, 2018-03-11)"><metadata
   id="metadata253"><rdf:RDF><cc:Work
       rdf:about=""><dc:format>image/svg+xml</dc:format><dc:type
         rdf:resource="http://purl.org/dc/dcmitype/StillImage" /><dc:title></dc:title></cc:Work></rdf:RDF></metadata><defs
   id="defs251" />
<style
   type="text/css"
   id="style2">
	.st0{fill:#EFE0DE;}
	.st1{fill:#FFFFC3;}
	.st2{fill-rule:evenodd;clip-rule:evenodd;fill:#D3FFFF;}
	.st3{fill-rule:evenodd;clip-rule:evenodd;fill:url(#path4862_1_);stroke:#000000;}
	.st4{fill-rule:evenodd;clip-rule:evenodd;fill:#E1FAA8;stroke:#000000;}
	.st5{fill-rule:evenodd;clip-rule:evenodd;fill:#A8C080;stroke:#000000;}
	.st6{fill-rule:evenodd;clip-rule:evenodd;fill:#111718;stroke:#000000;}
	.st7{fill-rule:evenodd;clip-rule:evenodd;fill:#F5D380;stroke:#000000;}
	.st8{fill-rule:evenodd;clip-rule:evenodd;fill:#E1FFA8;stroke:#000000;}
	.st9{fill-rule:evenodd;clip-rule:evenodd;fill:#5AA85A;stroke:#000000;}
	.st10{fill-rule:evenodd;clip-rule:evenodd;fill:#59554B;stroke:#000000;}
	.st11{fill-rule:evenodd;clip-rule:evenodd;fill:#C0A860;stroke:#000000;}
	.st12{fill-rule:evenodd;clip-rule:evenodd;fill:#A65946;stroke:#000000;}
	.st13{fill:none;stroke:#000000;}
	.st14{fill-rule:evenodd;clip-rule:evenodd;fill:#60A860;stroke:#000000;stroke-width:0.5;}
	.st15{fill-rule:evenodd;clip-rule:evenodd;fill:url(#path4511_1_);}
	.st16{fill-rule:evenodd;clip-rule:evenodd;fill:url(#path4521_1_);}
	.st17{fill-rule:evenodd;clip-rule:evenodd;fill:url(#path4525_1_);}
	.st18{fill-rule:evenodd;clip-rule:evenodd;fill:url(#path4529_1_);}
	.st19{fill-rule:evenodd;clip-rule:evenodd;fill:url(#path4533_1_);}
	.st20{fill-rule:evenodd;clip-rule:evenodd;fill:url(#path4537_1_);}
	.st21{fill-rule:evenodd;clip-rule:evenodd;fill:url(#path4541_1_);}
	.st22{fill-rule:evenodd;clip-rule:evenodd;fill:#E1FF9D;stroke:#000000;}
	.st23{fill:none;stroke:#000000;stroke-width:0.5;}
	.st24{fill-rule:evenodd;clip-rule:evenodd;fill:#F0FFC0;stroke:#000000;}
	.st25{fill-rule:evenodd;clip-rule:evenodd;stroke:#000000;stroke-width:0.5;}
	.st26{fill-rule:evenodd;clip-rule:evenodd;fill:#2D1300;stroke:#000000;}
	.st27{fill-rule:evenodd;clip-rule:evenodd;fill:#60A860;stroke:#000000;}
	.st28{fill:none;stroke:#A80000;stroke-width:2;}
	.st29{font-family:Liberation Sans, Arial, Sans-serif;}
	.st30{font-size:36.0014px;}
</style>
<sodipodi:namedview
   bordercolor="#666666"
   borderopacity="1.0"
   id="base"
   inkscape:current-layer="layer10"
   inkscape:cx="263.20659"
   inkscape:cy="748.48083"
   inkscape:document-units="px"
   inkscape:pageopacity="0.0"
   inkscape:pageshadow="2"
   inkscape:window-height="971"
   inkscape:window-width="1706"
   inkscape:window-x="0"
   inkscape:window-y="0"
   inkscape:zoom="0.5"
   pagecolor="#ffffff"
   showgrid="false"
   inkscape:window-maximized="0">
	</sodipodi:namedview>
<g
   id="layer8"
   inkscape:groupmode="layer"
   inkscape:label="sfondo">
	<rect
   id="rect5293"
   x="86"
   y="143.3"
   class="st0"
   width="127"
   height="311.60001"
   style="fill:#efe0de" />
	<rect
   id="rect6274"
   x="223.89999"
   y="143.3"
   class="st1"
   width="152.7"
   height="311.60001"
   style="fill:#ffffc3" />
	<path
   id="path6833"
   class="st2"
   d="M 381.8,143.3 H 653.6 V 454.9 H 381.8 Z"
   inkscape:connector-curvature="0"
   style="clip-rule:evenodd;fill:#d3ffff;fill-rule:evenodd" />
</g>
<g
   id="layer7"
   inkscape:groupmode="layer"
   inkscape:label="corpo">
	<g
   id="g5270">
		<g
   id="g5169">
			<g
   id="g5088">
				<g
   id="g5015">
					<g
   id="g4888">
						<g
   id="g4870">
							
								<linearGradient
   id="path4862_1_"
   gradientUnits="userSpaceOnUse"
   x1="188.00439"
   y1="143.2093"
   x2="219.00439"
   y2="147.4593"
   gradientTransform="matrix(0.6157,0.788,-0.788,0.6157,244.746,152.8709)">
								<stop
   offset="0"
   style="stop-color:#E1FAA8"
   id="stop9" />
								<stop
   offset="1"
   style="stop-color:#030806"
   id="stop11" />
							</linearGradient>
							<path
   id="path4862"
   sodipodi:nodetypes="cccc"
   class="st3"
   d="m 245.8,383.1 -4.6,3.9 c 7.1,10.1 13,23.2 21.9,28.9 1.5,-11.3 -7.5,-22.1 -17.3,-32.8 z"
   inkscape:connector-curvature="0"
   style="clip-rule:evenodd;fill:url(#path4862_1_);fill-rule:evenodd;stroke:#000000" />
							<path
   id="path4864"
   sodipodi:nodetypes="ccccc"
   class="st4"
   d="m 242.2,392.2 c 4.2,-0.3 7.5,-2.4 6.8,-9.1 -11.2,-12.2 -24.8,-20.1 -36.4,-31.5 l -4.6,3.9 c 9.5,13.3 21.2,25.3 34.2,36.7 z"
   inkscape:connector-curvature="0"
   style="clip-rule:evenodd;fill:#e1faa8;fill-rule:evenodd;stroke:#000000" />
							<path
   id="path4868"
   sodipodi:nodetypes="ccsccc"
   class="st4"
   d="m 204.4,355.5 c 3.5,2.4 7.4,2.7 11,-2.9 -0.6,-8.4 -5.3,-19.4 -8.6,-31.3 -3.2,-11.5 -4.9,-24.1 -7.8,-31.8 l -5.4,3 c -2.8,17.4 4.2,48.3 10.8,63 z"
   inkscape:connector-curvature="0"
   style="clip-rule:evenodd;fill:#e1faa8;fill-rule:evenodd;stroke:#000000" />
							<path
   id="path4860"
   sodipodi:nodetypes="ccsc"
   class="st4"
   d="m 155.8,276 c -7.9,11.8 25.7,11.6 38.1,19.1 2.5,-0.6 7.2,-1.9 7.1,-5.5 -0.4,-9.3 -32,-8.8 -45.2,-13.6 z"
   inkscape:connector-curvature="0"
   style="clip-rule:evenodd;fill:#e1faa8;fill-rule:evenodd;stroke:#000000" />
						</g>
						<path
   id="path4886"
   sodipodi:nodetypes="csscsscc"
   class="st5"
   d="m 139.1,277.7 c 2.3,9 16.5,12.1 25.4,18.7 6.9,5.1 15.2,11.7 18.2,17.6 4.4,8.7 3.2,12.3 10.2,18.7 0,-5.3 -1.9,-10.1 -3.7,-14.8 -4.2,-10.8 -12,-20.1 -22.8,-28.1 -6.3,-4.6 -14.7,-9.8 -22,-14 z"
   inkscape:connector-curvature="0"
   style="clip-rule:evenodd;fill:#a8c080;fill-rule:evenodd;stroke:#000000" />
					</g>
					<g
   id="g4979">
						<g
   id="g4915">
							<path
   id="path4913"
   sodipodi:nodetypes="cscccc"
   class="st6"
   d="m 174.4,552.7 c -8.3,4.1 -9.8,-0.6 -14.8,-1.5 -2.9,-0.5 -0.6,4.2 -2.4,3.8 3.4,6.5 8.2,9.9 13.4,12.3 -2.7,-3.8 -10.1,-5.9 -7.5,-11.6 3.4,2.4 9.4,1.1 11.3,-3 z"
   inkscape:connector-curvature="0"
   style="clip-rule:evenodd;fill:#111718;fill-rule:evenodd;stroke:#000000" />
							<path
   id="path4911"
   sodipodi:nodetypes="ccccc"
   class="st7"
   d="m 151.1,537.7 c -2.1,3.5 -2.9,1.4 -2.8,6.1 0.7,5 3.6,7 8,12.9 9.2,3.1 8.5,-3.4 6.9,-7.5 -5.6,-6.7 -7.4,-5.2 -12.1,-11.5 z"
   inkscape:connector-curvature="0"
   style="clip-rule:evenodd;fill:#f5d380;fill-rule:evenodd;stroke:#000000" />
							<path
   id="path4909"
   sodipodi:nodetypes="ccccc"
   class="st7"
   d="m 144.2,525.4 c 4,0.4 2.9,-1.5 6.6,1.5 3.5,3.7 3.4,7.1 5.4,14.2 -2.9,0.4 -7.7,-0.9 -10.1,0.9 -2.1,-8.4 0.2,-8.9 -1.9,-16.6 z"
   inkscape:connector-curvature="0"
   style="clip-rule:evenodd;fill:#f5d380;fill-rule:evenodd;stroke:#000000" />
							<path
   id="path4907"
   sodipodi:nodetypes="ccccc"
   class="st7"
   d="m 144.9,502.2 c 4,0.4 7.1,-2.6 10.8,0.4 3.5,3.7 4.1,23 1.1,30.6 -5,3 -6.6,-5.6 -15.1,-6.3 1.5,-9.6 5.4,-17 3.2,-24.7 z"
   inkscape:connector-curvature="0"
   style="clip-rule:evenodd;fill:#f5d380;fill-rule:evenodd;stroke:#000000" />
							<path
   id="path4897"
   sodipodi:nodetypes="ccccc"
   class="st7"
   d="m 234.3,308.3 c 5.6,-3.9 12.5,-4.2 20.2,-2.1 4.3,4.5 7.4,9.2 3.5,15 l -12.4,-2.1 c -4.6,-3.3 -8.6,-6.8 -11.3,-10.8 z"
   inkscape:connector-curvature="0"
   style="clip-rule:evenodd;fill:#f5d380;fill-rule:evenodd;stroke:#000000" />
							<path
   id="path4899"
   sodipodi:nodetypes="ccsccc"
   class="st7"
   d="m 246,319.3 c 3.8,-0.6 10.1,-1.6 11.5,1.8 1.3,2.3 -0.6,5.6 -1.9,9 -1.7,4.5 -3.5,8.9 -7.7,9.6 -3.8,0.3 -7.5,0.5 -7.3,-8.9 0.9,-5.7 4.9,-6.3 5.4,-11.5 z"
   inkscape:connector-curvature="0"
   style="clip-rule:evenodd;fill:#f5d380;fill-rule:evenodd;stroke:#000000" />
							<path
   id="path4901"
   sodipodi:nodetypes="ccscssscsc"
   class="st7"
   d="m 240.1,329.9 c 3.8,-0.6 6.5,6 7.9,9.3 3.3,9.9 -23.5,29.1 -42.6,51.1 -14.4,16.5 -23.1,30.7 -26.3,31.3 -1,0.1 -7.6,5.8 -9.9,4.8 -2.3,-1 -11.3,-0.7 -12.2,-3.3 -0.8,-2.3 2.7,-5.9 3.5,-8.1 1.1,-2.9 1.3,-4.1 1.3,-5.3 0.5,-3.3 21.6,-32.4 44.8,-51.9 16.3,-13.6 29.7,-21.8 33.5,-27.9 z"
   inkscape:connector-curvature="0"
   style="clip-rule:evenodd;fill:#f5d380;fill-rule:evenodd;stroke:#000000" />
							<path
   id="path4903"
   sodipodi:nodetypes="ccccc"
   class="st7"
   d="m 157.3,423.7 c 4,0.4 8.2,-0.3 12,2.7 -8.1,29 -8.4,53.7 -10.3,79.4 -5,3 -9.7,7.6 -18.2,-5.4 5.2,-25.7 10.4,-51.3 16.5,-76.7 z"
   inkscape:connector-curvature="0"
   style="clip-rule:evenodd;fill:#f5d380;fill-rule:evenodd;stroke:#000000" />
						</g>
						<g
   id="g4925"
   transform="translate(96,-85.6619)">
							<path
   id="path4927"
   sodipodi:nodetypes="cscccc"
   class="st6"
   d="m 227.8,632.1 c -8.3,4.1 -9.8,-0.6 -14.8,-1.5 -2.9,-0.5 -0.6,4.2 -2.4,3.8 3.4,6.5 8.2,9.9 13.4,12.3 -2.7,-3.8 -10.1,-5.9 -7.5,-11.6 3.4,2.4 9.4,1.1 11.3,-3 z"
   inkscape:connector-curvature="0"
   style="clip-rule:evenodd;fill:#111718;fill-rule:evenodd;stroke:#000000" />
							<path
   id="path4929"
   sodipodi:nodetypes="ccccc"
   class="st7"
   d="m 203.8,623.2 c -2.1,3.5 -6.4,-1.9 -6.3,2.9 0.7,5 4,5.1 7.7,7.7 6.7,2.3 12,1.5 10.4,-2.6 -5.5,-6.8 -6.6,-3.2 -11.8,-8 z"
   inkscape:connector-curvature="0"
   style="clip-rule:evenodd;fill:#f5d380;fill-rule:evenodd;stroke:#000000" />
							<path
   id="path4931"
   sodipodi:nodetypes="ccccc"
   class="st7"
   d="m 192.3,616.8 c 4,0.4 3.2,-3 7,0 1.4,0.9 3.4,1.4 7,6.9 -1.8,1.8 -6.7,2.1 -9,3.9 -4,-0.7 -2.8,-3.2 -5,-10.8 z"
   inkscape:connector-curvature="0"
   style="clip-rule:evenodd;fill:#f5d380;fill-rule:evenodd;stroke:#000000" />
							<path
   id="path4933"
   sodipodi:nodetypes="ccccc"
   class="st7"
   d="m 184.3,601.1 c 4,0.4 5.4,-2.2 9.2,0.8 3.5,3.7 3.8,8 8.8,15.7 -2.7,0.6 -6.1,1.6 -10.3,1.1 -6.4,-3.6 -5.5,-10 -7.7,-17.6 z"
   inkscape:connector-curvature="0"
   style="clip-rule:evenodd;fill:#f5d380;fill-rule:evenodd;stroke:#000000" />
							<path
   id="path4935"
   sodipodi:nodetypes="cccc"
   class="st7"
   d="m 201.6,405.4 c 5.6,-3.9 17,-1.3 24.7,0.7 0.8,5 -4.6,9.6 -10.8,12.2 -11.4,-3.2 -18.9,-11 -13.9,-12.9 z"
   inkscape:connector-curvature="0"
   style="clip-rule:evenodd;fill:#f5d380;fill-rule:evenodd;stroke:#000000" />
							<path
   id="path4937"
   sodipodi:nodetypes="ccsccc"
   class="st7"
   d="m 199.9,407.8 c 3.8,-0.6 13.5,5.2 15,8.6 1.3,2.3 -5.4,2.4 -8.4,4.2 -3.7,2.3 -3.3,4.3 -7.5,5 -3.8,0.3 -8.6,2 -8.3,-7.4 0.7,-5.6 6,-7.5 9.2,-10.4 z"
   inkscape:connector-curvature="0"
   style="clip-rule:evenodd;fill:#f5d380;fill-rule:evenodd;stroke:#000000" />
							<path
   id="path4939"
   sodipodi:nodetypes="ccscssscsc"
   class="st7"
   d="m 190.5,416.7 c 3.8,-0.6 7.4,5.9 8.8,9.3 -8.2,9 -8.3,39.2 -11.5,67.8 -2.2,19.6 -2,39 -2.9,49.8 -2.3,2.4 -2,5.5 -4.4,4.6 -2.3,-1 -11.6,3 -12.4,0.4 -0.8,-2.3 0.9,0.3 -0.9,-2.7 -1.5,-2.7 -2.3,-2.6 -2.2,-3.8 2.1,-12.2 3.8,-52.4 10,-83.1 3.4,-17.2 11.7,-36.1 15.5,-42.3 z"
   inkscape:connector-curvature="0"
   style="clip-rule:evenodd;fill:#f5d380;fill-rule:evenodd;stroke:#000000" />
							<path
   id="path4941"
   sodipodi:nodetypes="ccccc"
   class="st7"
   d="m 168.7,549.2 c 3.7,-0.9 8.2,-1.2 13,-1.3 0.8,28.6 8.4,32.6 14.7,54.2 -5,3 -11.7,6.6 -14.2,0.9 -6.3,-37.9 -10.6,-26.9 -13.5,-53.8 z"
   inkscape:connector-curvature="0"
   style="clip-rule:evenodd;fill:#f5d380;fill-rule:evenodd;stroke:#000000" />
						</g>
						<g
   id="g4969">
							<path
   id="path4945"
   sodipodi:nodetypes="cscccc"
   class="st6"
   d="m 438.2,574.4 c 5.8,-7.2 1.6,-9.7 1.8,-14.7 0.1,-2.9 4.3,0.3 4.3,-1.5 5.6,4.7 7.8,10.2 9.1,15.8 -3.1,-3.5 -3.6,-11.1 -9.7,-9.9 1.4,3.8 -1.2,9.4 -5.5,10.3 z"
   inkscape:connector-curvature="0"
   style="clip-rule:evenodd;fill:#111718;fill-rule:evenodd;stroke:#000000" />
							<path
   id="path4947"
   sodipodi:nodetypes="ccccc"
   class="st7"
   d="m 427.3,544.6 c 3.9,-1.2 2,-2.5 6.6,-1.2 4.7,2 5.9,5.2 10.6,10.9 0.8,9.7 -5.4,7.4 -8.9,4.8 -5.3,-7 -3.3,-8.3 -8.3,-14.5 z"
   inkscape:connector-curvature="0"
   style="clip-rule:evenodd;fill:#f5d380;fill-rule:evenodd;stroke:#000000" />
							<path
   id="path4949"
   sodipodi:nodetypes="ccccc"
   class="st7"
   d="m 417.6,537.3 c 3.5,-2 1.4,-2.9 6.2,-2.6 5,0.9 6.9,3.8 12.7,8.3 -2.1,2.1 -6.8,3.8 -7.6,6.6 -6.7,-5.6 -5.1,-7.3 -11.3,-12.3 z"
   inkscape:connector-curvature="0"
   style="clip-rule:evenodd;fill:#f5d380;fill-rule:evenodd;stroke:#000000" />
							<path
   id="path4951"
   sodipodi:nodetypes="ccccc"
   class="st7"
   d="m 419.1,517.2 c -3.5,2 -4.8,-1.7 -7,2.6 -1.8,4.8 1.9,17.3 7.7,23 5.8,0.8 1,-6.5 8.4,-10.6 -5.1,-8.2 -7.9,-7.2 -9.1,-15 z"
   inkscape:connector-curvature="0"
   style="clip-rule:evenodd;fill:#f5d380;fill-rule:evenodd;stroke:#000000" />
							<path
   id="path4953"
   sodipodi:nodetypes="ccccc"
   class="st7"
   d="m 335.4,322.6 c 6.8,-0.8 19.5,-1.6 25.4,3.8 1.6,6 2.2,11.6 -4,14.9 l -18.2,-4 c -2.7,-5.2 -2.7,-10 -3.2,-14.7 z"
   inkscape:connector-curvature="0"
   style="clip-rule:evenodd;fill:#f5d380;fill-rule:evenodd;stroke:#000000" />
							<path
   id="path4955"
   sodipodi:nodetypes="ccsccc"
   class="st7"
   d="m 339.8,344.8 c 1,-3.7 -3.5,-7.6 0.2,-7.5 2.7,-0.3 18.5,0.3 17.1,3.5 -1.9,4.3 -0.7,7.5 1.9,11 -1.2,3.6 -0.2,4.8 -8.7,0.8 -4.9,-3 -5.9,-5.3 -10.5,-7.8 z"
   inkscape:connector-curvature="0"
   style="clip-rule:evenodd;fill:#f5d380;fill-rule:evenodd;stroke:#000000" />
							<path
   id="path4959"
   sodipodi:nodetypes="ccsccc"
   class="st7"
   d="m 473.2,484 c 2.6,-10.5 -4.3,-12.7 -8.3,-9 -3.5,3.5 -3.1,5.8 -6.6,9 -17.6,16.3 -29.4,14.2 -47.2,26.2 -2.1,6.1 -1.9,10.4 9.3,12.2 25.2,-13.3 33.8,-20.4 52.8,-38.4 z"
   inkscape:connector-curvature="0"
   style="clip-rule:evenodd;fill:#f5d380;fill-rule:evenodd;stroke:#000000" />
							<path
   id="path4957"
   sodipodi:nodetypes="ccscsczc"
   class="st7"
   d="m 341.3,346.6 c 1,-3.7 9.6,-0.2 16.5,3 10,21.7 31.2,42.5 45.5,57.5 15.2,15.8 68.5,58.1 67.7,61.2 -0.3,0.9 1.2,4.4 -0.7,6.1 -1.8,1.7 -9.4,8.8 -12.1,8.5 -29.5,-24.6 -63.7,-55.9 -86.1,-84 -22.4,-27.9 -28,-45 -30.8,-52.3 z"
   inkscape:connector-curvature="0"
   style="clip-rule:evenodd;fill:#f5d380;fill-rule:evenodd;stroke:#000000" />
						</g>
					</g>
				</g>
				<g
   id="g4811">
					<path
   id="path4805"
   sodipodi:nodetypes="ccscssssccc"
   class="st8"
   d="m 127.5,262.9 c 1.1,4.6 1.6,7.5 5.9,9.6 1.6,9.1 7.3,6.4 9.7,3.7 0.7,-0.7 3.1,-7.1 11.4,-5.1 -8.1,-1.9 -10.7,3.4 -11.4,5.3 -2.5,7.1 10,5.6 14.5,1.1 1.2,-1.2 2.4,-1.2 4,-0.8 6.4,1.4 15.3,2.9 20.6,3.7 12.5,1.9 16.6,4.1 25.6,10.2 12.7,-16.1 -23.6,-38.1 -5.8,-61.8 -44.5,24.3 -59.5,12.2 -74.5,34.1 z"
   inkscape:connector-curvature="0"
   style="clip-rule:evenodd;fill:#e1ffa8;fill-rule:evenodd;stroke:#000000" />
					<path
   id="path4807"
   sodipodi:nodetypes="cscsss"
   class="st9"
   d="m 127.7,264 c -5.5,-14.2 18.8,-18.3 43.5,-26.3 12.4,-4 28.2,-10 37.5,-14.1 0,0 18.9,5.9 -1.1,14.5 -18.2,7.8 -52.7,8.9 -65.5,15.2 -6.4,3.2 -14.1,11.4 -14.4,10.7 z"
   inkscape:connector-curvature="0"
   style="clip-rule:evenodd;fill:#5aa85a;fill-rule:evenodd;stroke:#000000" />
				</g>
			</g>
			<g
   id="g4847">
				<path
   id="path4815"
   sodipodi:nodetypes="ccscc"
   class="st10"
   d="m 203.6,249.8 -2,-8.3 c -6.8,-9.9 -21.4,-1.2 -22.2,6.7 -1.1,10.4 14.5,21.2 19.1,10.9 z"
   inkscape:connector-curvature="0"
   style="clip-rule:evenodd;fill:#59554b;fill-rule:evenodd;stroke:#000000" />
				<g
   id="g4839">
					<path
   id="path4827"
   sodipodi:nodetypes="ccss"
   class="st8"
   d="m 181,260.8 c -8.1,-3.8 -12.6,-2.9 -15,-1 -5.3,4.6 -1.1,8.5 1.4,10.3 5.6,4.2 14.4,-2.8 19.8,5.8"
   inkscape:connector-curvature="0"
   style="clip-rule:evenodd;fill:#e1ffa8;fill-rule:evenodd;stroke:#000000" />
					<path
   id="path4829"
   sodipodi:nodetypes="ccss"
   class="st8"
   d="m 145.9,260 c 6.1,5 15.1,13.3 22.9,4.9 -3.2,-8.4 -10.5,-8.6 -17.2,-11.9 -3.7,-1.7 -7.9,5.2 -5.7,7 z"
   inkscape:connector-curvature="0"
   style="clip-rule:evenodd;fill:#e1ffa8;fill-rule:evenodd;stroke:#000000" />
					<path
   id="path4831"
   sodipodi:nodetypes="csss"
   class="st8"
   d="m 129.9,246.7 c 6.4,4.9 17.2,13.2 20,9.4 2.4,-3.3 -9.8,-8.6 -15.9,-14.2 -4.3,-4.1 -8.2,1.7 -4.1,4.8 z"
   inkscape:connector-curvature="0"
   style="clip-rule:evenodd;fill:#e1ffa8;fill-rule:evenodd;stroke:#000000" />
					<path
   id="path4833"
   sodipodi:nodetypes="csss"
   class="st11"
   d="m 113.1,230.4 c 6.7,5 15.4,17.4 18.3,13.6 2.4,-3.3 -7,-12.3 -11.4,-19.9 -4,-6.9 -13.5,1.3 -6.9,6.3 z"
   inkscape:connector-curvature="0"
   style="clip-rule:evenodd;fill:#c0a860;fill-rule:evenodd;stroke:#000000" />
					<path
   id="path4835"
   sodipodi:nodetypes="csss"
   class="st12"
   d="m 101,218.5 c 7,5.3 12.4,11.9 15.2,8.1 2.4,-3.3 -2,-7.4 -6.9,-14.9 -4.5,-7 -11.4,4.4 -8.3,6.8 z"
   inkscape:connector-curvature="0"
   style="clip-rule:evenodd;fill:#a65946;fill-rule:evenodd;stroke:#000000" />
					<path
   id="path4837"
   sodipodi:nodetypes="csss"
   class="st12"
   d="m 78.1,212.8 c 9.6,1.8 24.8,8.8 27.2,0 1.7,-6.2 -16.4,-8.9 -29.9,-11.7 -25.7,-5.2 -18.7,7.8 2.7,11.7 z"
   inkscape:connector-curvature="0"
   style="clip-rule:evenodd;fill:#a65946;fill-rule:evenodd;stroke:#000000" />
				</g>
			</g>
		</g>
		<g
   id="g4749">
			<g
   id="g4639">
				<g
   id="g4531">
					<g
   id="g4424">
						<g
   id="g4371">
							<g
   id="g4554">
								<g
   id="g4486">
									<g
   id="g4453">
										<g
   id="g3458">
											<path
   id="path2473"
   sodipodi:nodetypes="cccsssc"
   class="st8"
   d="m 367.6,331.7 c -15.7,-32.3 2.7,-67 37.1,-102.7 77.4,13 154.6,-13.9 232.1,41.1 -7.6,5.9 -14.6,11 -18.7,18.1 -3.3,5.7 -3.4,13.4 -10.2,17.9 -33.6,22.1 -85.3,37.4 -123.4,42.2 -33.6,4.2 -108,7.2 -116.9,-16.6 z"
   inkscape:connector-curvature="0"
   style="clip-rule:evenodd;fill:#e1ffa8;fill-rule:evenodd;stroke:#000000" />
											<path
   id="path3446"
   sodipodi:nodetypes="csssc"
   class="st13"
   d="m 398.4,347.7 c 3.7,-5.2 9.7,-9.1 13.5,-14.1 4.6,-6 6.8,-12.7 11.8,-18.3 11.6,-12.9 24.2,-20.9 28.3,-44.4 0.8,-4.8 3.5,-10.2 3.8,-15.7"
   inkscape:connector-curvature="0"
   style="fill:none;stroke:#000000" />
											<path
   id="path3448"
   sodipodi:nodetypes="csssc"
   class="st13"
   d="m 442.9,350.7 c 3.7,-5.2 7.1,-10.4 10.9,-15.4 4.6,-6 13.8,-10.7 18.2,-16.7 10,-13.8 13.4,-21.9 23.9,-43.2 2.4,-4.9 8.6,-10.7 11.1,-16.2"
   inkscape:connector-curvature="0"
   style="fill:none;stroke:#000000" />
											<path
   id="path3450"
   sodipodi:nodetypes="csssc"
   class="st13"
   d="m 485.1,348.1 c 3.7,-5.2 6.4,-10.7 10.2,-15.6 4.6,-6 12,-13.9 17.8,-18.6 12.9,-10.6 17.2,-15.6 27.7,-36.9 2.4,-4.9 4.2,-9.5 7.9,-14.4"
   inkscape:connector-curvature="0"
   style="fill:none;stroke:#000000" />
											<path
   id="path3452"
   sodipodi:nodetypes="csssc"
   class="st13"
   d="m 533.6,337.5 c 3.7,-5.2 6.4,-10.7 10.2,-15.6 4.6,-6 10.4,-11.9 16.1,-16.7 3.3,-2.8 11.7,-15.9 15.8,-22.6 2.9,-4.7 12.1,-12.1 15.8,-17"
   inkscape:connector-curvature="0"
   style="fill:none;stroke:#000000" />
											<path
   id="path3454"
   sodipodi:nodetypes="csc"
   class="st13"
   d="m 596,313.1 c 3.7,-5.2 4.9,-12.3 6.9,-18.8 1.5,-4.8 2,-10.4 18,-24.8"
   inkscape:connector-curvature="0"
   style="fill:none;stroke:#000000" />
											<path
   id="path3456"
   sodipodi:nodetypes="csc"
   class="st13"
   d="m 369.3,333.6 c 6.1,-2.3 20.1,-20.8 23.3,-26.2 6.9,-11.5 13,-31.1 13.4,-52.4"
   inkscape:connector-curvature="0"
   style="fill:none;stroke:#000000" />
										</g>
										<g
   id="g4446">
											<path
   id="path3467"
   sodipodi:nodetypes="csss"
   class="st13"
   d="m 424.6,270.2 c -1.4,-0.9 -2.9,0.1 -3.1,1.7 -0.1,1 0.8,2.3 2.3,1.7 1.7,-0.6 1.7,-2.8 0.8,-3.4 z"
   inkscape:connector-curvature="0"
   style="fill:none;stroke:#000000" />
											<path
   id="path4438"
   sodipodi:nodetypes="csss"
   class="st13"
   d="m 472.2,275.6 c -0.9,-1.4 -2.4,0.3 -2.6,1.9 -0.1,1 0.5,2.4 1.9,1.5 1.3,-0.8 1.2,-2.5 0.7,-3.4 z"
   inkscape:connector-curvature="0"
   style="fill:none;stroke:#000000" />
											<path
   id="path4440"
   sodipodi:nodetypes="csss"
   class="st13"
   d="m 515.6,275.7 c -0.9,-1.4 -2.4,0.2 -2.6,1.8 -0.1,1 0.4,2.4 1.8,1.6 1.2,-0.8 1.3,-2.5 0.8,-3.4 z"
   inkscape:connector-curvature="0"
   style="fill:none;stroke:#000000" />
											<path
   id="path4442"
   sodipodi:nodetypes="csss"
   class="st13"
   d="m 557.6,280 c -0.9,-1.4 -2.3,0.5 -2.5,2.1 -0.1,1 0.4,2.2 1.7,1.2 1.1,-0.7 1.3,-2.5 0.8,-3.3 z"
   inkscape:connector-curvature="0"
   style="fill:none;stroke:#000000" />
											<path
   id="path4444"
   sodipodi:nodetypes="csss"
   class="st13"
   d="m 589,283.3 c -1.4,-0.9 -2.2,0.7 -2.4,2.3 -0.1,1 0.8,2.7 2,1.5 0.8,-0.9 1.2,-3.2 0.4,-3.8 z"
   inkscape:connector-curvature="0"
   style="fill:none;stroke:#000000" />
										</g>
									</g>
									<g
   id="g4479">
										<path
   id="path4469"
   sodipodi:nodetypes="ccccc"
   class="st14"
   d="m 391.5,243.5 c 1.3,7.8 37.8,4.4 61.3,8.2 1.7,-6.3 -1.4,-10.7 -4,-15.3 l -47.6,-1.2 z"
   inkscape:connector-curvature="0"
   style="clip-rule:evenodd;fill:#60a860;fill-rule:evenodd;stroke:#000000;stroke-width:0.5" />
										<path
   id="path4471"
   sodipodi:nodetypes="ccccc"
   class="st14"
   d="m 458,251.1 c 10.1,2.8 22.1,1.8 45.3,3.6 -2.1,-5.9 -2.9,-8.9 -5.5,-13.5 L 453,235.9 c 6.9,7.3 4.2,11.4 5,15.2 z"
   inkscape:connector-curvature="0"
   style="clip-rule:evenodd;fill:#60a860;fill-rule:evenodd;stroke:#000000;stroke-width:0.5" />
										<path
   id="path4473"
   sodipodi:nodetypes="ccccc"
   class="st14"
   d="m 507.2,254.2 c 11.7,0 19.4,2 42.6,3.8 -2.1,-5.9 -14,-13.9 -16.6,-18.4 l -33.5,-0.2 c 4.9,6 6.7,11.1 7.5,14.8 z"
   inkscape:connector-curvature="0"
   style="clip-rule:evenodd;fill:#60a860;fill-rule:evenodd;stroke:#000000;stroke-width:0.5" />
										<path
   id="path4475"
   sodipodi:nodetypes="ccccc"
   class="st14"
   d="m 554.1,257.7 c 10.8,1 12.8,2.1 36,3.9 -2.1,-5.9 -18.1,-14.2 -20.7,-18.7 l -32.8,-2.6 c 6.8,5.1 14,11.3 17.5,17.4 z"
   inkscape:connector-curvature="0"
   style="clip-rule:evenodd;fill:#60a860;fill-rule:evenodd;stroke:#000000;stroke-width:0.5" />
										<path
   id="path4477"
   sodipodi:nodetypes="ccccc"
   class="st14"
   d="m 593.5,260.7 c 10.8,1 25.5,4.5 31.5,6.2 -2.1,-5.9 -18.4,-11.7 -26.1,-14.8 l -23.2,-6.6 c 6.7,5.2 14.3,9.1 17.8,15.2 z"
   inkscape:connector-curvature="0"
   style="clip-rule:evenodd;fill:#60a860;fill-rule:evenodd;stroke:#000000;stroke-width:0.5" />
									</g>
								</g>
								<g
   id="g4545">
									
										<linearGradient
   id="path4511_1_"
   gradientUnits="userSpaceOnUse"
   x1="173.9821"
   y1="-62.370201"
   x2="180.7321"
   y2="-54.870201"
   gradientTransform="matrix(0.6157,0.788,-0.788,0.6157,244.746,152.8709)">
										<stop
   offset="0"
   style="stop-color:#924927"
   id="stop86" />
										<stop
   offset="1"
   style="stop-color:#804010;stop-opacity:0"
   id="stop88" />
									</linearGradient>
									<path
   id="path4511"
   sodipodi:nodetypes="ccccc"
   class="st15"
   d="m 395.1,262.6 c 2.8,2.4 5.3,-2.5 8.1,0.6 0.2,-4.4 1.9,-7.4 2.8,-11.1 -3.3,-0.2 -6.6,-0.5 -9.7,-2.6 0,2.5 -0.9,7.9 -1.2,13.1 z"
   inkscape:connector-curvature="0"
   style="clip-rule:evenodd;fill:url(#path4511_1_);fill-rule:evenodd" />
									
										<linearGradient
   id="path4521_1_"
   gradientUnits="userSpaceOnUse"
   x1="151.86031"
   y1="-40.028599"
   x2="157.73531"
   y2="-34.778599"
   gradientTransform="matrix(0.6157,0.788,-0.788,0.6157,305.6518,160.1711)">
										<stop
   offset="0"
   style="stop-color:#924927"
   id="stop92" />
										<stop
   offset="1"
   style="stop-color:#804010;stop-opacity:0"
   id="stop94" />
									</linearGradient>
									<path
   id="path4521"
   sodipodi:nodetypes="cccscc"
   class="st16"
   d="m 407.5,261.5 c 2.8,2.4 38.2,5.1 43.3,3.1 1.5,-3.6 3,-5.3 3.9,-9 -1.8,-0.1 -14.5,-1.1 -26.1,-1.9 -10.2,-0.7 -20.3,-1.1 -21.7,-2.1 0.1,2.5 0.9,4.7 0.6,9.9 z"
   inkscape:connector-curvature="0"
   style="clip-rule:evenodd;fill:url(#path4521_1_);fill-rule:evenodd" />
									
										<linearGradient
   id="path4525_1_"
   gradientUnits="userSpaceOnUse"
   x1="117.6757"
   y1="-3.0084"
   x2="121.8007"
   y2="2.3666"
   gradientTransform="matrix(0.6157,0.788,-0.788,0.6157,405.8511,168.0214)">
										<stop
   offset="0"
   style="stop-color:#924927"
   id="stop98" />
										<stop
   offset="1"
   style="stop-color:#804010;stop-opacity:0"
   id="stop100" />
									</linearGradient>
									<path
   id="path4525"
   sodipodi:nodetypes="cccscc"
   class="st17"
   d="m 457.6,265.4 c 2.8,2.4 34.5,4.7 39.7,2.7 4.3,-4 7,-5.5 7.9,-9.2 -1.8,-0.1 -14,-0.8 -25.6,-1.6 -10.2,-0.7 -21.1,-0.7 -22.6,-1.7 0.1,2.4 0.9,4.6 0.6,9.8 z"
   inkscape:connector-curvature="0"
   style="clip-rule:evenodd;fill:url(#path4525_1_);fill-rule:evenodd" />
									
										<linearGradient
   id="path4529_1_"
   gradientUnits="userSpaceOnUse"
   x1="79.8237"
   y1="39.359699"
   x2="85.4487"
   y2="46.234699"
   gradientTransform="matrix(0.6157,0.788,-0.788,0.6157,509.4457,174.3294)">
										<stop
   offset="0"
   style="stop-color:#924927"
   id="stop104" />
										<stop
   offset="1"
   style="stop-color:#804010;stop-opacity:0"
   id="stop106" />
									</linearGradient>
									<path
   id="path4529"
   sodipodi:nodetypes="cccscc"
   class="st18"
   d="m 509.4,268.6 c 2.8,2.4 27.4,1.9 32.6,-0.1 2.7,-2.9 3.9,-2.7 4.9,-6.3 -1.8,-0.1 -4.1,-0.9 -16.2,-1.3 -10.2,-0.3 -18.5,-1.4 -22.1,-1.7 -0.1,2.3 1.1,4.2 0.8,9.4 z"
   inkscape:connector-curvature="0"
   style="clip-rule:evenodd;fill:url(#path4529_1_);fill-rule:evenodd" />
									
										<linearGradient
   id="path4533_1_"
   gradientUnits="userSpaceOnUse"
   x1="51.942001"
   y1="69.489601"
   x2="55.567001"
   y2="79.739601"
   gradientTransform="matrix(0.6157,0.788,-0.788,0.6157,593.3489,180.0008)">
										<stop
   offset="0"
   style="stop-color:#924927"
   id="stop110" />
										<stop
   offset="1"
   style="stop-color:#804010;stop-opacity:0"
   id="stop112" />
									</linearGradient>
									<path
   id="path4533"
   sodipodi:nodetypes="cccscc"
   class="st19"
   d="m 551.4,271.4 c 2.8,2.4 25.4,1.9 30.6,-0.1 2.7,-2.9 6,-2.2 8.5,-6 -1.8,-0.1 -5.6,-1.3 -17.8,-1.6 -10.2,-0.3 -18.3,-2.4 -22.1,-1.5 -0.1,2.4 1.1,4 0.8,9.2 z"
   inkscape:connector-curvature="0"
   style="clip-rule:evenodd;fill:url(#path4533_1_);fill-rule:evenodd" />
									
										<linearGradient
   id="path4537_1_"
   gradientUnits="userSpaceOnUse"
   x1="24.7638"
   y1="100.133"
   x2="26.0138"
   y2="110.633"
   gradientTransform="matrix(0.6157,0.788,-0.788,0.6157,672.2068,184.6964)">
										<stop
   offset="0"
   style="stop-color:#924927"
   id="stop116" />
										<stop
   offset="1"
   style="stop-color:#804010;stop-opacity:0"
   id="stop118" />
									</linearGradient>
									<path
   id="path4537"
   sodipodi:nodetypes="cccscc"
   class="st20"
   d="m 590.8,273.8 c 2.8,2.4 14.3,6 19.5,4 3.2,-2.6 6.6,-5.5 9.9,-8.5 -1.8,-0.1 -8.4,-2.1 -14.2,-3.2 -4,-0.7 -8.5,-0.3 -12.2,-0.6 -3,3.2 -4.1,6.1 -3,8.3 z"
   inkscape:connector-curvature="0"
   style="clip-rule:evenodd;fill:url(#path4537_1_);fill-rule:evenodd" />
									
										<linearGradient
   id="path4541_1_"
   gradientUnits="userSpaceOnUse"
   x1="11.3641"
   y1="112.1085"
   x2="11.3846"
   y2="126.3585"
   gradientTransform="matrix(0.6157,0.788,-0.788,0.6157,709.4781,193.0129)">
										<stop
   offset="0"
   style="stop-color:#924927"
   id="stop122" />
										<stop
   offset="1"
   style="stop-color:#804010;stop-opacity:0"
   id="stop124" />
									</linearGradient>
									<path
   id="path4541"
   sodipodi:nodetypes="ccccc"
   class="st21"
   d="m 611.4,281.9 c 2.8,2.4 1.7,2.7 6.9,0.7 2.4,-0.6 11.4,-8 14.5,-11.1 -4.6,-1.4 -2.8,-0.4 -10.5,-0.7 -0.1,2.3 -10.5,5.9 -10.9,11.1 z"
   inkscape:connector-curvature="0"
   style="clip-rule:evenodd;fill:url(#path4541_1_);fill-rule:evenodd" />
								</g>
							</g>
							<g
   id="g4318">
								<g
   id="g4252">
									<path
   id="path3279"
   sodipodi:nodetypes="cccssscsssc"
   class="st8"
   d="m 294.4,224.2 58.6,11.3 c 2,34.1 -12.7,57.9 -28.3,85.6 -2.2,0.8 -7,-0.3 -9,0.4 -4.6,1.7 -12.9,5.5 -20.3,-1.8 -6.2,-6.1 -11.9,-9.1 -18.3,-9.1 -7.5,-0.1 -10.6,-1.7 -10.6,-5.6 2.1,-20.6 1,-31.1 4.6,-38.6 0.8,-1.6 5.3,-9.1 6.4,-13 1.5,-5.4 5.9,-11.3 7.5,-14.2 1.3,-2.1 8.8,-11.9 9.4,-15 z"
   inkscape:connector-curvature="0"
   style="clip-rule:evenodd;fill:#e1ffa8;fill-rule:evenodd;stroke:#000000" />
									<path
   id="path2308"
   sodipodi:nodetypes="ccscsscssc"
   class="st8"
   d="m 336.5,236.4 60,2.9 c -0.5,21.3 -1.5,48.2 -25.7,75.4 -5.7,6.3 0.2,6.9 -6.2,15.8 -2.2,0.8 -3.5,-1.6 -5.2,-0.3 -5.5,4.3 -20.1,2.3 -26.5,-8 -1.8,-3 -6.3,-0.5 -7.8,0.8 0.4,-21.1 -38.4,-50.1 11,-70.2 4,-1.6 0.9,-4 1.1,-5.1 0.5,-4.1 -0.1,-7.9 -0.7,-11.3 z"
   inkscape:connector-curvature="0"
   style="clip-rule:evenodd;fill:#e1ffa8;fill-rule:evenodd;stroke:#000000" />
									<path
   id="path3281"
   sodipodi:nodetypes="ccsscsscss"
   class="st8"
   d="m 261.6,218.8 c 26,-1 39.6,8.4 39.6,8.4 -4,6.9 -13.3,11.9 -14.3,19.2 -3.1,22.8 -7.7,25.8 -15,38.9 -3.3,5.9 -1.5,12.5 -5.3,19.1 -5.8,-0.5 -8.3,2.3 -12.1,5.2 -5.4,4.1 -19.2,0.1 -30.4,-10.8 -2.3,-2.3 -13,-8.2 -18.5,-11.6 1.7,-6.5 -6.7,-34.9 -7.3,-38.8 -0.6,-3.7 50.1,-29.1 63.3,-29.6 z"
   inkscape:connector-curvature="0"
   style="clip-rule:evenodd;fill:#e1ffa8;fill-rule:evenodd;stroke:#000000" />
								</g>
								<g
   id="g4309">
									<path
   id="path4305"
   sodipodi:nodetypes="ccccc"
   class="st22"
   d="m 290.4,238.7 c 0.1,-2.3 5.5,-7 11,-11.1 l 94.8,12.5 v 8.9 c -43.5,-6.7 -79.1,3.8 -105.8,-10.3 z"
   inkscape:connector-curvature="0"
   style="clip-rule:evenodd;fill:#e1ff9d;fill-rule:evenodd;stroke:#000000" />
									<path
   id="path4307"
   sodipodi:nodetypes="csc"
   class="st23"
   d="m 199,249.6 c 3.3,1.4 32.8,-18.7 44.8,-20.8 14.6,-2.5 29.5,0 44.9,8.8"
   inkscape:connector-curvature="0"
   style="fill:none;stroke:#000000;stroke-width:0.5" />
								</g>
							</g>
						</g>
						<g
   id="g4414">
							<g
   id="g4419">
								<path
   id="path4299"
   sodipodi:nodetypes="ccccc"
   class="st24"
   d="m 327.6,258.3 c -15.2,9.4 -13.5,30.7 -4.1,50.8 13.4,5.3 24.8,8.4 39.1,-5.5 3,-5 5.2,-10.5 4.4,-18.3 -16.1,-9.2 -40.7,-20.3 -39.4,-27 z"
   inkscape:connector-curvature="0"
   style="clip-rule:evenodd;fill:#f0ffc0;fill-rule:evenodd;stroke:#000000" />
								<path
   id="path4301"
   sodipodi:nodetypes="cscsss"
   class="st23"
   d="m 331.8,306.3 c -1.4,-0.3 -1.8,-1.5 -2.8,-2 -1.1,-0.5 -1.1,-3.4 -1.8,-6.4 2.6,-6.9 -0.1,-11.6 0.9,-12 4.5,-1.5 9.3,9.8 9.5,11.8 0.2,2.3 -2.9,9.2 -5.8,8.6 z"
   inkscape:connector-curvature="0"
   style="fill:none;stroke:#000000;stroke-width:0.5" />
								<path
   id="path4303"
   sodipodi:nodetypes="cccsc"
   class="st25"
   d="m 327.4,263.7 c 0.1,7.7 0.1,15.4 2.6,22.4 -2.7,-1.4 -2.4,0.5 -2.3,3.9 2.3,1.7 5.4,0 2.5,-4.1 -2,-2.6 -3.1,-14.4 -2.8,-22.2 z"
   inkscape:connector-curvature="0"
   style="clip-rule:evenodd;fill-rule:evenodd;stroke:#000000;stroke-width:0.5" />
							</g>
						</g>
					</g>
					<g
   id="g4335">
						<path
   id="path4333"
   sodipodi:nodetypes="csccc"
   class="st26"
   d="m 490.1,198.3 c 10.3,-8.1 88.7,32.4 145.2,68.7 11.6,7.5 13.1,6.4 19.6,9.4 -3.7,6.6 -45.1,-24.1 -88.3,-30.6 z"
   inkscape:connector-curvature="0"
   style="clip-rule:evenodd;fill:#2d1300;fill-rule:evenodd;stroke:#000000" />
						<path
   id="path4329"
   sodipodi:nodetypes="cccssssscc"
   class="st27"
   d="m 296.7,224 28.6,-24.3 c 10.7,-4.7 109.5,-9.5 167.5,-2.3 46.2,16.8 74.2,31.8 81.2,40.5 2.7,3.3 8.3,11.3 5.1,10.2 -2.2,-0.8 -7.7,-2.4 -19,-3 -21.6,-1 -53.1,-0.7 -85.8,-1 -25,-0.2 -52.2,3.7 -77.5,2.4 -40.6,-2 -77.1,-10.3 -96.6,-17.9 z"
   inkscape:connector-curvature="0"
   style="clip-rule:evenodd;fill:#60a860;fill-rule:evenodd;stroke:#000000" />
						<path
   id="path4331"
   sodipodi:nodetypes="cccsssc"
   class="st13"
   d="m 461.4,196.5 c -47.2,12 -89.7,21.1 -125.6,26 l -33,0.9 c 10,0.4 20.8,-0.8 32.9,0.1 10.8,0.8 22.4,4.4 34.1,5.5 17.3,1.5 34.6,0.3 47.7,-0.4 50.5,-2.9 98,-4.9 148.8,5.3"
   inkscape:connector-curvature="0"
   style="fill:none;stroke:#000000" />
					</g>
				</g>
				<path
   id="path4584"
   sodipodi:nodetypes="ccsccsccc"
   class="st9"
   d="m 315,208.1 9.2,0.3 c 18.6,3.5 42.4,-3.4 62.4,-6.8 64.9,-10.9 96.7,-2.5 118.5,-2.8 0.6,-0.9 0.6,-2.6 -1.4,-4.3 C 479.6,190 454.5,193 415.8,182 379.7,171.7 344.9,174.4 311.6,176 l -5.4,0.1 z"
   inkscape:connector-curvature="0"
   style="clip-rule:evenodd;fill:#5aa85a;fill-rule:evenodd;stroke:#000000" />
			</g>
			<path
   id="path4694"
   sodipodi:nodetypes="cccsccssc"
   class="st9"
   d="m 312.4,174.7 c 7.6,6 20.3,23.8 12.3,33.6 -6.6,7.5 -13,3.6 -24.3,20.5 -21.9,-10.9 -43.3,-15.2 -76,5.1 -7.7,4.8 -16.1,4.6 -26.5,13.5 11.7,-13.8 18,-24.3 0.2,-20.1 0,0 7.6,-4.3 17.3,-12 10.6,-8.3 24.2,-20.4 40.2,-28.3 20.5,-10.2 44.5,-12.6 56.8,-12.3 z"
   inkscape:connector-curvature="0"
   style="clip-rule:evenodd;fill:#5aa85a;fill-rule:evenodd;stroke:#000000" />
		</g>
	</g>
</g>
<g
   id="layer10"
   inkscape:groupmode="layer"
   inkscape:label="legenda">
	<path
   id="path3366"
   sodipodi:nodetypes="cc"
   class="st28"
   d="M 131.8,270.3 61,243"
   inkscape:connector-curvature="0"
   style="fill:none;stroke:#a80000;stroke-width:2" />
	<path
   id="path3369"
   sodipodi:nodetypes="cc"
   class="st28"
   d="M 164.7,295.9 61,377.1"
   inkscape:connector-curvature="0"
   style="fill:none;stroke:#a80000;stroke-width:2" />
	<path
   id="path3371"
   sodipodi:nodetypes="cc"
   class="st28"
   d="M 270.4,201.3 276.9,82.2"
   inkscape:connector-curvature="0"
   style="fill:none;stroke:#a80000;stroke-width:2" />
	<path
   id="path3373"
   sodipodi:nodetypes="cc"
   class="st28"
   d="M 148.7,276.1 61,301.2"
   inkscape:connector-curvature="0"
   style="fill:none;stroke:#a80000;stroke-width:2" />
	<path
   id="path3375"
   sodipodi:nodetypes="cc"
   class="st28"
   d="M 295.8,290.6 323.7,82.2"
   inkscape:connector-curvature="0"
   style="fill:none;stroke:#a80000;stroke-width:2" />
	<path
   id="path3377"
   sodipodi:nodetypes="cc"
   class="st28"
   d="M 175.2,263 77.4,82.2"
   inkscape:connector-curvature="0"
   style="fill:none;stroke:#a80000;stroke-width:2" />
	<path
   id="path3381"
   sodipodi:nodetypes="cc"
   class="st28"
   d="M 359.9,212.7 439.8,82.3"
   inkscape:connector-curvature="0"
   style="fill:none;stroke:#a80000;stroke-width:2" />
	<path
   id="path3383"
   sodipodi:nodetypes="cc"
   class="st28"
   d="M 367.4,267 494.8,82.2"
   inkscape:connector-curvature="0"
   style="fill:none;stroke:#a80000;stroke-width:2" />
	<path
   id="path3385"
   sodipodi:nodetypes="cc"
   class="st28"
   d="M 226.9,262.6 227.7,82.3"
   inkscape:connector-curvature="0"
   style="fill:none;stroke:#a80000;stroke-width:2" />
	<path
   id="path3387"
   sodipodi:nodetypes="cc"
   class="st28"
   d="M 436.2,214.5 564.9,82.2"
   inkscape:connector-curvature="0"
   style="fill:none;stroke:#a80000;stroke-width:2" />
	<path
   id="path3389"
   sodipodi:nodetypes="cc"
   class="st28"
   d="M 462.9,234.9 618.2,82.2"
   inkscape:connector-curvature="0"
   style="fill:none;stroke:#a80000;stroke-width:2" />
	<path
   id="path3391"
   sodipodi:nodetypes="cc"
   class="st28"
   d="m 599.4,248.8 49.1,-30.5"
   inkscape:connector-curvature="0"
   style="fill:none;stroke:#a80000;stroke-width:2" />
	<path
   id="path3393"
   sodipodi:nodetypes="ccc"
   class="st28"
   d="M 497.6,248.4 648.5,127.2 566.8,253.4"
   inkscape:connector-curvature="0"
   style="fill:none;stroke:#a80000;stroke-width:2" />
	<path
   id="path3395"
   sodipodi:nodetypes="cc"
   class="st28"
   d="M 194.4,277.8 61,437"
   inkscape:connector-curvature="0"
   style="fill:none;stroke:#a80000;stroke-width:2" />
	<path
   id="path3397"
   sodipodi:nodetypes="cc"
   class="st28"
   d="M 94.9,209.7 61,169.3"
   inkscape:connector-curvature="0"
   style="fill:none;stroke:#a80000;stroke-width:2" />
	<path
   id="path3399"
   sodipodi:nodetypes="cc"
   class="st28"
   d="M 648.1,587.1 416,433.8"
   inkscape:connector-curvature="0"
   style="fill:none;stroke:#a80000;stroke-width:2" />
	<path
   id="path3401"
   sodipodi:nodetypes="ccc"
   class="st28"
   d="M 483.4,329.3 648.5,403.2 526,326.7"
   inkscape:connector-curvature="0"
   style="fill:none;stroke:#a80000;stroke-width:2" />
	<path
   id="path3403"
   sodipodi:nodetypes="ccc"
   class="st28"
   d="M 587.6,284.1 648.5,348.9 557,280.6"
   inkscape:connector-curvature="0"
   style="fill:none;stroke:#a80000;stroke-width:2" />
	<path
   id="path3405"
   sodipodi:nodetypes="cc"
   class="st28"
   d="m 235.2,380.4 -76.4,216"
   inkscape:connector-curvature="0"
   style="fill:none;stroke:#a80000;stroke-width:2" />
	<path
   id="path3407"
   sodipodi:nodetypes="ccc"
   class="st28"
   d="m 420.2,531 98.2,64.5 -81,-45.7"
   inkscape:connector-curvature="0"
   style="fill:none;stroke:#a80000;stroke-width:2" />
	<path
   id="path3409"
   sodipodi:nodetypes="cc"
   class="st28"
   d="M 350.8,341.6 648.5,539.8"
   inkscape:connector-curvature="0"
   style="fill:none;stroke:#a80000;stroke-width:2" />
	<path
   id="path3411"
   sodipodi:nodetypes="cc"
   class="st28"
   d="M 357,334.8 648.6,493.9"
   inkscape:connector-curvature="0"
   style="fill:none;stroke:#a80000;stroke-width:2" />
	<path
   id="path3413"
   sodipodi:nodetypes="cc"
   class="st28"
   d="m 140,82.2 50.7,164.4"
   inkscape:connector-curvature="0"
   style="fill:none;stroke:#a80000;stroke-width:2" />
	<text
   transform="matrix(1,-0.0087,0.0087,1,417.7957,633.881)"
   class="st29 st30"
   id="text179"
   style="font-size:36.00139999px;font-family:'Liberation Sans', Arial, Sans-serif">1</text>

	<text
   transform="matrix(1,-0.0087,0.0087,1,518.4128,633.882)"
   class="st29 st30"
   id="text181"
   style="font-size:36.00139999px;font-family:'Liberation Sans', Arial, Sans-serif">2</text>

	<text
   transform="matrix(1,-0.0087,0.0087,1,599.0624,633.8813)"
   class="st29 st30"
   id="text183"
   style="font-size:36.00139999px;font-family:'Liberation Sans', Arial, Sans-serif">3</text>

	<text
   transform="matrix(1,-0.0087,0.0087,1,658.4648,604.7573)"
   class="st29 st30"
   id="text185"
   style="font-size:36.00139999px;font-family:'Liberation Sans', Arial, Sans-serif">4</text>

	<text
   transform="matrix(1,-0.0087,0.0087,1,658.4637,558.741)"
   class="st29 st30"
   id="text187"
   style="font-size:36.00139999px;font-family:'Liberation Sans', Arial, Sans-serif">5</text>

	<text
   transform="matrix(1,-0.0087,0.0087,1,658.4638,507.9539)"
   class="st29 st30"
   id="text189"
   style="font-size:36.00139999px;font-family:'Liberation Sans', Arial, Sans-serif">6</text>

	<text
   transform="matrix(1,-0.0087,0.0087,1,190.9668,633.8809)"
   class="st29 st30"
   id="text191"
   style="font-size:36.00139999px;font-family:'Liberation Sans', Arial, Sans-serif">7</text>

	<text
   transform="matrix(1,-0.0087,0.0087,1,121.9199,68.0612)"
   class="st29 st30"
   id="text193"
   style="font-size:36.00139999px;font-family:'Liberation Sans', Arial, Sans-serif">8</text>

	<text
   transform="matrix(1,-0.0087,0.0087,1,31.0225,182.1871)"
   class="st29 st30"
   id="text195"
   style="font-size:36.00139999px;font-family:'Liberation Sans', Arial, Sans-serif">9</text>

	<text
   transform="matrix(1,-0.0087,0.0087,1,8.1193,254.3722)"
   class="st29 st30"
   id="text197"
   style="font-size:36.00139999px;font-family:'Liberation Sans', Arial, Sans-serif">10</text>

	<text
   transform="matrix(1,-0.0087,0.0087,1,8.1192,385.4016)"
   class="st29 st30"
   id="text199"
   style="font-size:36.00139999px;font-family:'Liberation Sans', Arial, Sans-serif">11</text>

	<text
   transform="matrix(1,-0.0087,0.0087,1,8.1191,309.5188)"
   class="st29 st30"
   id="text201"
   style="font-size:36.00139999px;font-family:'Liberation Sans', Arial, Sans-serif">12</text>

	<text
   transform="matrix(1,-0.0087,0.0087,1,48.4487,68.2614)"
   class="st29 st30"
   id="text203"
   style="font-size:36.00139999px;font-family:'Liberation Sans', Arial, Sans-serif">13</text>

	<text
   transform="matrix(1,-0.0087,0.0087,1,7.9896,460.0813)"
   class="st29 st30"
   id="text205"
   style="font-size:36.00139999px;font-family:'Liberation Sans', Arial, Sans-serif">14</text>

	<text
   transform="matrix(1,-0.0087,0.0087,1,121.9817,633.8813)"
   class="st29 st30"
   id="text207"
   style="font-size:36.00139999px;font-family:'Liberation Sans', Arial, Sans-serif">15</text>

	<text
   transform="matrix(1,-0.0087,0.0087,1,191.7708,69.358)"
   class="st29 st30"
   id="text209"
   style="font-size:36.00139999px;font-family:'Liberation Sans', Arial, Sans-serif">16</text>

	<text
   transform="matrix(1,-0.0087,0.0087,1,305.781,69.3582)"
   class="st29 st30"
   id="text211"
   style="font-size:36.00139999px;font-family:'Liberation Sans', Arial, Sans-serif">17</text>

	<text
   transform="matrix(1,-0.0087,0.0087,1,245.4444,633.8811)"
   class="st29 st30"
   id="text213"
   style="font-size:36.00139999px;font-family:'Liberation Sans', Arial, Sans-serif">18</text>

	<text
   transform="matrix(1,-0.0087,0.0087,1,311.5534,633.8813)"
   class="st29 st30"
   id="text215"
   style="font-size:36.00139999px;font-family:'Liberation Sans', Arial, Sans-serif">19</text>

	<text
   transform="matrix(1,-0.0087,0.0087,1,490.709,69.3578)"
   class="st29 st30"
   id="text217"
   style="font-size:36.00139999px;font-family:'Liberation Sans', Arial, Sans-serif">20</text>

	<text
   transform="matrix(1,-0.0087,0.0087,1,658.4639,419.1057)"
   class="st29 st30"
   id="text219"
   style="font-size:36.00139999px;font-family:'Liberation Sans', Arial, Sans-serif">21</text>

	<text
   transform="matrix(1,-0.0087,0.0087,1,658.4642,359.3711)"
   class="st29 st30"
   id="text221"
   style="font-size:36.00139999px;font-family:'Liberation Sans', Arial, Sans-serif">22</text>

	<text
   transform="matrix(1,-0.0087,0.0087,1,658.4648,132.7115)"
   class="st29 st30"
   id="text223"
   style="font-size:36.00139999px;font-family:'Liberation Sans', Arial, Sans-serif">23</text>

	<text
   transform="matrix(1,-0.0087,0.0087,1,249.607,69.3582)"
   class="st29 st30"
   id="text225"
   style="font-size:36.00139999px;font-family:'Liberation Sans', Arial, Sans-serif">25</text>

	<text
   transform="matrix(1,-0.0087,0.0087,1,98.4557,442.929)"
   class="st29 st30"
   id="text227"
   style="font-size:36.00139999px;font-family:'Liberation Sans', Arial, Sans-serif">A</text>

	<text
   transform="matrix(1,-0.0087,0.0087,1,341.2232,442.9287)"
   class="st29 st30"
   id="text229"
   style="font-size:36.00139999px;font-family:'Liberation Sans', Arial, Sans-serif">B</text>

	<text
   transform="matrix(1,-0.0087,0.0087,1,616.7757,442.9294)"
   class="st29 st30"
   id="text231"
   style="font-size:36.00139999px;font-family:'Liberation Sans', Arial, Sans-serif">C</text>

	<path
   id="path11820"
   sodipodi:nodetypes="cc"
   class="st28"
   d="m 345.6,187.7 39,-105.4"
   inkscape:connector-curvature="0"
   style="fill:none;stroke:#a80000;stroke-width:2" />
	<text
   transform="matrix(1,-0.0087,0.0087,1,364.3331,69.358)"
   class="st29 st30"
   id="text234"
   style="font-size:36.00139999px;font-family:'Liberation Sans', Arial, Sans-serif">26</text>

	<text
   transform="matrix(1,-0.0087,0.0087,1,428.9625,69.358)"
   class="st29 st30"
   id="text236"
   style="font-size:36.00139999px;font-family:'Liberation Sans', Arial, Sans-serif">27</text>

	<text
   transform="matrix(1,-0.0087,0.0087,1,555.3013,69.3581)"
   class="st29 st30"
   id="text238"
   style="font-size:36.00139999px;font-family:'Liberation Sans', Arial, Sans-serif">28</text>

	<text
   transform="matrix(1,-0.0087,0.0087,1,616.6493,69.3579)"
   class="st29 st30"
   id="text240"
   style="font-size:36.00139999px;font-family:'Liberation Sans', Arial, Sans-serif">29</text>

	<text
   transform="matrix(1,-0.0087,0.0087,1,658.4645,227.1277)"
   class="st29 st30"
   id="text242"
   style="font-size:36.00139999px;font-family:'Liberation Sans', Arial, Sans-serif">30</text>

	<path
   id="path7396"
   sodipodi:nodetypes="cc"
   class="st28"
   d="M 593.1,596.4 445.8,499.3"
   inkscape:connector-curvature="0"
   style="fill:none;stroke:#a80000;stroke-width:2" />
	<path
   id="path7398"
   sodipodi:nodetypes="cc"
   class="st28"
   d="m 434.4,596.4 7.2,-25.2"
   inkscape:connector-curvature="0"
   style="fill:none;stroke:#a80000;stroke-width:2" />
	<path
   id="path7400"
   sodipodi:nodetypes="cc"
   class="st28"
   d="M 324.6,596.4 342.5,288.3"
   inkscape:connector-curvature="0"
   style="fill:none;stroke:#a80000;stroke-width:2" />
	<path
   id="path7402"
   sodipodi:nodetypes="cc"
   class="st28"
   d="M 272.3,596.4 329.4,289.6"
   inkscape:connector-curvature="0"
   style="fill:none;stroke:#a80000;stroke-width:2" />
	<path
   id="path7404"
   sodipodi:nodetypes="cc"
   class="st28"
   d="m 283.2,311.4 -73.5,285"
   inkscape:connector-curvature="0"
   style="fill:none;stroke:#a80000;stroke-width:2" />
</g>
</svg>