<?xml version="1.0" encoding="utf-8"?><!-- Generator: Adobe Illustrator 24.0.3, SVG Export Plug-In . SVG Version: 6.00 Build 0)  --><svg version="1.1"	 id="svg2" xmlns:cc="http://web.resource.org/cc/" xmlns:dc="http://purl.org/dc/elements/1.1/" xmlns:inkscape="http://www.inkscape.org/namespaces/inkscape" xmlns:rdf="http://www.w3.org/1999/02/22-rdf-syntax-ns#" xmlns:sodipodi="http://sodipodi.sourceforge.net/DTD/sodipodi-0.dtd" xmlns:svg="http://www.w3.org/2000/svg"	 xmlns="http://www.w3.org/2000/svg" xmlns:xlink="http://www.w3.org/1999/xlink" x="0px" y="0px" width="708.7px"	 height="680.315px" viewBox="0 0 708.7 680.315" style="enable-background:new 0 0 708.7 680.315;" xml:space="preserve"><style type="text/css">	.st0{fill:#EFE0DE;}	.st1{fill:#FFFFC3;}	.st2{fill-rule:evenodd;clip-rule:evenodd;fill:#D3FFFF;}	.st3{fill-rule:evenodd;clip-rule:evenodd;fill:url(#path4862_1_);stroke:#000000;}	.st4{fill-rule:evenodd;clip-rule:evenodd;fill:#E1FAA8;stroke:#000000;}	.st5{fill-rule:evenodd;clip-rule:evenodd;fill:#A8C080;stroke:#000000;}	.st6{fill-rule:evenodd;clip-rule:evenodd;fill:#111718;stroke:#000000;}	.st7{fill-rule:evenodd;clip-rule:evenodd;fill:#F5D380;stroke:#000000;}	.st8{fill-rule:evenodd;clip-rule:evenodd;fill:#E1FFA8;stroke:#000000;}	.st9{fill-rule:evenodd;clip-rule:evenodd;fill:#5AA85A;stroke:#000000;}	.st10{fill-rule:evenodd;clip-rule:evenodd;fill:#59554B;stroke:#000000;}	.st11{fill-rule:evenodd;clip-rule:evenodd;fill:#C0A860;stroke:#000000;}	.st12{fill-rule:evenodd;clip-rule:evenodd;fill:#A65946;stroke:#000000;}	.st13{fill:none;stroke:#000000;}	.st14{fill-rule:evenodd;clip-rule:evenodd;fill:#60A860;stroke:#000000;stroke-width:0.5;}	.st15{fill-rule:evenodd;clip-rule:evenodd;fill:url(#path4511_1_);}	.st16{fill-rule:evenodd;clip-rule:evenodd;fill:url(#path4521_1_);}	.st17{fill-rule:evenodd;clip-rule:evenodd;fill:url(#path4525_1_);}	.st18{fill-rule:evenodd;clip-rule:evenodd;fill:url(#path4529_1_);}	.st19{fill-rule:evenodd;clip-rule:evenodd;fill:url(#path4533_1_);}	.st20{fill-rule:evenodd;clip-rule:evenodd;fill:url(#path4537_1_);}	.st21{fill-rule:evenodd;clip-rule:evenodd;fill:url(#path4541_1_);}	.st22{fill-rule:evenodd;clip-rule:evenodd;fill:#E1FF9D;stroke:#000000;}	.st23{fill:none;stroke:#000000;stroke-width:0.5;}	.st24{fill-rule:evenodd;clip-rule:evenodd;fill:#F0FFC0;stroke:#000000;}	.st25{fill-rule:evenodd;clip-rule:evenodd;stroke:#000000;stroke-width:0.5;}	.st26{fill-rule:evenodd;clip-rule:evenodd;fill:#2D1300;stroke:#000000;}	.st27{fill-rule:evenodd;clip-rule:evenodd;fill:#60A860;stroke:#000000;}	.st28{fill:none;stroke:#A80000;stroke-width:2;}	.st29{font-family:Liberation Sans, Arial, Sans-serif;}	.st30{font-size:36.0014px;}</style><sodipodi:namedview  bordercolor="#666666" borderopacity="1.0" id="base" inkscape:current-layer="layer10" inkscape:cx="614.20659" inkscape:cy="748.48083" inkscape:document-units="px" inkscape:pageopacity="0.0" inkscape:pageshadow="2" inkscape:window-height="971" inkscape:window-width="810" inkscape:window-x="0" inkscape:window-y="0" inkscape:zoom="0.5" pagecolor="#ffffff">	</sodipodi:namedview><g id="layer8" inkscape:groupmode="layer" inkscape:label="sfondo">	<rect id="rect5293" x="86" y="143.3" class="st0" width="127" height="311.6"/>	<rect id="rect6274" x="223.9" y="143.3" class="st1" width="152.7" height="311.6"/>	<path id="path6833" class="st2" d="M381.8,143.3h271.8v311.6H381.8V143.3z"/></g><g id="layer7" inkscape:groupmode="layer" inkscape:label="corpo">	<g id="g5270">		<g id="g5169">			<g id="g5088">				<g id="g5015">					<g id="g4888">						<g id="g4870">															<linearGradient id="path4862_1_" gradientUnits="userSpaceOnUse" x1="188.0044" y1="143.2093" x2="219.0044" y2="147.4593" gradientTransform="matrix(0.6157 0.788 -0.788 0.6157 244.746 152.8709)">								<stop  offset="0" style="stop-color:#E1FAA8"/>								<stop  offset="1" style="stop-color:#030806"/>							</linearGradient>							<path id="path4862" sodipodi:nodetypes="cccc" class="st3" d="M245.8,383.1l-4.6,3.9c7.1,10.1,13,23.2,21.9,28.9								C264.6,404.6,255.6,393.8,245.8,383.1z"/>							<path id="path4864" sodipodi:nodetypes="ccccc" class="st4" d="M242.2,392.2c4.2-0.3,7.5-2.4,6.8-9.1								c-11.2-12.2-24.8-20.1-36.4-31.5l-4.6,3.9C217.5,368.8,229.2,380.8,242.2,392.2z"/>							<path id="path4868" sodipodi:nodetypes="ccsccc" class="st4" d="M204.4,355.5c3.5,2.4,7.4,2.7,11-2.9								c-0.6-8.4-5.3-19.4-8.6-31.3c-3.2-11.5-4.9-24.1-7.8-31.8l-5.4,3C190.8,309.9,197.8,340.8,204.4,355.5z"/>							<path id="path4860" sodipodi:nodetypes="ccsc" class="st4" d="M155.8,276c-7.9,11.8,25.7,11.6,38.1,19.1								c2.5-0.6,7.2-1.9,7.1-5.5C200.6,280.3,169,280.8,155.8,276z"/>						</g>						<path id="path4886" sodipodi:nodetypes="csscsscc" class="st5" d="M139.1,277.7c2.3,9,16.5,12.1,25.4,18.7							c6.9,5.1,15.2,11.7,18.2,17.6c4.4,8.7,3.2,12.3,10.2,18.7c0-5.3-1.9-10.1-3.7-14.8c-4.2-10.8-12-20.1-22.8-28.1							c-6.3-4.6-14.7-9.8-22-14L139.1,277.7z"/>					</g>					<g id="g4979">						<g id="g4915">							<path id="path4913" sodipodi:nodetypes="cscccc" class="st6" d="M174.4,552.7c-8.3,4.1-9.8-0.6-14.8-1.5								c-2.9-0.5-0.6,4.2-2.4,3.8c3.4,6.5,8.2,9.9,13.4,12.3c-2.7-3.8-10.1-5.9-7.5-11.6C166.5,558.1,172.5,556.8,174.4,552.7z"/>							<path id="path4911" sodipodi:nodetypes="ccccc" class="st7" d="M151.1,537.7c-2.1,3.5-2.9,1.4-2.8,6.1c0.7,5,3.6,7,8,12.9								c9.2,3.1,8.5-3.4,6.9-7.5C157.6,542.5,155.8,544,151.1,537.7z"/>							<path id="path4909" sodipodi:nodetypes="ccccc" class="st7" d="M144.2,525.4c4,0.4,2.9-1.5,6.6,1.5c3.5,3.7,3.4,7.1,5.4,14.2								c-2.9,0.4-7.7-0.9-10.1,0.9C144,533.6,146.3,533.1,144.2,525.4z"/>							<path id="path4907" sodipodi:nodetypes="ccccc" class="st7" d="M144.9,502.2c4,0.4,7.1-2.6,10.8,0.4c3.5,3.7,4.1,23,1.1,30.6								c-5,3-6.6-5.6-15.1-6.3C143.2,517.3,147.1,509.9,144.9,502.2z"/>							<path id="path4897" sodipodi:nodetypes="ccccc" class="st7" d="M234.3,308.3c5.6-3.9,12.5-4.2,20.2-2.1								c4.3,4.5,7.4,9.2,3.5,15l-12.4-2.1C241,315.8,237,312.3,234.3,308.3z"/>							<path id="path4899" sodipodi:nodetypes="ccsccc" class="st7" d="M246,319.3c3.8-0.6,10.1-1.6,11.5,1.8c1.3,2.3-0.6,5.6-1.9,9								c-1.7,4.5-3.5,8.9-7.7,9.6c-3.8,0.3-7.5,0.5-7.3-8.9C241.5,325.1,245.5,324.5,246,319.3z"/>							<path id="path4901" sodipodi:nodetypes="ccscssscsc" class="st7" d="M240.1,329.9c3.8-0.6,6.5,6,7.9,9.3								c3.3,9.9-23.5,29.1-42.6,51.1c-14.4,16.5-23.1,30.7-26.3,31.3c-1,0.1-7.6,5.8-9.9,4.8c-2.3-1-11.3-0.7-12.2-3.3								c-0.8-2.3,2.7-5.9,3.5-8.1c1.1-2.9,1.3-4.1,1.3-5.3c0.5-3.3,21.6-32.4,44.8-51.9C222.9,344.2,236.3,336,240.1,329.9z"/>							<path id="path4903" sodipodi:nodetypes="ccccc" class="st7" d="M157.3,423.7c4,0.4,8.2-0.3,12,2.7								c-8.1,29-8.4,53.7-10.3,79.4c-5,3-9.7,7.6-18.2-5.4C146,474.7,151.2,449.1,157.3,423.7z"/>						</g>						<g id="g4925" transform="translate(96,-85.6619)">							<path id="path4927" sodipodi:nodetypes="cscccc" class="st6" d="M227.8,632.1c-8.3,4.1-9.8-0.6-14.8-1.5								c-2.9-0.5-0.6,4.2-2.4,3.8c3.4,6.5,8.2,9.9,13.4,12.3c-2.7-3.8-10.1-5.9-7.5-11.6C219.9,637.5,225.9,636.2,227.8,632.1z"/>							<path id="path4929" sodipodi:nodetypes="ccccc" class="st7" d="M203.8,623.2c-2.1,3.5-6.4-1.9-6.3,2.9c0.7,5,4,5.1,7.7,7.7								c6.7,2.3,12,1.5,10.4-2.6C210.1,624.4,209,628,203.8,623.2z"/>							<path id="path4931" sodipodi:nodetypes="ccccc" class="st7" d="M192.3,616.8c4,0.4,3.2-3,7,0c1.4,0.9,3.4,1.4,7,6.9								c-1.8,1.8-6.7,2.1-9,3.9C193.3,626.9,194.5,624.4,192.3,616.8z"/>							<path id="path4933" sodipodi:nodetypes="ccccc" class="st7" d="M184.3,601.1c4,0.4,5.4-2.2,9.2,0.8c3.5,3.7,3.8,8,8.8,15.7								c-2.7,0.6-6.1,1.6-10.3,1.1C185.6,615.1,186.5,608.7,184.3,601.1z"/>							<path id="path4935" sodipodi:nodetypes="cccc" class="st7" d="M201.6,405.4c5.6-3.9,17-1.3,24.7,0.7c0.8,5-4.6,9.6-10.8,12.2								C204.1,415.1,196.6,407.3,201.6,405.4z"/>							<path id="path4937" sodipodi:nodetypes="ccsccc" class="st7" d="M199.9,407.8c3.8-0.6,13.5,5.2,15,8.6								c1.3,2.3-5.4,2.4-8.4,4.2c-3.7,2.3-3.3,4.3-7.5,5c-3.8,0.3-8.6,2-8.3-7.4C191.4,412.6,196.7,410.7,199.9,407.8z"/>							<path id="path4939" sodipodi:nodetypes="ccscssscsc" class="st7" d="M190.5,416.7c3.8-0.6,7.4,5.9,8.8,9.3								c-8.2,9-8.3,39.2-11.5,67.8c-2.2,19.6-2,39-2.9,49.8c-2.3,2.4-2,5.5-4.4,4.6c-2.3-1-11.6,3-12.4,0.4								c-0.8-2.3,0.9,0.3-0.9-2.7c-1.5-2.7-2.3-2.6-2.2-3.8c2.1-12.2,3.8-52.4,10-83.1C178.4,441.8,186.7,422.9,190.5,416.7z"/>							<path id="path4941" sodipodi:nodetypes="ccccc" class="st7" d="M168.7,549.2c3.7-0.9,8.2-1.2,13-1.3								c0.8,28.6,8.4,32.6,14.7,54.2c-5,3-11.7,6.6-14.2,0.9C175.9,565.1,171.6,576.1,168.7,549.2z"/>						</g>						<g id="g4969">							<path id="path4945" sodipodi:nodetypes="cscccc" class="st6" d="M438.2,574.4c5.8-7.2,1.6-9.7,1.8-14.7								c0.1-2.9,4.3,0.3,4.3-1.5c5.6,4.7,7.8,10.2,9.1,15.8c-3.1-3.5-3.6-11.1-9.7-9.9C445.1,567.9,442.5,573.5,438.2,574.4z"/>							<path id="path4947" sodipodi:nodetypes="ccccc" class="st7" d="M427.3,544.6c3.9-1.2,2-2.5,6.6-1.2c4.7,2,5.9,5.2,10.6,10.9								c0.8,9.7-5.4,7.4-8.9,4.8C430.3,552.1,432.3,550.8,427.3,544.6z"/>							<path id="path4949" sodipodi:nodetypes="ccccc" class="st7" d="M417.6,537.3c3.5-2,1.4-2.9,6.2-2.6c5,0.9,6.9,3.8,12.7,8.3								c-2.1,2.1-6.8,3.8-7.6,6.6C422.2,544,423.8,542.3,417.6,537.3z"/>							<path id="path4951" sodipodi:nodetypes="ccccc" class="st7" d="M419.1,517.2c-3.5,2-4.8-1.7-7,2.6c-1.8,4.8,1.9,17.3,7.7,23								c5.8,0.8,1-6.5,8.4-10.6C423.1,524,420.3,525,419.1,517.2z"/>							<path id="path4953" sodipodi:nodetypes="ccccc" class="st7" d="M335.4,322.6c6.8-0.8,19.5-1.6,25.4,3.8								c1.6,6,2.2,11.6-4,14.9l-18.2-4C335.9,332.1,335.9,327.3,335.4,322.6z"/>							<path id="path4955" sodipodi:nodetypes="ccsccc" class="st7" d="M339.8,344.8c1-3.7-3.5-7.6,0.2-7.5								c2.7-0.3,18.5,0.3,17.1,3.5c-1.9,4.3-0.7,7.5,1.9,11c-1.2,3.6-0.2,4.8-8.7,0.8C345.4,349.6,344.4,347.3,339.8,344.8z"/>							<path id="path4959" sodipodi:nodetypes="ccsccc" class="st7" d="M473.2,484c2.6-10.5-4.3-12.7-8.3-9c-3.5,3.5-3.1,5.8-6.6,9								c-17.6,16.3-29.4,14.2-47.2,26.2c-2.1,6.1-1.9,10.4,9.3,12.2C445.6,509.1,454.2,502,473.2,484z"/>							<path id="path4957" sodipodi:nodetypes="ccscsczc" class="st7" d="M341.3,346.6c1-3.7,9.6-0.2,16.5,3								c10,21.7,31.2,42.5,45.5,57.5c15.2,15.8,68.5,58.1,67.7,61.2c-0.3,0.9,1.2,4.4-0.7,6.1c-1.8,1.7-9.4,8.8-12.1,8.5								c-29.5-24.6-63.7-55.9-86.1-84C349.7,371,344.1,353.9,341.3,346.6z"/>						</g>					</g>				</g>				<g id="g4811">					<path id="path4805" sodipodi:nodetypes="ccscssssccc" class="st8" d="M127.5,262.9c1.1,4.6,1.6,7.5,5.9,9.6						c1.6,9.1,7.3,6.4,9.7,3.7c0.7-0.7,3.1-7.1,11.4-5.1c-8.1-1.9-10.7,3.4-11.4,5.3c-2.5,7.1,10,5.6,14.5,1.1						c1.2-1.2,2.4-1.2,4-0.8c6.4,1.4,15.3,2.9,20.6,3.7c12.5,1.9,16.6,4.1,25.6,10.2c12.7-16.1-23.6-38.1-5.8-61.8						C157.5,253.1,142.5,241,127.5,262.9z"/>					<path id="path4807" sodipodi:nodetypes="cscsss" class="st9" d="M127.7,264c-5.5-14.2,18.8-18.3,43.5-26.3						c12.4-4,28.2-10,37.5-14.1c0,0,18.9,5.9-1.1,14.5c-18.2,7.8-52.7,8.9-65.5,15.2C135.7,256.5,128,264.7,127.7,264z"/>				</g>			</g>			<g id="g4847">				<path id="path4815" sodipodi:nodetypes="ccscc" class="st10" d="M203.6,249.8l-2-8.3c-6.8-9.9-21.4-1.2-22.2,6.7					c-1.1,10.4,14.5,21.2,19.1,10.9L203.6,249.8z"/>				<g id="g4839">					<path id="path4827" sodipodi:nodetypes="ccss" class="st8" d="M181,260.8c-8.1-3.8-12.6-2.9-15-1c-5.3,4.6-1.1,8.5,1.4,10.3						c5.6,4.2,14.4-2.8,19.8,5.8"/>					<path id="path4829" sodipodi:nodetypes="ccss" class="st8" d="M145.9,260c6.1,5,15.1,13.3,22.9,4.9						c-3.2-8.4-10.5-8.6-17.2-11.9C147.9,251.3,143.7,258.2,145.9,260z"/>					<path id="path4831" sodipodi:nodetypes="csss" class="st8" d="M129.9,246.7c6.4,4.9,17.2,13.2,20,9.4						c2.4-3.3-9.8-8.6-15.9-14.2C129.7,237.8,125.8,243.6,129.9,246.7z"/>					<path id="path4833" sodipodi:nodetypes="csss" class="st11" d="M113.1,230.4c6.7,5,15.4,17.4,18.3,13.6						c2.4-3.3-7-12.3-11.4-19.9C116,217.2,106.5,225.4,113.1,230.4z"/>					<path id="path4835" sodipodi:nodetypes="csss" class="st12" d="M101,218.5c7,5.3,12.4,11.9,15.2,8.1c2.4-3.3-2-7.4-6.9-14.9						C104.8,204.7,97.9,216.1,101,218.5z"/>					<path id="path4837" sodipodi:nodetypes="csss" class="st12" d="M78.1,212.8c9.6,1.8,24.8,8.8,27.2,0						c1.7-6.2-16.4-8.9-29.9-11.7C49.7,195.9,56.7,208.9,78.1,212.8z"/>				</g>			</g>		</g>		<g id="g4749">			<g id="g4639">				<g id="g4531">					<g id="g4424">						<g id="g4371">							<g id="g4554">								<g id="g4486">									<g id="g4453">										<g id="g3458">											<path id="path2473" sodipodi:nodetypes="cccsssc" class="st8" d="M367.6,331.7c-15.7-32.3,2.7-67,37.1-102.7												c77.4,13,154.6-13.9,232.1,41.1c-7.6,5.9-14.6,11-18.7,18.1c-3.3,5.7-3.4,13.4-10.2,17.9												c-33.6,22.1-85.3,37.4-123.4,42.2C450.9,352.5,376.5,355.5,367.6,331.7z"/>											<path id="path3446" sodipodi:nodetypes="csssc" class="st13" d="M398.4,347.7c3.7-5.2,9.7-9.1,13.5-14.1												c4.6-6,6.8-12.7,11.8-18.3c11.6-12.9,24.2-20.9,28.3-44.4c0.8-4.8,3.5-10.2,3.8-15.7"/>											<path id="path3448" sodipodi:nodetypes="csssc" class="st13" d="M442.9,350.7c3.7-5.2,7.1-10.4,10.9-15.4												c4.6-6,13.8-10.7,18.2-16.7c10-13.8,13.4-21.9,23.9-43.2c2.4-4.9,8.6-10.7,11.1-16.2"/>											<path id="path3450" sodipodi:nodetypes="csssc" class="st13" d="M485.1,348.1c3.7-5.2,6.4-10.7,10.2-15.6												c4.6-6,12-13.9,17.8-18.6c12.9-10.6,17.2-15.6,27.7-36.9c2.4-4.9,4.2-9.5,7.9-14.4"/>											<path id="path3452" sodipodi:nodetypes="csssc" class="st13" d="M533.6,337.5c3.7-5.2,6.4-10.7,10.2-15.6												c4.6-6,10.4-11.9,16.1-16.7c3.3-2.8,11.7-15.9,15.8-22.6c2.9-4.7,12.1-12.1,15.8-17"/>											<path id="path3454" sodipodi:nodetypes="csc" class="st13" d="M596,313.1c3.7-5.2,4.9-12.3,6.9-18.8												c1.5-4.8,2-10.4,18-24.8"/>											<path id="path3456" sodipodi:nodetypes="csc" class="st13" d="M369.3,333.6c6.1-2.3,20.1-20.8,23.3-26.2												c6.9-11.5,13-31.1,13.4-52.4"/>										</g>										<g id="g4446">											<path id="path3467" sodipodi:nodetypes="csss" class="st13" d="M424.6,270.2c-1.4-0.9-2.9,0.1-3.1,1.7												c-0.1,1,0.8,2.3,2.3,1.7C425.5,273,425.5,270.8,424.6,270.2z"/>											<path id="path4438" sodipodi:nodetypes="csss" class="st13" d="M472.2,275.6c-0.9-1.4-2.4,0.3-2.6,1.9												c-0.1,1,0.5,2.4,1.9,1.5C472.8,278.2,472.7,276.5,472.2,275.6z"/>											<path id="path4440" sodipodi:nodetypes="csss" class="st13" d="M515.6,275.7c-0.9-1.4-2.4,0.2-2.6,1.8												c-0.1,1,0.4,2.4,1.8,1.6C516,278.3,516.1,276.6,515.6,275.7z"/>											<path id="path4442" sodipodi:nodetypes="csss" class="st13" d="M557.6,280c-0.9-1.4-2.3,0.5-2.5,2.1												c-0.1,1,0.4,2.2,1.7,1.2C557.9,282.6,558.1,280.8,557.6,280z"/>											<path id="path4444" sodipodi:nodetypes="csss" class="st13" d="M589,283.3c-1.4-0.9-2.2,0.7-2.4,2.3												c-0.1,1,0.8,2.7,2,1.5C589.4,286.2,589.8,283.9,589,283.3z"/>										</g>									</g>									<g id="g4479">										<path id="path4469" sodipodi:nodetypes="ccccc" class="st14" d="M391.5,243.5c1.3,7.8,37.8,4.4,61.3,8.2											c1.7-6.3-1.4-10.7-4-15.3l-47.6-1.2L391.5,243.5z"/>										<path id="path4471" sodipodi:nodetypes="ccccc" class="st14" d="M458,251.1c10.1,2.8,22.1,1.8,45.3,3.6											c-2.1-5.9-2.9-8.9-5.5-13.5l-44.8-5.3C459.9,243.2,457.2,247.3,458,251.1z"/>										<path id="path4473" sodipodi:nodetypes="ccccc" class="st14" d="M507.2,254.2c11.7,0,19.4,2,42.6,3.8											c-2.1-5.9-14-13.9-16.6-18.4l-33.5-0.2C504.6,245.4,506.4,250.5,507.2,254.2z"/>										<path id="path4475" sodipodi:nodetypes="ccccc" class="st14" d="M554.1,257.7c10.8,1,12.8,2.1,36,3.9											c-2.1-5.9-18.1-14.2-20.7-18.7l-32.8-2.6C543.4,245.4,550.6,251.6,554.1,257.7z"/>										<path id="path4477" sodipodi:nodetypes="ccccc" class="st14" d="M593.5,260.7c10.8,1,25.5,4.5,31.5,6.2											c-2.1-5.9-18.4-11.7-26.1-14.8l-23.2-6.6C582.4,250.7,590,254.6,593.5,260.7z"/>									</g>								</g>								<g id="g4545">																			<linearGradient id="path4511_1_" gradientUnits="userSpaceOnUse" x1="173.9821" y1="-62.3702" x2="180.7321" y2="-54.8702" gradientTransform="matrix(0.6157 0.788 -0.788 0.6157 244.746 152.8709)">										<stop  offset="0" style="stop-color:#924927"/>										<stop  offset="1" style="stop-color:#804010;stop-opacity:0"/>									</linearGradient>									<path id="path4511" sodipodi:nodetypes="ccccc" class="st15" d="M395.1,262.6c2.8,2.4,5.3-2.5,8.1,0.6										c0.2-4.4,1.9-7.4,2.8-11.1c-3.3-0.2-6.6-0.5-9.7-2.6C396.3,252,395.4,257.4,395.1,262.6z"/>																			<linearGradient id="path4521_1_" gradientUnits="userSpaceOnUse" x1="151.8603" y1="-40.0286" x2="157.7353" y2="-34.7786" gradientTransform="matrix(0.6157 0.788 -0.788 0.6157 305.6518 160.1711)">										<stop  offset="0" style="stop-color:#924927"/>										<stop  offset="1" style="stop-color:#804010;stop-opacity:0"/>									</linearGradient>									<path id="path4521" sodipodi:nodetypes="cccscc" class="st16" d="M407.5,261.5c2.8,2.4,38.2,5.1,43.3,3.1										c1.5-3.6,3-5.3,3.9-9c-1.8-0.1-14.5-1.1-26.1-1.9c-10.2-0.7-20.3-1.1-21.7-2.1C407,254.1,407.8,256.3,407.5,261.5z"/>																			<linearGradient id="path4525_1_" gradientUnits="userSpaceOnUse" x1="117.6757" y1="-3.0084" x2="121.8007" y2="2.3666" gradientTransform="matrix(0.6157 0.788 -0.788 0.6157 405.8511 168.0214)">										<stop  offset="0" style="stop-color:#924927"/>										<stop  offset="1" style="stop-color:#804010;stop-opacity:0"/>									</linearGradient>									<path id="path4525" sodipodi:nodetypes="cccscc" class="st17" d="M457.6,265.4c2.8,2.4,34.5,4.7,39.7,2.7										c4.3-4,7-5.5,7.9-9.2c-1.8-0.1-14-0.8-25.6-1.6c-10.2-0.7-21.1-0.7-22.6-1.7C457.1,258,457.9,260.2,457.6,265.4z"/>																			<linearGradient id="path4529_1_" gradientUnits="userSpaceOnUse" x1="79.8237" y1="39.3597" x2="85.4487" y2="46.2347" gradientTransform="matrix(0.6157 0.788 -0.788 0.6157 509.4457 174.3294)">										<stop  offset="0" style="stop-color:#924927"/>										<stop  offset="1" style="stop-color:#804010;stop-opacity:0"/>									</linearGradient>									<path id="path4529" sodipodi:nodetypes="cccscc" class="st18" d="M509.4,268.6c2.8,2.4,27.4,1.9,32.6-0.1										c2.7-2.9,3.9-2.7,4.9-6.3c-1.8-0.1-4.1-0.9-16.2-1.3c-10.2-0.3-18.5-1.4-22.1-1.7C508.5,261.5,509.7,263.4,509.4,268.6z"/>																			<linearGradient id="path4533_1_" gradientUnits="userSpaceOnUse" x1="51.942" y1="69.4896" x2="55.567" y2="79.7396" gradientTransform="matrix(0.6157 0.788 -0.788 0.6157 593.3489 180.0008)">										<stop  offset="0" style="stop-color:#924927"/>										<stop  offset="1" style="stop-color:#804010;stop-opacity:0"/>									</linearGradient>									<path id="path4533" sodipodi:nodetypes="cccscc" class="st19" d="M551.4,271.4c2.8,2.4,25.4,1.9,30.6-0.1										c2.7-2.9,6-2.2,8.5-6c-1.8-0.1-5.6-1.3-17.8-1.6c-10.2-0.3-18.3-2.4-22.1-1.5C550.5,264.6,551.7,266.2,551.4,271.4z"/>																			<linearGradient id="path4537_1_" gradientUnits="userSpaceOnUse" x1="24.7638" y1="100.133" x2="26.0138" y2="110.633" gradientTransform="matrix(0.6157 0.788 -0.788 0.6157 672.2068 184.6964)">										<stop  offset="0" style="stop-color:#924927"/>										<stop  offset="1" style="stop-color:#804010;stop-opacity:0"/>									</linearGradient>									<path id="path4537" sodipodi:nodetypes="cccscc" class="st20" d="M590.8,273.8c2.8,2.4,14.3,6,19.5,4										c3.2-2.6,6.6-5.5,9.9-8.5c-1.8-0.1-8.4-2.1-14.2-3.2c-4-0.7-8.5-0.3-12.2-0.6C590.8,268.7,589.7,271.6,590.8,273.8z"/>																			<linearGradient id="path4541_1_" gradientUnits="userSpaceOnUse" x1="11.3641" y1="112.1085" x2="11.3846" y2="126.3585" gradientTransform="matrix(0.6157 0.788 -0.788 0.6157 709.4781 193.0129)">										<stop  offset="0" style="stop-color:#924927"/>										<stop  offset="1" style="stop-color:#804010;stop-opacity:0"/>									</linearGradient>									<path id="path4541" sodipodi:nodetypes="ccccc" class="st21" d="M611.4,281.9c2.8,2.4,1.7,2.7,6.9,0.7										c2.4-0.6,11.4-8,14.5-11.1c-4.6-1.4-2.8-0.4-10.5-0.7C622.2,273.1,611.8,276.7,611.4,281.9z"/>								</g>							</g>							<g id="g4318">								<g id="g4252">									<path id="path3279" sodipodi:nodetypes="cccssscsssc" class="st8" d="M294.4,224.2l58.6,11.3c2,34.1-12.7,57.9-28.3,85.6										c-2.2,0.8-7-0.3-9,0.4c-4.6,1.7-12.9,5.5-20.3-1.8c-6.2-6.1-11.9-9.1-18.3-9.1c-7.5-0.1-10.6-1.7-10.6-5.6										c2.1-20.6,1-31.1,4.6-38.6c0.8-1.6,5.3-9.1,6.4-13c1.5-5.4,5.9-11.3,7.5-14.2C286.3,237.1,293.8,227.3,294.4,224.2z"/>									<path id="path2308" sodipodi:nodetypes="ccscsscssc" class="st8" d="M336.5,236.4l60,2.9c-0.5,21.3-1.5,48.2-25.7,75.4										c-5.7,6.3,0.2,6.9-6.2,15.8c-2.2,0.8-3.5-1.6-5.2-0.3c-5.5,4.3-20.1,2.3-26.5-8c-1.8-3-6.3-0.5-7.8,0.8										c0.4-21.1-38.4-50.1,11-70.2c4-1.6,0.9-4,1.1-5.1C337.7,243.6,337.1,239.8,336.5,236.4z"/>									<path id="path3281" sodipodi:nodetypes="ccsscsscss" class="st8" d="M261.6,218.8c26-1,39.6,8.4,39.6,8.4										c-4,6.9-13.3,11.9-14.3,19.2c-3.1,22.8-7.7,25.8-15,38.9c-3.3,5.9-1.5,12.5-5.3,19.1c-5.8-0.5-8.3,2.3-12.1,5.2										c-5.4,4.1-19.2,0.1-30.4-10.8c-2.3-2.3-13-8.2-18.5-11.6c1.7-6.5-6.7-34.9-7.3-38.8C197.7,244.7,248.4,219.3,261.6,218.8z"										/>								</g>								<g id="g4309">									<path id="path4305" sodipodi:nodetypes="ccccc" class="st22" d="M290.4,238.7c0.1-2.3,5.5-7,11-11.1l94.8,12.5v8.9										C352.7,242.3,317.1,252.8,290.4,238.7z"/>									<path id="path4307" sodipodi:nodetypes="csc" class="st23" d="M199,249.6c3.3,1.4,32.8-18.7,44.8-20.8										c14.6-2.5,29.5,0,44.9,8.8"/>								</g>							</g>						</g>						<g id="g4414">							<g id="g4419">								<path id="path4299" sodipodi:nodetypes="ccccc" class="st24" d="M327.6,258.3c-15.2,9.4-13.5,30.7-4.1,50.8									c13.4,5.3,24.8,8.4,39.1-5.5c3-5,5.2-10.5,4.4-18.3C350.9,276.1,326.3,265,327.6,258.3z"/>								<path id="path4301" sodipodi:nodetypes="cscsss" class="st23" d="M331.8,306.3c-1.4-0.3-1.8-1.5-2.8-2									c-1.1-0.5-1.1-3.4-1.8-6.4c2.6-6.9-0.1-11.6,0.9-12c4.5-1.5,9.3,9.8,9.5,11.8C337.8,300,334.7,306.9,331.8,306.3z"/>								<path id="path4303" sodipodi:nodetypes="cccsc" class="st25" d="M327.4,263.7c0.1,7.7,0.1,15.4,2.6,22.4									c-2.7-1.4-2.4,0.5-2.3,3.9c2.3,1.7,5.4,0,2.5-4.1C328.2,283.3,327.1,271.5,327.4,263.7z"/>							</g>						</g>					</g>					<g id="g4335">						<path id="path4333" sodipodi:nodetypes="csccc" class="st26" d="M490.1,198.3c10.3-8.1,88.7,32.4,145.2,68.7							c11.6,7.5,13.1,6.4,19.6,9.4c-3.7,6.6-45.1-24.1-88.3-30.6L490.1,198.3z"/>						<path id="path4329" sodipodi:nodetypes="cccssssscc" class="st27" d="M296.7,224l28.6-24.3c10.7-4.7,109.5-9.5,167.5-2.3							c46.2,16.8,74.2,31.8,81.2,40.5c2.7,3.3,8.3,11.3,5.1,10.2c-2.2-0.8-7.7-2.4-19-3c-21.6-1-53.1-0.7-85.8-1							c-25-0.2-52.2,3.7-77.5,2.4c-40.6-2-77.1-10.3-96.6-17.9L296.7,224z"/>						<path id="path4331" sodipodi:nodetypes="cccsssc" class="st13" d="M461.4,196.5c-47.2,12-89.7,21.1-125.6,26l-33,0.9							c10,0.4,20.8-0.8,32.9,0.1c10.8,0.8,22.4,4.4,34.1,5.5c17.3,1.5,34.6,0.3,47.7-0.4c50.5-2.9,98-4.9,148.8,5.3"/>					</g>				</g>				<path id="path4584" sodipodi:nodetypes="ccsccsccc" class="st9" d="M315,208.1l9.2,0.3c18.6,3.5,42.4-3.4,62.4-6.8					c64.9-10.9,96.7-2.5,118.5-2.8c0.6-0.9,0.6-2.6-1.4-4.3c-24.1-4.5-49.2-1.5-87.9-12.5c-36.1-10.3-70.9-7.6-104.2-6l-5.4,0.1					L315,208.1z"/>			</g>			<path id="path4694" sodipodi:nodetypes="cccsccssc" class="st9" d="M312.4,174.7c7.6,6,20.3,23.8,12.3,33.6				c-6.6,7.5-13,3.6-24.3,20.5c-21.9-10.9-43.3-15.2-76,5.1c-7.7,4.8-16.1,4.6-26.5,13.5c11.7-13.8,18-24.3,0.2-20.1				c0,0,7.6-4.3,17.3-12c10.6-8.3,24.2-20.4,40.2-28.3C276.1,176.8,300.1,174.4,312.4,174.7z"/>		</g>	</g></g><g id="layer10" inkscape:groupmode="layer" inkscape:label="legenda">	<path id="path3366" sodipodi:nodetypes="cc" class="st28" d="M131.8,270.3L61,243"/>	<path id="path3369" sodipodi:nodetypes="cc" class="st28" d="M164.7,295.9L61,377.1"/>	<path id="path3371" sodipodi:nodetypes="cc" class="st28" d="M270.4,201.3l6.5-119.1"/>	<path id="path3373" sodipodi:nodetypes="cc" class="st28" d="M148.7,276.1L61,301.2"/>	<path id="path3375" sodipodi:nodetypes="cc" class="st28" d="M295.8,290.6l27.9-208.4"/>	<path id="path3377" sodipodi:nodetypes="cc" class="st28" d="M175.2,263L77.4,82.2"/>	<path id="path3381" sodipodi:nodetypes="cc" class="st28" d="M359.9,212.7l79.9-130.4"/>	<path id="path3383" sodipodi:nodetypes="cc" class="st28" d="M367.4,267L494.8,82.2"/>	<path id="path3385" sodipodi:nodetypes="cc" class="st28" d="M226.9,262.6l0.8-180.3"/>	<path id="path3387" sodipodi:nodetypes="cc" class="st28" d="M436.2,214.5L564.9,82.2"/>	<path id="path3389" sodipodi:nodetypes="cc" class="st28" d="M462.9,234.9L618.2,82.2"/>	<path id="path3391" sodipodi:nodetypes="cc" class="st28" d="M599.4,248.8l49.1-30.5"/>	<path id="path3393" sodipodi:nodetypes="ccc" class="st28" d="M497.6,248.4l150.9-121.2l-81.7,126.2"/>	<path id="path3395" sodipodi:nodetypes="cc" class="st28" d="M194.4,277.8L61,437"/>	<path id="path3397" sodipodi:nodetypes="cc" class="st28" d="M94.9,209.7L61,169.3"/>	<path id="path3399" sodipodi:nodetypes="cc" class="st28" d="M648.1,587.1L416,433.8"/>	<path id="path3401" sodipodi:nodetypes="ccc" class="st28" d="M483.4,329.3l165.1,73.9L526,326.7"/>	<path id="path3403" sodipodi:nodetypes="ccc" class="st28" d="M587.6,284.1l60.9,64.8L557,280.6"/>	<path id="path3405" sodipodi:nodetypes="cc" class="st28" d="M235.2,380.4l-76.4,216"/>	<path id="path3407" sodipodi:nodetypes="ccc" class="st28" d="M420.2,531l98.2,64.5l-81-45.7"/>	<path id="path3409" sodipodi:nodetypes="cc" class="st28" d="M350.8,341.6l297.7,198.2"/>	<path id="path3411" sodipodi:nodetypes="cc" class="st28" d="M357,334.8l291.6,159.1"/>	<path id="path3413" sodipodi:nodetypes="cc" class="st28" d="M140,82.2l50.7,164.4"/>	<text transform="matrix(1 -0.0087 0.0087 1 417.7957 633.881)" class="st29 st30">1</text>	<text transform="matrix(1 -0.0087 0.0087 1 518.4128 633.882)" class="st29 st30">2</text>	<text transform="matrix(1 -0.0087 0.0087 1 599.0624 633.8813)" class="st29 st30">3</text>	<text transform="matrix(1 -0.0087 0.0087 1 658.4648 604.7573)" class="st29 st30">4</text>	<text transform="matrix(1 -0.0087 0.0087 1 658.4637 558.741)" class="st29 st30">5</text>	<text transform="matrix(1 -0.0087 0.0087 1 658.4638 507.9539)" class="st29 st30">6</text>	<text transform="matrix(1 -0.0087 0.0087 1 190.9668 633.8809)" class="st29 st30">7</text>	<text transform="matrix(1 -0.0087 0.0087 1 121.9199 68.0612)" class="st29 st30">8</text>	<text transform="matrix(1 -0.0087 0.0087 1 31.0225 182.1871)" class="st29 st30">9</text>	<text transform="matrix(1 -0.0087 0.0087 1 8.1193 254.3722)" class="st29 st30">10</text>	<text transform="matrix(1 -0.0087 0.0087 1 8.1192 385.4016)" class="st29 st30">11</text>	<text transform="matrix(1 -0.0087 0.0087 1 8.1191 309.5188)" class="st29 st30">12</text>	<text transform="matrix(1 -0.0087 0.0087 1 48.4487 68.2614)" class="st29 st30">13</text>	<text transform="matrix(1 -0.0087 0.0087 1 7.9896 460.0813)" class="st29 st30">14</text>	<text transform="matrix(1 -0.0087 0.0087 1 121.9817 633.8813)" class="st29 st30">15</text>	<text transform="matrix(1 -0.0087 0.0087 1 191.7708 69.358)" class="st29 st30">16</text>	<text transform="matrix(1 -0.0087 0.0087 1 305.781 69.3582)" class="st29 st30">17</text>	<text transform="matrix(1 -0.0087 0.0087 1 245.4444 633.8811)" class="st29 st30">18</text>	<text transform="matrix(1 -0.0087 0.0087 1 311.5534 633.8813)" class="st29 st30">19</text>	<text transform="matrix(1 -0.0087 0.0087 1 490.709 69.3578)" class="st29 st30">20</text>	<text transform="matrix(1 -0.0087 0.0087 1 658.4639 419.1057)" class="st29 st30">21</text>	<text transform="matrix(1 -0.0087 0.0087 1 658.4642 359.3711)" class="st29 st30">22</text>	<text transform="matrix(1 -0.0087 0.0087 1 658.4648 132.7115)" class="st29 st30">23</text>	<text transform="matrix(1 -0.0087 0.0087 1 249.607 69.3582)" class="st29 st30">25</text>	<text transform="matrix(1 -0.0087 0.0087 1 98.4557 442.929)" class="st29 st30">A</text>	<text transform="matrix(1 -0.0087 0.0087 1 341.2232 442.9287)" class="st29 st30">B</text>	<text transform="matrix(1 -0.0087 0.0087 1 616.7757 442.9294)" class="st29 st30">C</text>	<path id="path11820" sodipodi:nodetypes="cc" class="st28" d="M345.6,187.7l39-105.4"/>	<text transform="matrix(1 -0.0087 0.0087 1 364.3331 69.358)" class="st29 st30">26</text>	<text transform="matrix(1 -0.0087 0.0087 1 428.9625 69.358)" class="st29 st30">27</text>	<text transform="matrix(1 -0.0087 0.0087 1 555.3013 69.3581)" class="st29 st30">28</text>	<text transform="matrix(1 -0.0087 0.0087 1 616.6493 69.3579)" class="st29 st30">29</text>	<text transform="matrix(1 -0.0087 0.0087 1 658.4645 227.1277)" class="st29 st30">30</text>	<path id="path7396" sodipodi:nodetypes="cc" class="st28" d="M593.1,596.4l-147.3-97.1"/>	<path id="path7398" sodipodi:nodetypes="cc" class="st28" d="M434.4,596.4l7.2-25.2"/>	<path id="path7400" sodipodi:nodetypes="cc" class="st28" d="M324.6,596.4l17.9-308.1"/>	<path id="path7402" sodipodi:nodetypes="cc" class="st28" d="M272.3,596.4l57.1-306.8"/>	<path id="path7404" sodipodi:nodetypes="cc" class="st28" d="M283.2,311.4l-73.5,285"/></g></svg>