<?xml version="1.0" encoding="utf-8"?><!-- Generator: Adobe Illustrator 24.0.3, SVG Export Plug-In . SVG Version: 6.00 Build 0)  --><svg version="1.1"	 id="svg6290" xmlns:cc="http://web.resource.org/cc/" xmlns:dc="http://purl.org/dc/elements/1.1/" xmlns:inkscape="http://www.inkscape.org/namespaces/inkscape" xmlns:rdf="http://www.w3.org/1999/02/22-rdf-syntax-ns#" xmlns:sodipodi="http://sodipodi.sourceforge.net/DTD/sodipodi-0.dtd" xmlns:svg="http://www.w3.org/2000/svg"	 xmlns="http://www.w3.org/2000/svg" xmlns:xlink="http://www.w3.org/1999/xlink" x="0px" y="0px" width="652px" height="708.7px"	 viewBox="0 0 652 708.7" style="enable-background:new 0 0 652 708.7;" xml:space="preserve"><style type="text/css">	.st0{fill:#EFE0DE;}	.st1{fill:#FFFFC3;}	.st2{fill:#D3FFFF;}	.st3{fill-rule:evenodd;clip-rule:evenodd;fill:#101513;stroke:#000000;}	.st4{fill-rule:evenodd;clip-rule:evenodd;fill:#E1F0A8;stroke:#000000;}	.st5{fill-rule:evenodd;clip-rule:evenodd;stroke:#000000;}	.st6{fill-rule:evenodd;clip-rule:evenodd;fill:#E1F0A8;stroke:#000000;stroke-width:1;stroke-miterlimit:4;}	.st7{fill-rule:evenodd;clip-rule:evenodd;fill:#020908;stroke:#000000;}	.st8{fill-rule:evenodd;clip-rule:evenodd;fill:url(#path8420_1_);}	.st9{fill-rule:evenodd;clip-rule:evenodd;fill:url(#path6376_1_);stroke:#000000;}	.st10{fill-rule:evenodd;clip-rule:evenodd;fill:url(#path8326_1_);stroke:#000000;}	.st11{fill-rule:evenodd;clip-rule:evenodd;fill:url(#path8328_1_);stroke:#000000;}	.st12{fill-rule:evenodd;clip-rule:evenodd;fill:url(#path8330_1_);stroke:#000000;}	.st13{fill-rule:evenodd;clip-rule:evenodd;fill:url(#path8332_1_);stroke:#000000;}	.st14{fill-rule:evenodd;clip-rule:evenodd;fill:url(#path8383_1_);stroke:#000000;}	.st15{fill-rule:evenodd;clip-rule:evenodd;fill:url(#path8385_1_);stroke:#000000;}	.st16{fill-rule:evenodd;clip-rule:evenodd;fill:url(#path8387_1_);stroke:#000000;}	.st17{fill-rule:evenodd;clip-rule:evenodd;fill:url(#path8389_1_);stroke:#000000;}	.st18{fill-rule:evenodd;clip-rule:evenodd;fill:url(#path8391_1_);stroke:#000000;}	.st19{fill-rule:evenodd;clip-rule:evenodd;fill:#424D45;stroke:#000000;}	.st20{fill-rule:evenodd;clip-rule:evenodd;fill:#A86440;stroke:#000000;stroke-width:1;stroke-miterlimit:4;}	.st21{fill-rule:evenodd;clip-rule:evenodd;fill:#60A860;stroke:#000000;}	.st22{fill-rule:evenodd;clip-rule:evenodd;fill:#1B2427;fill-opacity:0.4589;stroke:#000000;}	.st23{fill:none;stroke:#000000;stroke-width:0.5;}	.st24{fill-rule:evenodd;clip-rule:evenodd;fill:#325638;stroke:#000000;stroke-width:0.5;}	.st25{fill-rule:evenodd;clip-rule:evenodd;fill:#5AA85A;stroke:#000000;}	.st26{fill:none;stroke:#A80000;stroke-width:2;}	.st27{font-family:Liberation Sans, Arial, Sans-serif;}	.st28{font-size:36px;}</style><sodipodi:namedview  bordercolor="#666666" borderopacity="1.0" height="1400px" id="base" inkscape:current-layer="layer14" inkscape:cx="442.55745" inkscape:cy="677.88478" inkscape:document-units="px" inkscape:pageopacity="0.0" inkscape:pageshadow="2" inkscape:window-height="971" inkscape:window-width="1274" inkscape:window-x="0" inkscape:window-y="0" inkscape:zoom="0.5" pagecolor="#ffffff" width="1280px">	</sodipodi:namedview><g id="layer10" transform="translate(321.40591,96.70005)" inkscape:groupmode="layer" inkscape:label="sfondo">	<rect id="rect5293" x="-232.5" y="-33.6" class="st0" width="458.2" height="152.7"/>	<rect id="rect6274" x="-232.4" y="129.1" class="st1" width="458.1" height="163.9"/>	<rect id="rect6276" x="-232.1" y="300.5" class="st2" width="457.5" height="273.6"/></g><g id="layer13" transform="translate(321.40591,96.70005)" inkscape:groupmode="layer" inkscape:label="pronoto">	<g id="g11571" transform="translate(94,68)">		<g id="g11394">			<g id="g3724" transform="translate(-159.29066,-114.12929)">				<g id="g5273">					<g id="g5212">						<path id="path5210" sodipodi:nodetypes="cccccc" class="st3" d="M244.2,594.6c4.5,4.2,6.5,2.2,3.5,10.2							c2.8-3.5,5.8-5.9-0.2-10c3.7,0.4,6.2,0.6,8,10c1.1-9.6-2-11.9-6.5-13.5L244.2,594.6z"/>						<g id="g5199">							<g id="g5178">								<path id="path5172" sodipodi:nodetypes="ccscc" class="st4" d="M232.8,577.9c5.7,6.6,6.2,14,13.3,18.8									c2.5-1.6,6.7-3.4,4.3-8.7c-2.2-4.8-6.3-13.1-16.1-15.7C229,572.1,231.7,574.9,232.8,577.9z"/>								<path id="path5174" sodipodi:nodetypes="ccscc" class="st4" d="M220.6,567.7c8,4.9,5,6.3,11.3,12.3c2.5-1.6,4.5-2.7,2-8									c-2.2-4.8-3.3-4.3-9.6-9.9C219.1,561.9,219.5,564.7,220.6,567.7z"/>								<path id="path5176" sodipodi:nodetypes="ccscc" class="st4" d="M203.9,545.7c1.2,5.9,9.7,21,16.8,25.8c-0.5-6.3,8-3.7,5.5-9									c-2.2-4.8-15.8-16.6-16.8-24.2C204.1,538.2,202.8,542.7,203.9,545.7z"/>							</g>							<g id="g5193">								<path id="path5164" sodipodi:nodetypes="ccccc" class="st4" d="M87.9,336.8c3.6-1.2,7.2-0.8,11.5-2c3.2-6.4,1.9-14.6-4.2-21									c-7.6,2-20-1.2-21.8,9.8L87.9,336.8z"/>								<path id="path5166" sodipodi:nodetypes="cccc" class="st4" d="M69.6,338.8c5.8,11,22.9-1.5,18.5-1.8									c1.5-6.2-9.4-13.3-14.2-13.5C66.2,326.2,67.5,332.3,69.6,338.8z"/>								<path id="path5170" sodipodi:nodetypes="ccssssscc" class="st4" d="M259.4,380.5c-12.4-1-7.1,3.7-6.2,7									c2.5,9.2-10.9,47-11.6,52.5c-2,14.7-33,88.2-42,102.2c-2.2,3.4,3.1-0.2,5.8-0.3c4-0.1,7.8,4.8,9,3.8									c0.9-0.7,11.9-29.6,22.2-60.9c12-36.7,23.4-76.7,24.6-77.7C269.7,393.6,259.3,377.5,259.4,380.5z"/>								<path id="path5168" sodipodi:nodetypes="ccssssscc" class="st4" d="M69.2,339.4c5.8,11,7.4,16.5,34.5,17									c4.3-4.5,62.2,13.4,103.4,24.3c21.1,5.6,37.6,7,40.6,7.5c12.9,2.2,17.7-17.3-0.2-21.1c-1.5-0.3-18.7-3.4-41.5-9.6									c-15.2-4.1-33-10.9-50-14.1c-34.7-6.5-67-6-68-6C79,334.8,69,336.4,69.2,339.4z"/>							</g>						</g>					</g>					<g id="g5249" transform="matrix(-1,0,0,1,783.61738,-1.0199472e-5)">						<path id="path5251" sodipodi:nodetypes="cccccc" class="st3" d="M900.1,594.6c4.5,4.2,6.5,2.2,3.5,10.2							c2.8-3.5,5.8-5.9-0.2-10c3.7,0.4,6.2,0.6,8,10c1.1-9.6-2-11.9-6.5-13.5L900.1,594.6z"/>						<g id="g5253">							<g id="g5255">								<path id="path5257" sodipodi:nodetypes="ccscc" class="st4" d="M888.7,577.9c5.7,6.6,6.2,14,13.3,18.8									c2.5-1.6,6.7-3.4,4.3-8.7c-2.2-4.8-6.3-13.1-16.1-15.7C884.9,572.1,887.6,574.9,888.7,577.9z"/>								<path id="path5259" sodipodi:nodetypes="ccscc" class="st4" d="M876.6,567.7c8,4.9,5,6.3,11.3,12.3c2.5-1.6,4.5-2.7,2-8									c-2.2-4.8-3.3-4.3-9.6-9.9C875,561.9,875.5,564.7,876.6,567.7z"/>								<path id="path5261" sodipodi:nodetypes="ccscc" class="st4" d="M859.8,545.7c1.2,5.9,9.7,21,16.8,25.8c-0.5-6.3,8-3.7,5.5-9									c-2.2-4.8-15.8-16.6-16.8-24.2C860,538.2,858.7,542.7,859.8,545.7z"/>							</g>							<g id="g5263">								<path id="path5265" sodipodi:nodetypes="ccccc" class="st4" d="M743.9,336.8c3.6-1.2,7.2-0.8,11.5-2									c3.2-6.4,1.9-14.6-4.2-21c-7.6,2-20-1.2-21.8,9.8L743.9,336.8z"/>								<path id="path5267" sodipodi:nodetypes="cccc" class="st4" d="M725.5,338.8c5.8,11,22.9-1.5,18.5-1.8									c1.5-6.2-9.4-13.3-14.2-13.5C722.1,326.2,723.4,332.3,725.5,338.8z"/>								<path id="path5269" sodipodi:nodetypes="ccssssscc" class="st4" d="M915.4,380.5c-12.4-1-7.1,3.7-6.2,7									c2.5,9.2-10.9,47-11.6,52.5c-2,14.7-33,88.2-42,102.2c-2.2,3.4,3.1-0.2,5.8-0.3c4-0.1,7.8,4.8,9,3.8									c0.9-0.7,11.9-29.6,22.2-60.9c12-36.7,23.4-76.7,24.6-77.7C925.7,393.6,915.2,377.5,915.4,380.5z"/>								<path id="path5271" sodipodi:nodetypes="ccssssscc" class="st4" d="M725.1,339.4c5.8,11,7.4,16.5,34.5,17									c4.3-4.5,62.2,13.4,103.4,24.3c21.1,5.6,37.6,7,40.6,7.5c12.9,2.2,17.7-17.3-0.2-21.1c-1.5-0.3-18.7-3.4-41.5-9.6									c-15.2-4.1-33-10.9-50-14.1c-34.7-6.5-67-6-68-6C734.9,334.8,724.9,336.4,725.1,339.4z"/>							</g>						</g>					</g>				</g>				<g id="g9358">					<g id="g7276">						<g id="g6295" transform="matrix(-0.3850432,-0.9228986,0.9228986,-0.3850432,181.49223,1589.5025)">							<path id="path5227" sodipodi:nodetypes="cccccc" class="st5" d="M1192,652.3c0.7,4.9,0.9,6.8-3.4,11.8								c5.1-1.6,5.1-3.7,5.6-7.9c5.7,3.3,6.2,5.4,1.7,12.2c7.4-3.7,5-12.6,0.5-14.2L1192,652.3z"/>							<path id="path5233" sodipodi:nodetypes="ccscc" class="st4" d="M1186.9,643c3.3,3.7,0.1,5,6.5,14.3c2.5-1.6,9-2.1,6.6-7.4								c-2.2-4.8-5.5-11-9.2-10.1C1185.6,639.6,1185.8,640,1186.9,643z"/>							<path id="path5235" sodipodi:nodetypes="ccscc" class="st4" d="M1176.1,633.4c8,4.9,3.5,4.3,9.8,10.4								c2.5-1.6,8.7-0.9,6.3-6.2c-2.2-4.8-5.7-5.5-12-11.1C1174.9,626.2,1175,630.3,1176.1,633.4z"/>							<path id="path5237" sodipodi:nodetypes="ccsscc" class="st4" d="M1162.4,612.8c1.2,5.9,6.2,14.4,14.3,22								c2.6-4.1,6.5-5.1,4-10.4c-1.4-3-7.5-8.4-12.2-12.9c-2.1-2,3.1-4.4,2.7-7.3C1163.4,601.8,1161.3,609.8,1162.4,612.8z"/>						</g>						<g id="g7270">							<path id="path5241" sodipodi:nodetypes="ccccc" class="st4" d="M83.3,299.2c3.6-2.1,7.2-2.6,11.5-4.8								c3.2-7.2,0.5-15.8-5.7-20.7c-10.1,1.1-25.3,8.3-15.7,19.4L83.3,299.2z"/>							<path id="path5243" sodipodi:nodetypes="cccc" class="st4" d="M71.5,301.7c5.8,11,17.6-1.2,16.4-4.9								c1.5-6.2-12.2-8.7-17.1-8.9C67.9,291.4,69.4,295.2,71.5,301.7z"/>							<path id="path5245" sodipodi:nodetypes="ccssssscc" class="st6" d="M199.7,213.5c-0.5,5.9-2.2,2.5,0,6.3								c10.2,3.6,28.4,17.3,32.7,20.8c11.9,9.6,53.3,43.4,56.8,44.7c2,0.7,2.5-3.2,3.2-5.9c1-3.9,3.6-2.7,3.2-4.2								c-0.3-1.1-17.1-11-26.9-18.7c-30.4-23.7-42.5-33.4-43.2-34.8C214.6,210,199.9,211.4,199.7,213.5z"/>							<path id="path5247" sodipodi:nodetypes="csccscc" class="st4" d="M72.5,304.1c5.8,11,21.6,9.4,33.8-1.7								c23.5-21.4,77.3-61.4,93.1-78.5c1.8-5.2,5-10.3,0.1-11.9c-14.3-6.6-31.6,13.7-61,40.3c-15.5,14-35.5,27.9-50.3,44.9								C80.2,303.9,72.4,301.1,72.5,304.1z"/>						</g>					</g>					<g id="g7376" transform="matrix(-1,0,0,1,778.58132,1.7694102)">						<g id="g7378" transform="matrix(-0.3850432,-0.9228986,0.9228986,-0.3850432,181.49223,1589.5025)">							<path id="path7380" sodipodi:nodetypes="cccccc" class="st5" d="M941.3,1255.7c0.7,4.9,0.9,6.8-3.4,11.8								c5.1-1.6,5.1-3.7,5.6-7.9c5.7,3.3,6.2,5.4,1.7,12.2c7.4-3.7,5-12.6,0.5-14.2L941.3,1255.7z"/>							<path id="path7382" sodipodi:nodetypes="ccscc" class="st4" d="M936.2,1246.4c3.3,3.7,0.1,5,6.5,14.3c2.5-1.6,9-2.1,6.6-7.4								c-2.2-4.8-5.5-11-9.2-10.1C934.8,1243,935.1,1243.4,936.2,1246.4z"/>							<path id="path7384" sodipodi:nodetypes="ccscc" class="st4" d="M925.3,1236.7c8,4.9,3.5,4.3,9.8,10.4								c2.5-1.6,8.7-0.9,6.3-6.2c-2.2-4.8-5.7-5.5-12-11.1C924.1,1229.6,924.2,1233.7,925.3,1236.7z"/>							<path id="path7386" sodipodi:nodetypes="ccsscc" class="st4" d="M911.6,1216.2c1.2,5.9,6.2,14.4,14.3,22								c2.6-4.1,6.5-5.1,4-10.4c-1.4-3-7.5-8.4-12.2-12.9c-2.1-2,3.1-4.4,2.7-7.3C912.7,1205.2,910.5,1213.2,911.6,1216.2z"/>						</g>						<g id="g7388">							<path id="path7390" sodipodi:nodetypes="ccccc" class="st4" d="M736.7,298.3c3.6-2.1,7.2-2.6,11.5-4.8								c3.2-7.2,0.5-15.8-5.7-20.7c-10.1,1.1-25.3,8.3-15.7,19.4L736.7,298.3z"/>							<path id="path7392" sodipodi:nodetypes="cccc" class="st4" d="M724.9,300.9c5.8,11,17.6-1.2,16.4-4.9								c1.5-6.2-12.2-8.7-17.1-8.9C721.3,290.5,722.8,294.3,724.9,300.9z"/>							<path id="path7394" sodipodi:nodetypes="ccssssscc" class="st6" d="M853.1,212.6c-0.5,5.9-2.2,2.5,0,6.3								c10.2,3.6,28.4,17.3,32.7,20.8c11.9,9.6,53.3,43.4,56.8,44.7c2,0.7,2.5-3.2,3.2-5.9c1-3.9,3.6-2.7,3.2-4.2								c-0.3-1.1-17.1-11-26.9-18.7c-30.4-23.7-42.5-33.4-43.2-34.8C868,209.1,853.3,210.6,853.1,212.6z"/>							<path id="path7396" sodipodi:nodetypes="csccscc" class="st4" d="M725.9,303.2c5.8,11,21.6,9.4,33.8-1.7								c23.5-21.4,77.3-61.4,93.1-78.5c1.8-5.2,5-10.3,0.1-11.9c-14.3-6.6-31.6,13.7-61,40.3c-15.5,14-35.5,27.9-50.3,44.9								C733.6,303,725.8,300.2,725.9,303.2z"/>						</g>					</g>				</g>				<g id="g9382">					<g id="g7288" transform="translate(-7.8349315,-132.58088)">						<g id="g7290" transform="matrix(-0.3850432,-0.9228986,0.9228986,-0.3850432,181.49223,1589.5025)">							<path id="path7292" sodipodi:nodetypes="cssscscsccc" class="st7" d="M1186.8,631.4c-0.4,0.6-0.7,1.2-2.4,1.9								c-0.9,0.4-1.4,0.8-2.1,1.5c-0.6,0.6-0.5,1.9-0.9,2.6c-1.2,2.1-2.7,1.9-2.8,4.9c2.4-3,4.4-4.7,5.8-5.7c1.7-1.2,2.7-1.4,3.7-2								c2,1.1,2.4,3.4,3.9,3.3c2.7-0.2,1.9,2.6,1.6,6.2c2.5-5.2,0.8-9.4-3.7-11L1186.8,631.4z"/>							<path id="path7294" sodipodi:nodetypes="cscc" class="st4" d="M1186.2,633.1c3,0.9,2.4,3.2,5.7-1.6								c3.4-5.1,2.1-12.6-1.6-11.7C1181.2,619.6,1183.7,629.5,1186.2,633.1z"/>							<path id="path7296" sodipodi:nodetypes="ccscc" class="st4" d="M1186,608.8c-2.3,4.2-3.2,8-0.5,12c2.5-1.6,4.9,4,7.1-1.4								c1.6-3.8,0.8-5.5-0.2-9C1187.2,610.1,1189.8,608,1186,608.8z"/>							<path id="path7298" sodipodi:nodetypes="ccsscc" class="st4" d="M1185,592.6c-1.3,4.6-3,11.7-1.1,18.2								c4.1-1.6,11.3,2.4,11.4-3.4c0.1-4.3-1.6-7.5-4.7-13.4c-1.4-2.7,2.2-1.5,1.9-4.4C1184.7,587.2,1183.9,589.6,1185,592.6z"/>						</g>						<g id="g7300">							<path id="path7302" sodipodi:nodetypes="ccccc" class="st4" d="M87.2,365.5c3.6-2.1,3.8-6.3,8.1-8.5								c1.3-7.6-3.8-12.9-8.1-13.6c-6.6,0.7-14.2,6.6-9.9,16L87.2,365.5z"/>							<path id="path7304" sodipodi:nodetypes="cccc" class="st4" d="M79,367c7.6,5,13.9-2.9,12.7-6.7c1.5-6.2-9.7-8-14.6-8.2								C74.1,355.5,72.9,364.2,79,367z"/>							<path id="path7306" sodipodi:nodetypes="ccsssssssc" class="st6" d="M195.8,318.5c-0.5,5.9,2.6,7.1,4.8,10.9								c12-3.7,27.7-22.3,30.6-26.8c8.4-12.8,38.1-26.4,42.6-31.5c1.4-1.6-6.7-5.7-6-8.4c1-3.9,0.8-5.5,0.4-7								c-0.3-1.1-17.6,13.5-26.4,22.3c-12.8,12.9-21.3,22.5-26.6,28c-5.4,5.5-11.3,9.4-15.1,11C197.5,318.2,195.9,317.7,195.8,318.5								z"/>							<path id="path7308" sodipodi:nodetypes="cssccsscc" class="st4" d="M78.4,367.2c10.8,5.4,19.3,0.3,26.5-2.3								c21-7.3,47.4-15.3,69.8-23.1c9.4-3.3,21.6-7.5,26.3-12.6c-0.5-6.3-3-7.3-5.2-12.1c-7.2-1.1-15.7,3.6-42.8,13.2								c-12,4.3-21.9,9.5-37.9,16.7c-11,5-18.9,6.4-23.9,12.1C83.2,365.9,78.2,364.2,78.4,367.2z"/>						</g>					</g>					<g id="g9336" transform="matrix(-1,0,0,1,775.85364,-130.90134)">						<g id="g9338" transform="matrix(-0.3850432,-0.9228986,0.9228986,-0.3850432,181.49223,1589.5025)">							<path id="path9340" sodipodi:nodetypes="cssscscsccc" class="st7" d="M938,1229.9c-0.4,0.6-0.7,1.2-2.4,1.9								c-0.9,0.4-1.4,0.8-2.1,1.5c-0.6,0.6-0.5,1.9-0.9,2.6c-1.2,2.1-2.7,1.9-2.8,4.9c2.4-3,4.4-4.7,5.8-5.7c1.7-1.2,2.7-1.4,3.7-2								c2,1.1,2.4,3.4,3.9,3.3c2.7-0.2,1.9,2.6,1.6,6.2c2.5-5.2,0.8-9.4-3.7-11L938,1229.9z"/>							<path id="path9342" sodipodi:nodetypes="cscc" class="st4" d="M937.4,1231.5c3,0.9,2.4,3.2,5.7-1.6								c3.4-5.1,2.1-12.6-1.6-11.7C932.5,1218.1,934.9,1228,937.4,1231.5z"/>							<path id="path9344" sodipodi:nodetypes="ccscc" class="st4" d="M937.2,1207.3c-2.3,4.2-3.2,8-0.5,12c2.5-1.6,4.9,4,7.1-1.4								c1.6-3.8,0.8-5.5-0.2-9C938.4,1208.6,941.1,1206.5,937.2,1207.3z"/>							<path id="path9346" sodipodi:nodetypes="ccsscc" class="st4" d="M936.2,1191.1c-1.3,4.6-3,11.7-1.1,18.2								c4.1-1.6,11.3,2.4,11.4-3.4c0.1-4.3-1.6-7.5-4.7-13.4c-1.4-2.7,2.2-1.5,1.9-4.4C935.9,1185.7,935.1,1188.1,936.2,1191.1z"/>						</g>						<g id="g9348">							<path id="path9350" sodipodi:nodetypes="ccccc" class="st4" d="M735.4,364.7c3.6-2.1,3.8-6.3,8.1-8.5								c1.3-7.6-3.8-12.9-8.1-13.6c-6.6,0.7-14.2,6.6-9.9,16L735.4,364.7z"/>							<path id="path9352" sodipodi:nodetypes="cccc" class="st4" d="M727.1,366.1c7.6,5,13.9-2.9,12.7-6.7c1.5-6.2-9.7-8-14.6-8.2								C722.2,354.7,721.1,363.3,727.1,366.1z"/>							<path id="path9354" sodipodi:nodetypes="ccsssssssc" class="st6" d="M843.9,317.7c-0.5,5.9,2.6,7.1,4.8,10.9								c12-3.7,27.7-22.3,30.6-26.8c8.4-12.8,38.1-26.4,42.6-31.5c1.4-1.6-6.7-5.7-6-8.4c1-3.9,0.8-5.5,0.4-7								c-0.3-1.1-17.6,13.5-26.4,22.3c-12.8,12.9-21.3,22.5-26.6,28c-5.4,5.5-11.3,9.4-15.1,11C845.6,317.4,844,316.9,843.9,317.7z"								/>							<path id="path9356" sodipodi:nodetypes="cssccsscc" class="st4" d="M726.5,366.4c10.8,5.4,19.3,0.3,26.5-2.3								c21-7.3,47.4-15.3,69.8-23.1c9.4-3.3,21.6-7.5,26.3-12.6c-0.5-6.3-3-7.3-5.2-12.1c-7.2-1.1-15.7,3.6-42.8,13.2								c-12,4.3-21.9,9.5-37.9,16.7c-11,5-18.9,6.4-23.9,12.1C731.3,365.1,726.3,363.4,726.5,366.4z"/>						</g>					</g>				</g>			</g>			<g id="g8436">									<linearGradient id="path8420_1_" gradientUnits="userSpaceOnUse" x1="-514.056" y1="936.8776" x2="-514.056" y2="709.0882" gradientTransform="matrix(1 0 0 -1 415.4059 1235.2999)">					<stop  offset="0" style="stop-color:#42B545"/>					<stop  offset="1" style="stop-color:#804845"/>				</linearGradient>				<path id="path8420" sodipodi:nodetypes="cccsssssc" class="st8" d="M-174.8,380.4l76.3-84.3l77.3,82.8					c-0.3,47.8-28.8,68.9-47,80.2c-11.4,7.1-1.2,16.9-15.2,20.3c-7.9,1.9-9.8-16.3-15-16.4c-5.6-0.1-4,17.3-12.1,15.4					c-15.8-3.7-3.2-10.9-15.9-19.5C-146.5,445.3-183,417.9-174.8,380.4z"/>				<g id="g8403">					<g id="g8374">													<linearGradient id="path6376_1_" gradientUnits="userSpaceOnUse" x1="-586.1636" y1="789.756" x2="-571.0215" y2="802.3828" gradientTransform="matrix(1 0 0 -1 415.4059 1235.2999)">							<stop  offset="0" style="stop-color:#42B545"/>							<stop  offset="1" style="stop-color:#421F45"/>						</linearGradient>						<path id="path6376" sodipodi:nodetypes="ccscc" class="st9" d="M-169.8,411.7l31.8,39.4c0,0-16.5,14.4-18.7,12.1							c-10.6-10.6-24.7-23.7-29.8-35.9L-169.8,411.7z"/>													<linearGradient id="path8326_1_" gradientUnits="userSpaceOnUse" x1="-567.5277" y1="748.3482" x2="-550.3653" y2="759.4599" gradientTransform="matrix(1 0 0 -1 369.949 1155.2625)">							<stop  offset="0" style="stop-color:#42B545"/>							<stop  offset="1" style="stop-color:#421F45"/>						</linearGradient>						<path id="path8326" sodipodi:nodetypes="ccscc" class="st10" d="M-192.5,371.7l26.3,44.7c0,0-18.2,17.8-20.2,15.4							c-9.6-11.4-22.7-35.3-27.8-47.5L-192.5,371.7z"/>													<linearGradient id="path8328_1_" gradientUnits="userSpaceOnUse" x1="-556.8956" y1="702.3854" x2="-533.9249" y2="711.4767" gradientTransform="matrix(1 0 0 -1 330.5531 1066.8854)">							<stop  offset="0" style="stop-color:#42B545"/>							<stop  offset="1" style="stop-color:#421F45"/>						</linearGradient>						<path id="path8328" sodipodi:nodetypes="ccscc" class="st11" d="M-210.9,330.1l20,45.5c0,0-20.9,16.3-23,13.9							c-9.6-11.4-17.9-43.9-19.2-52.8L-210.9,330.1z"/>													<linearGradient id="path8330_1_" gradientUnits="userSpaceOnUse" x1="-567.8798" y1="616.9714" x2="-536.5752" y2="625.0526" gradientTransform="matrix(1 0 0 -1 321.7143 935.2941)">							<stop  offset="0" style="stop-color:#42B545"/>							<stop  offset="1" style="stop-color:#421F45"/>						</linearGradient>						<path id="path8330" sodipodi:nodetypes="ccscc" class="st12" d="M-222.2,285.2l13.4,49c0,0-25.2,11.2-26.5,8.3							c-6.1-13.1-8.6-42.9-9.3-52.8L-222.2,285.2z"/>													<linearGradient id="path8332_1_" gradientUnits="userSpaceOnUse" x1="-563.5353" y1="614.7054" x2="-536.9603" y2="614.7054" gradientTransform="matrix(1 0 0 -1 314.8958 883.0459)">							<stop  offset="0" style="stop-color:#42B545"/>							<stop  offset="1" style="stop-color:#421F45"/>						</linearGradient>						<path id="path8332" sodipodi:nodetypes="ccscc" class="st13" d="M-215.5,243.7l-4.8,44.7c0,0-26,6.8-26.8,3.8							c-4.1-15.9,4.3-44.1,8.6-48.2L-215.5,243.7z"/>					</g>					<g id="g8381" transform="matrix(-0.99918,4.0488087e-2,4.0488087e-2,0.99918,415.73162,-4.7438355)">													<linearGradient id="path8383_1_" gradientUnits="userSpaceOnUse" x1="-567.1453" y1="852.4656" x2="-552.0032" y2="865.0925" gradientTransform="matrix(-0.9992 -4.048809e-02 4.048809e-02 -0.9992 -143.4509 1259.7815)">							<stop  offset="0" style="stop-color:#42B545"/>							<stop  offset="1" style="stop-color:#421F45"/>						</linearGradient>						<path id="path8383" sodipodi:nodetypes="ccscc" class="st14" d="M458.7,397.2l31.8,39.4c0,0-16.5,14.4-18.7,12.1							c-10.6-10.6-24.7-23.7-29.8-35.9L458.7,397.2z"/>													<linearGradient id="path8385_1_" gradientUnits="userSpaceOnUse" x1="-587.4425" y1="811.8463" x2="-570.2801" y2="822.958" gradientTransform="matrix(-0.9992 -4.048809e-02 4.048809e-02 -0.9992 -188.9077 1179.744)">							<stop  offset="0" style="stop-color:#42B545"/>							<stop  offset="1" style="stop-color:#421F45"/>						</linearGradient>						<path id="path8385" sodipodi:nodetypes="ccscc" class="st15" d="M436,357.2l26.3,44.7c0,0-18.2,17.8-20.2,15.4							c-9.6-11.4-22.7-35.3-27.8-47.5L436,357.2z"/>													<linearGradient id="path8387_1_" gradientUnits="userSpaceOnUse" x1="-599.9268" y1="766.3516" x2="-576.9559" y2="775.443" gradientTransform="matrix(-0.9992 -4.048809e-02 4.048809e-02 -0.9992 -228.3037 1091.3669)">							<stop  offset="0" style="stop-color:#42B545"/>							<stop  offset="1" style="stop-color:#421F45"/>						</linearGradient>						<path id="path8387" sodipodi:nodetypes="ccscc" class="st16" d="M417.6,315.5l20,45.5c0,0-20.9,16.3-23,13.9							c-9.6-11.4-17.9-43.9-19.2-52.8L417.6,315.5z"/>													<linearGradient id="path8389_1_" gradientUnits="userSpaceOnUse" x1="-592.4099" y1="680.5629" x2="-561.1053" y2="688.6442" gradientTransform="matrix(-0.9992 -4.048809e-02 4.048809e-02 -0.9992 -237.1425 959.7756)">							<stop  offset="0" style="stop-color:#42B545"/>							<stop  offset="1" style="stop-color:#421F45"/>						</linearGradient>						<path id="path8389" sodipodi:nodetypes="ccscc" class="st17" d="M406.3,270.7l13.4,49c0,0-25.2,11.2-26.5,8.3							c-6.1-13.1-8.6-42.9-9.3-52.8L406.3,270.7z"/>													<linearGradient id="path8391_1_" gradientUnits="userSpaceOnUse" x1="-596.8426" y1="678.4748" x2="-570.2676" y2="678.4748" gradientTransform="matrix(-0.9992 -4.048809e-02 4.048809e-02 -0.9992 -243.961 907.5275)">							<stop  offset="0" style="stop-color:#42B545"/>							<stop  offset="1" style="stop-color:#421F45"/>						</linearGradient>						<path id="path8391" sodipodi:nodetypes="ccscc" class="st18" d="M413,229.1l-4.8,44.7c0,0-26,6.8-26.8,3.8							c-4.1-15.9,4.3-44.1,8.6-48.2L413,229.1z"/>					</g>				</g>			</g>		</g>		<g id="g11265">			<g id="g11228">				<path id="path9744" sodipodi:nodetypes="cscsc" class="st19" d="M-109.2,42.3c0,0-48.9-21.8-49,1.5c-0.1,24.3,48.5,8,48.5,8					s55.4,13.4,54-9.5C-57.2,18.1-109.2,42.3-109.2,42.3z"/>				<g id="g3295" transform="matrix(0.9996016,2.8224477e-2,-2.8224477e-2,0.9996016,-167.4738,-140.31315)">					<g id="g3259">						<path id="path2270" sodipodi:nodetypes="cscss" class="st20" d="M276.3,23.8c-1.9-4.5-17,2.7-32,9.2							c-15.1,6.5-21.6,10.4-27.9,17.8c10.2-0.2,18.8-4.9,31.5-10.2C260.4,35.3,277.9,27.5,276.3,23.8z"/>						<path id="path3243" sodipodi:nodetypes="csscsss" class="st20" d="M217,49.8c-2.8-4.4-3.3-1.5-17.6,6.5							c-11.1,6.2-20.4,13.2-27,20c-2,2-4.2,4.5-5.5,6.3c2.1-0.2,4.6-2.4,7-3.3c9-3.8,19.2-10.7,28.7-16							C214.7,56.8,220.3,55,217,49.8z"/>						<path id="path3245" sodipodi:nodetypes="cscss" class="st4" d="M168.4,81.7c-2.8-4.3-5.8-2.7-18.1,8.1							c-10.2,8.9-14.4,9.3-21.3,19.5c11.2-1,14.1-7.3,25.6-15.3C165.8,86.3,171.8,86.9,168.4,81.7z"/>						<path id="path3247" sodipodi:nodetypes="cscss" class="st4" d="M131.2,108.6c-3.3-4-6-2.1-17.1,10c-9.1,10-8.4,7.7-14.1,18.6							c3.1,4.3,8.3-5.6,18.9-14.9C129.1,113.4,135.1,113.4,131.2,108.6z"/>						<path id="path3257" sodipodi:nodetypes="csss" class="st4" d="M90.6,174.3c-10.2-14.5-2.6-24.5,0.7-24.2							c4.6,0.4,5.9,15.5,8.3,19.7c2,3.6,0.5,7.5-2.5,7.4"/>						<path id="path3255" sodipodi:nodetypes="cssss" class="st4" d="M100.7,137.2c-3-1.8-8.6,2.4-10.6,6.9							c-1.9,4.3-5,12.3,0.7,15.9c3.2,2.1,6.3-1.5,9.6-9.6C105.6,137.8,103.2,138.6,100.7,137.2z"/>					</g>					<g id="g3287">						<path id="path3269" sodipodi:nodetypes="cscss" class="st20" d="M-154,45.9c1.9-4.5,17,2.7,32,9.2							c15.1,6.5,21.6,10.4,27.9,17.8c-10.2-0.2-18.8-4.9-31.5-10.2C-138.1,57.4-155.6,49.7-154,45.9z"/>						<path id="path3271" sodipodi:nodetypes="csscsss" class="st20" d="M-95.4,71.5c2.2-4.7,3.1-1.9,18.3,4.3							c11.7,4.8,21.9,10.7,29.2,16.6c2.2,1.8,4.7,3.9,6.2,5.6c-2.1,0-4.9-1.8-7.3-2.5c-9.4-2.7-20.3-8.4-30.5-12.4							C-92.2,78.2-98.1,77.1-95.4,71.5z"/>						<path id="path3273" sodipodi:nodetypes="cscss" class="st4" d="M-44.4,96.1c2.3-4.6,5.4-3.4,18.9,6.1							c11.1,7.8,15.4,7.6,23.3,17.1c-11.3,0.3-14.8-5.7-27.1-12.4C-41.3,100.3-47.2,101.6-44.4,96.1z"/>						<path id="path3275" sodipodi:nodetypes="cscss" class="st4" d="M-3.6,118.8c2.8-4.4,5.7-2.8,18.2,7.8							c10.3,8.7,9.4,6.5,16.4,16.6c-2.5,4.7-9-4.5-20.6-12.3C-0.8,123.3-6.8,124-3.6,118.8z"/>						<path id="path3277" sodipodi:nodetypes="csss" class="st4" d="M48,175.1c6.6-16.5-3.1-24.4-6.2-23.4							c-4.4,1.4-2.3,16.4-3.6,21.1c-1.2,3.9,1.2,7.4,4.1,6.6"/>						<path id="path3279" sodipodi:nodetypes="cssss" class="st4" d="M28.3,143c2.3-2.6,8.9-0.4,12.2,3.3c3.2,3.5,8.5,10.2,4.2,15.4							c-2.4,3-6.5,0.5-12.1-6.2C23.8,145.1,26.4,145.1,28.3,143z"/>					</g>				</g>				<path id="path11226" sodipodi:nodetypes="cccccccc" class="st21" d="M-107.7,3.8c-24.1-9.6-36.4,11.4-39.5,29					c8.6,7.2,8.9,12.8,5.7,19.6c0.8,8.8-4.1,21.5-7.2,28.9h75.5c-0.4-8.9,1.5-19.1,3.5-28.5c-6.5-10.3-1.5-17,2-20.5					C-71.9,13.9-82.3-5.3-107.7,3.8z"/>			</g>			<g id="g9706">				<g id="g9633">					<g id="g9564">						<g id="g8518">							<g id="g8481">								<path id="path8418" sodipodi:nodetypes="cccc" class="st22" d="M-172.3,417.3l60.6-122.2c90,60.8,93.8,122,66.2,162.6									C-81.1,511.7-139.3,506.2-172.3,417.3z"/>								<g id="g8470">									<path id="path8452" sodipodi:nodetypes="cc" class="st23" d="M-171.3,407.7c27.8-8.7,81.6-79.9,59.6-110.6"/>									<path id="path8454" sodipodi:nodetypes="cc" class="st23" d="M-36.9,411.5c-11.3-33.5-34.8-76.6-69.7-92.9"/>									<path id="path8456" sodipodi:nodetypes="cc" class="st23" d="M-44.3,439.3c-9.6-39-34.8-86.9-64.9-108.6"/>									<path id="path8458" sodipodi:nodetypes="cc" class="st23" d="M-51.8,456.4c-9.6-39-31.1-94-61.1-115.7"/>									<path id="path8460" sodipodi:nodetypes="cc" class="st23" d="M-65.5,469.1c-9.6-39-21.7-95.5-50.8-119.7"/>									<path id="path8462" sodipodi:nodetypes="cc" class="st23" d="M-80.1,479.9c-9.6-39-13.6-95.5-42.4-119.7"/>									<path id="path8464" sodipodi:nodetypes="cc" class="st23" d="M-98.3,484.2c-6-39.5-6.8-82.7-30.1-115.4"/>									<path id="path8466" sodipodi:nodetypes="cc" class="st23" d="M-116.5,477.7c-5.3-38.5,1-62.5-22-95"/>									<path id="path8468" sodipodi:nodetypes="cc" class="st23" d="M-137.2,462.3c-1.7-32.2,2.5-56.9-11.4-69.7"/>								</g>							</g>							<g id="g8494" transform="matrix(-1,0,0,1,458.08169,2.9626038)">								<path id="path8496" sodipodi:nodetypes="cccc" class="st22" d="M479.1,406.2l61.6-112.6c90,60.8,93.8,122,66.2,162.6									C571.4,510.2,508.6,495.2,479.1,406.2z"/>								<g id="g8498">									<path id="path8500" sodipodi:nodetypes="cc" class="st23" d="M481.2,406.2c27.8-8.7,81.6-79.9,59.6-110.6"/>									<path id="path8502" sodipodi:nodetypes="cc" class="st23" d="M615.5,410c-11.3-33.5-34.8-76.6-69.7-92.9"/>									<path id="path8504" sodipodi:nodetypes="cc" class="st23" d="M608.2,437.8c-9.6-39-34.8-86.9-64.9-108.6"/>									<path id="path8506" sodipodi:nodetypes="cc" class="st23" d="M600.6,455c-9.6-39-31.1-94-61.1-115.7"/>									<path id="path8508" sodipodi:nodetypes="cc" class="st23" d="M587,467.6c-9.6-39-21.7-95.5-50.8-119.7"/>									<path id="path8510" sodipodi:nodetypes="cc" class="st23" d="M572.3,478.5c-9.6-39-13.6-95.5-42.4-119.7"/>									<path id="path8512" sodipodi:nodetypes="cc" class="st23" d="M554.1,482.7c-6-39.5-6.8-82.7-30.1-115.4"/>									<path id="path8514" sodipodi:nodetypes="cc" class="st23" d="M536,476.2c-5.3-38.5,1-62.5-22-95"/>									<path id="path8516" sodipodi:nodetypes="cc" class="st23" d="M515.2,460.8c-1.7-32.2,2.5-56.9-11.4-69.7"/>								</g>							</g>						</g>						<g id="g9531">							<g id="g9521">								<path id="path8545" sodipodi:nodetypes="ccccsc" class="st21" d="M-172.3,419.3c25.8-28.9,47.3-69.2,59.6-134.4L-200,139.3									l-39.5-13.4c-3.8,16.7-1,34.8-2.9,51C-252.1,259.7-219,340.6-172.3,419.3z"/>								<path id="path9519" sodipodi:nodetypes="cccccccccccc" class="st24" d="M-228.6,136.2l-1.7,10.3									c25,48.5,55.6,93.2,97.8,136.4c-39.2-38.4-66.8-75.8-98.7-134.8l-1.8,5c23.6,53.6,57,90.8,88.2,132.4									c-30.9-41.5-65.1-77.2-88.5-131.8l-1.6,3.5c8.1,64.1,23.3,126.7,44.1,188.4c-21.4-58.7-36.1-121-45.4-186.5l-2.9,3.9									c4.7-7.5,7.7-16.9,10.4-26.7"/>							</g>							<g id="g9525" transform="matrix(-0.9996994,2.4518752e-2,2.4518752e-2,0.9996994,422.12101,-3.0323017)">								<path id="path9527" sodipodi:nodetypes="ccccsc" class="st21" d="M455.5,407.6c25.8-28.9,52.3-66.4,64.7-131.5l-87.2-145.7									L393.4,117c-3.8,16.7-1,34.8-2.9,51C380.8,250.8,408.8,328.9,455.5,407.6z"/>								<path id="path9529" sodipodi:nodetypes="cccccccccccc" class="st24" d="M404.2,127.4l-1.7,10.3									c25,48.5,55.6,93.2,97.8,136.4c-39.2-38.4-66.8-75.8-98.7-134.8l-1.8,5c23.6,53.6,57,90.8,88.2,132.4									c-30.9-41.5-65.1-77.2-88.5-131.8l-1.6,3.5C406,212.4,421.2,275,442,336.7c-21.4-58.7-36.1-121-45.4-186.5l-2.9,3.9									c4.7-7.5,7.7-16.9,10.4-26.7"/>							</g>						</g>					</g>					<path id="path9598" sodipodi:nodetypes="ccsssc" class="st25" d="M-194.7,151.8l176.5-3.5c1.1,67.7-26,73.1-39.5,114						c-15.5,47.2-14.3,87.3-41,87.5c-20.7,0.1-29.6-43.1-47.1-89.5C-154.8,236.3-186.3,218.2-194.7,151.8z"/>				</g>				<path id="path9669" sodipodi:nodetypes="cssscccccc" class="st25" d="M-166.2,47.3c6.7,3.5,15.3-2.7,20.7,1.8					c13.6,11.3,26.1,12.2,38.8,11.7c13.3-0.5,26.8-3,40.1-14.3c5.8-5,14.9,1.3,22.4-2.2c31.5,16.8,80.9,24.2,87.5,54					c1.4,45.8-35.2,46.9-61,60.5c-59-4.3-118-2.4-177,4c-23.7-14.6-57.1-21.7-60-51C-247.5,69.6-198.2,65.1-166.2,47.3z"/>			</g>		</g>	</g></g><g id="layer14" inkscape:groupmode="layer" inkscape:label="legenda">	<path id="path3369" sodipodi:nodetypes="cc" class="st26" d="M211.2,121.8l-16.1-67.9"/>	<path id="path3373" sodipodi:nodetypes="cc" class="st26" d="M298.9,164.7l8.7-110.7"/>	<path id="path3377" sodipodi:nodetypes="cc" class="st26" d="M264.9,206.7L71,213.1"/>	<path id="path3385" sodipodi:nodetypes="cc" class="st26" d="M362.4,256.7l204.8-139.9"/>	<path id="path3395" sodipodi:nodetypes="cc" class="st26" d="M567.2,211.7L306,361.7"/>	<path id="path3397" sodipodi:nodetypes="cc" class="st26" d="M567.2,341.2l-162.1,5.1"/>	<path id="path3399" sodipodi:nodetypes="cc" class="st26" d="M160.4,425.2l-89.4,33"/>	<path id="path3403" sodipodi:nodetypes="ccc" class="st26" d="M448.4,488.7l118.8,37.7l-136.4,11.3"/>	<path id="path3405" sodipodi:nodetypes="cc" class="st26" d="M145.4,521.7L71,520.8"/>	<path id="path3407" sodipodi:nodetypes="ccc" class="st26" d="M166.9,606.7L71,585.9l67.3,50.7"/>	<path id="path3409" sodipodi:nodetypes="cc" class="st26" d="M128.9,651.7L71,663.2"/>	<text transform="matrix(1 0 0 1 37.3212 675.6544)" class="st27 st28">1</text>	<text transform="matrix(1 0 0 1 37.3212 592.6105)" class="st27 st28">2</text>	<text transform="matrix(1 0 0 1 37.3217 536.0411)" class="st27 st28">3</text>	<text transform="matrix(1 0 0 1 37.3212 472.1446)" class="st27 st28">4</text>	<text transform="matrix(1 0 0 1 37.3217 227.7428)" class="st27 st28">8</text>	<text transform="matrix(1 0 0 1 185.0741 41.8507)" class="st27 st28">9</text>	<text transform="matrix(1 0 0 1 281.8705 41.8507)" class="st27 st28">10</text>	<text transform="matrix(1 0 0 1 576.1073 219.358)" class="st27 st28">26</text>	<text transform="matrix(1 0 0 1 576.1073 355.2696)" class="st27 st28">27</text>	<text transform="matrix(1 0 0 1 576.1073 410.838)" class="st27 st28">28</text>	<text transform="matrix(1 0 0 1 576.1073 473.5489)" class="st27 st28">29</text>	<text transform="matrix(1 0 0 1 576.1073 543.1368)" class="st27 st28">23</text>	<text transform="matrix(1 0 0 1 576.1073 116.0191)" class="st27 st28">25</text>	<text transform="matrix(1 0 0 1 129.4218 152.127)" class="st27 st28">A</text>	<text transform="matrix(1 0 0 1 103.6938 277.2472)" class="st27 st28">B</text>	<text transform="matrix(1 0 0 1 192.1913 650.7472)" class="st27 st28">C</text>	<path id="path11822" sodipodi:nodetypes="cc" class="st26" d="M405.9,420.4l161.3-21.3"/>	<path id="path11824" sodipodi:nodetypes="cc" class="st26" d="M412.5,658.4l-92.1-87.8"/>	<path id="path11826" sodipodi:nodetypes="cc" class="st26" d="M435.1,442.6l132.1,12.7"/>	<text transform="matrix(1 0 0 1 401.5312 693.046)" class="st27 st28">30</text></g></svg>